/* XPM */
static char *b36d48700d5a417ab4f9e36de0fb6dc59sqUkIqmwcsmKpC4[] = {
/* columns rows colors chars-per-pixel */
"50 50 85 1 ",
"  c #141B1B",
". c #342B36",
"X c #512C38",
"o c #723327",
"O c #7A2A33",
"+ c #443444",
"@ c #543C52",
"# c #703547",
"$ c #633C53",
"% c #713D54",
"& c #4F5454",
"* c #D14B34",
"= c #993342",
"- c #8F3E56",
"; c #A33D53",
": c #B73B51",
"> c #CC3A4E",
", c #E0394C",
"< c #878B8B",
"1 c #898C8C",
"2 c #898D8D",
"3 c #A4B5C4",
"4 c #A7B7C4",
"5 c #A9BBCA",
"6 c #B9C6CD",
"7 c #AFC0D4",
"8 c #B0C1D3",
"9 c #BFCCD2",
"0 c #B4C5DB",
"q c #B6C7DC",
"w c #BCCDE6",
"e c #BECFEA",
"r c #C4C6C6",
"t c #C3CED3",
"y c #C1CCD4",
"u c #C4D0D9",
"i c #CDD6DB",
"p c #CCD6DD",
"a c #C4D1E1",
"s c #CCD7E4",
"d c #C7D5EC",
"f c #C8D5ED",
"g c #D2DBE2",
"h c #D4DCE0",
"j c #D7DEE2",
"k c #D5DDE5",
"l c #D3DDE9",
"z c #C5D5F3",
"x c #C6D7F6",
"c c #CAD9F2",
"v c #CCDBFC",
"b c #CEDDFC",
"n c #CFDEFC",
"m c #DEE3E6",
"M c #DCE3EA",
"N c #D6E3FB",
"B c #D2E0FC",
"V c #D2E1FD",
"C c #D4E2FD",
"Z c #D7E3FD",
"A c #DAE5FD",
"S c #DCE7FD",
"D c #DFE8FD",
"F c #E1E7EA",
"G c #E4EAEF",
"H c #EAEEF2",
"J c #E0EAFD",
"K c #E3ECFD",
"L c #E6EEFD",
"P c #EEF1F2",
"I c #EDF2F7",
"U c #EAF0FE",
"Y c #ECF2FE",
"T c #EFF4FE",
"R c #F2F4F6",
"E c #F3F5F6",
"W c #F6F7F8",
"Q c #F0F5FE",
"! c #F3F6FE",
"~ c #F7F9FA",
"^ c #F7F9FE",
"/ c #F9FAFA",
"( c #F8FBFE",
") c #FBFDFF",
"_ c white",
/* pixels */
"_______________C(V________G4y/_____________QJLU___",
"_______________V(S_______E8ewk_____________QJUQ___",
"Q______________V^________UcsNJ_____________QS_____",
"K______________J(________bC_QY_____________(U_____",
"LLT______________________bU_______________________",
"UYQ______________________Y________________________",
"__________________________________________________",
"_______r2222222______________jF___________________",
"_______2       _____________FitG__________________",
"_______2       ______________jm___________________",
"_______2  ,,,,,                    _______________",
"_______2  ,,,,,                    _______________",
"_____22&  ,,>::XXXXXOOOOOOOOOOOOOOO22r____________",
"_____     ,,:-------,,,,,,,,,,,,,,,  1____________",
"_____     ,,:-------,,,,,,,,,,,,,,,  2____________",
"_____  O,,-----,,,,,--:,,,,,,,,,,,,,,O  __________",
"_____  O,,-----,,,,,--:,,,,,,,,,,,,,,O  _____UnCV^",
"_____  O,,::;--,,,,,--:,,,,,,,,,,,,,,=XX22r____((^",
"_____  O,,,,:--,,,,,--:,,,,,,,,,,,,,,:--  2____LAA",
"FYT__  O,,,,:--,,,,,--:,,,,,,,,,,,,,,:--  2_______",
"qVY__       X-------,,,,,,,,,,,,,,,,,:--  2_______",
"xa___       X-------,,,,,,,,,,,,,,,,,:--  2_______",
"7wDY_11&  XX#--:::::,,,,,,,,,,,,,,,::;--  2_______",
"GLnBU__<  -----,,,,,,,,,,,,,,,,,,,,-----  2_______",
"__^^(__2  -----,,,,,,,,,,,,,,,,,,,,-----  2_______",
"_______2  ------------------------------  2_(^____",
"_______2  ------------------------------  2^CnLI~_",
"_______2  ------------------------------  2_QDfqp/",
"_______2  ------------------------------  2__)se5E",
"_______2  ------------------------------  2__^Cwu~",
"_______2  ------------------------------  <__TUMI_",
"S______2  ------------------------------  2_______",
"^______r22XX#------------------------#XX<1r_______",
"VCK_______  X------------------------X  __________",
"(_________  X------------------------X  __________",
"__________     @@@@@@@@@@@@@@@@@@@@     __________",
"__________     @@@@@@@@@@@@@@@@@@@@     __________",
"_______r22ooooo%%$@@%%%%%%%%%%@@$%%ooooo22r_______",
"_______2  *****--%@@----------@@%--*****  2_______",
"_______2  *****--%@@----------@@%--*****  1_______",
"_______2  *****@@@@@@@@@@@@@@@@@@@@*****  2_______",
"_______2  *****@@@@@@@@@@@@@@@@@@@@*****  2_______",
"_______r22ooooo@@@@@@@+....+@@@@@@@ooooo22r_______",
"__________     @@@@@@@.    .@@@@@@@     __________",
"__________     @@@@@@@.    .@@@@@@@     _____^YYY_",
"_____________________QZQ_____________________QLUL)",
"___QY_____________(Y_SvQ________J______________UJJ",
"___YL_____________QCldS^________C______________TUU",
"9^LUL_____________HqzqM_______U(V______________jH_",
"PQJUL______________g3gW_______STV______________W6E"
};
