/* XPM */
static char *e2b0bcfc526648b0bcf589cb8fca068a8sx6a0kpHG4jzHvc[] = {
/* columns rows colors chars-per-pixel */
"50 50 95 2 ",
"   c #141B1B",
".  c #342B36",
"X  c #512C38",
"o  c #723327",
"O  c #7A2A33",
"+  c #7A442E",
"@  c #543C52",
"#  c #703547",
"$  c #633C53",
"%  c #713D54",
"&  c #4F5454",
"*  c #667074",
"=  c #767D7F",
"-  c #815635",
";  c #D14B34",
":  c #843445",
">  c #993342",
",  c #8F3E56",
"<  c #A33D53",
"1  c #B73B51",
"2  c #E0394C",
"3  c #E06E41",
"4  c #EF914F",
"5  c #878B8B",
"6  c #898C8C",
"7  c #898D8D",
"8  c #A4B5C4",
"9  c #A7B7C4",
"0  c #A9BBCA",
"q  c #BFC1C2",
"w  c #B9C6CD",
"e  c #AFC0D4",
"r  c #B0C1D3",
"t  c #BFCCD2",
"y  c #B4C5DB",
"u  c #B6C7DC",
"i  c #BCCDE6",
"p  c #BECFEA",
"a  c #C4C6C6",
"s  c #C3CED3",
"d  c #C1CCD4",
"f  c #C4D0D9",
"g  c #CDD6DB",
"h  c #CCD6DD",
"j  c #C4D1E1",
"k  c #CCD7E4",
"l  c #CDD8E5",
"z  c #C7D5EC",
"x  c #C8D5ED",
"c  c #D2DBE2",
"v  c #D4DCE0",
"b  c #D5DCE0",
"n  c #D7DEE2",
"m  c #D5DDE5",
"M  c #D3DDE9",
"N  c #C5D5F3",
"B  c #C6D7F6",
"V  c #CAD9F2",
"C  c #CCDBFC",
"Z  c #CEDDFC",
"A  c #CFDEFC",
"S  c #DEE3E6",
"D  c #DCE3EA",
"F  c #D6E3FB",
"G  c #D2E0FC",
"H  c #D2E1FD",
"J  c #D4E2FD",
"K  c #D7E3FD",
"L  c #DAE5FD",
"P  c #DCE7FD",
"I  c #DFE8FD",
"U  c #E1E7EA",
"Y  c #E4EAEF",
"T  c #EAEEF2",
"R  c #E0EAFD",
"E  c #E3ECFD",
"W  c #E6EEFD",
"Q  c #EEF1F2",
"!  c #EEF1F3",
"~  c #EDF2F7",
"^  c #EAF0FE",
"/  c #ECF2FE",
"(  c #EFF4FE",
")  c #F2F4F6",
"_  c #F3F5F6",
"`  c #F6F7F8",
"'  c #F0F5FE",
"]  c #F3F6FE",
"[  c #F3F7FE",
"{  c #F7F9FA",
"}  c #F7F9FE",
"|  c #F9FAFA",
" . c #F8FBFE",
".. c #FBFDFF",
"X. c white",
/* pixels */
"X.X.X.X.X.X.X.X.X.X.X.X.X.X.X.J  .H X.X.X.X.X.X.X.X.Y 9 d | X.X.X.X.X.X.X.X.X.X.X.X.X.' R W ^ X.X.X.",
"X.X.X.X.X.X.X.X.X.X.X.X.X.X.X.H  .P X.X.X.X.X.X.X._ r p i m X.X.X.X.X.X.X.X.X.X.X.X.X.' R ^ ' X.X.X.",
"' X.X.X.X.X.X.X.X.X.X.X.X.X.X.H } X.X.X.X.X.X.X.X.^ V k F R X.X.X.X.X.X.X.X.X.X.X.X.X.' P X.X.X.X.X.",
"E X.X.X.X.X.X.X.X.X.X.X.X.X.X.R  .X.X.X.X.X.X.X.X.Z J X.' / X.X.X.X.X.X.X.X.X.X.X.X.X. .^ X.X.X.X.X.",
"W W ( X.X.X.X.X.X.X.X.X.X.X.X.X.X.X.X.X.X.X.X.X.X.Z ^ X.X.X.X.X.X.X.X.X.X.X.X.X.X.X.X.X.X.X.X.X.X.X.",
"^ / ' X.X.X.X.X.X.X.X.X.X.X.X.X.X.X.X.X.X.X.X.X.X./ X.X.X.X.X.X.X.X.X.X.X.X.X.X.X.X.X.X.X.X.X.X.X.X.",
"X.X.X.X.X.X.X.X.X.X.X.X.X.X.X.X.X.X.X.X.X.X.X.X.X.X.X.X.X.X.X.X.X.X.X.X.X.X.X.X.X.X.X.X.X.X.X.X.X.X.",
"X.X.X.X.X.X.X.X.X.X.X.X.X.X.X.X.X.X.X.X.X.X.X.X.X.X.X.X.X.n U X.X.X.X.7 7 7 7 7 7 7 a X.X.X.X.X.X.X.",
"X.X.X.X.X.X.X.X.X.X.X.X.X.X.X.X.X.X.X.X.X.X.X.X.X.X.X.X.U g s Y X.X.X.              7 X.X.X.X.X.X.X.",
"X.X.X.X.X.X.X.X.X.X.X.X.X.X.X.X.X.X.X.X.X.X.X.X.X.X.X.X.X.n S X.X.X.X.              7 X.X.X.X.X.X.X.",
"X.X.X.X.X.X.X.X.X.X.X.X.X.X.X.                                        , , , , ,     7 X.X.X.X.X.X.X.",
"X.X.X.X.X.X.X.X.X.X.X.X.X.X.X.                                        , , , , ,     7 X.X.X.X.X.X.X.",
"X.X.X.X.X.X.X.X.X.X.X.X.a 7 7 O O O O O O O O O O O O O O O O O O O O , , , , ,     & 7 6 X.X.X.X.X.",
"X.X.X.X.X.X.X.X.X.X.X.X.7     2 2 2 2 2 2 2 2 2 2 2 2 2 2 2 2 2 2 2 2 , , , , ,           X.X.X.X.X.",
"X.X.X.X.X.X.X.X.X.X.X.X.7     2 2 2 2 2 2 2 2 2 2 2 2 2 2 2 2 2 2 2 2 , , , , ,           X.X.X.X.X.",
"X.X.X.X.X.X.X.X.X.X.    O 2 2 2 2 2 2 2 2 2 2 2 2 2 2 2 2 2 2 2 2 2 2 , , X     , , X     X.X.X.X.X.",
"X.X.X.X.X.X.X.X.X.X.    O 2 2 2 2 2 2 2 2 2 2 2 2 2 2 2 2 2 2 2 2 2 2 , , X     , , X     ^ G G H } ",
"X.X.X.X.X.X.X.q 6 6 X X > 2 2 2 2 2 2 2 2 2 2 2 2 2 2 2 2 2 2 2 2 2 2 1 1 : X X , , X     X.X. . .} ",
"X.X.X.X.X.X.T *     , , 1 2 2 2 2 2 2 2 2 2 2 2 2 2 2 2 2 2 2 2 2 2 2 2 2 1 , , , , X     X.X.W L L ",
"U / ' X.X.X.b =     , , 1 2 2 2 2 2 2 2 2 2 2 2 2 2 2 2 2 2 2 2 2 2 2 2 2 1 , , , , X     X.X.X.X.X.",
"u G / X.X.X.X.=     , , 1 2 2 2 2 2 2 2 2 2 2 2 2 2 2 2 2 2 2 2 2 2 2 2 2 O               X.X.X.X.X.",
"B j X.X.X.X.X.5     , , 1 2 2 2 2 2 2 2 2 2 2 2 2 2 2 2 2 2 2 2 2 2 2 2 2 O               X.X.X.X.X.",
"0 i P / X.X.X.6     , , < 1 1 2 2 2 2 2 2 2 2 2 2 2 2 2 2 2 2 2 2 2 2 1 1 : X X     & 7 7 X.X.X.X.X.",
"T W G G ^ X.X.6     , , , , , 2 2 2 2 2 2 2 2 2 2 2 2 2 2 2 2 2 2 2 2 , , , , ,     7 X.X.X.X.X.X.X.",
"X.X.} }  .X.X.6     , , , , , 2 2 2 2 2 2 2 2 2 2 2 2 2 2 2 2 2 2 2 2 , , , , ,     6 X.X.X.X.X.X.X.",
"X.X.X.X.X.X.X.7     , , % @ @ ; ; o     ; ; ; ; ; ; ; ; ; ;     o ; ; @ @ % , ,     7 X. . ...X.X.X.",
"X.X.X.X.X.X.X.7     , , % @ @ ; ; o     ; ; ; ; ; ; ; ; ; ;     o ; ; @ @ % , ,     7  .J G W ~ { X.",
"X.X.X.X.X.X.X.7     , , % @ @ 3 3 +     3 3 3 3 3 3 3 3 3 3     + 3 3 @ @ % , ,     7 X.' P x u h | ",
"X.X.X.X.X.X.X.7     , , % @ & 4 4 -     4 4 4 4 4 4 4 4 4 4     - 4 4 @ @ % , ,     7 X.X...k p 0 _ ",
"X.X.X.X.X.X.X.7     , , % @ @ 4 4 +     4 4 4 4 4 4 4 4 4 4     - 4 4 @ @ % , ,     7 X.X.} H i f { ",
"X.X.X.X.X.X.X.7     , , , , , 2 2 2 2 2 2 2 2 2 2 2 2 2 2 2 2 2 2 2 2 , , , , ,     5 X.X.' ^ D Q X.",
"P X.X.X.X.X.X.7     , , , , , 2 2 2 2 2 2 2 2 2 2 2 2 2 2 2 2 2 2 2 2 , , , , ,     7 X.X.X.X.X.X.X.",
"} X.X.X.X.X.X.a 7 7 X X # , , 1 1 1 1 1 1 1 1 1 1 1 1 1 1 1 1 1 1 1 1 , , # X X 5 6 a X.X.X.X.X.X.X.",
"H J R X.X.X.X.X.X.X.    X , , , , , , , , , , , , , , , , , , , , , , , , X     X.X.X.X.X.X.X.X.X.X.",
" .X.X.X.X.X.X.X.X.X.    X , , , , , , , , , , , , , , , , , , , , , , , , X     X.X.X.X.X.X.X.X.X.X.",
"X.X.X.X.X.X.X.X.X.X.          @ @ @ @ @ @ @ @ @ @ @ @ @ @ @ @ @ @ @ @           X.X.X.X.X.X.X.X.X.X.",
"X.X.X.X.X.X.X.X.X.X.          @ @ @ @ @ @ @ @ @ @ @ @ @ @ @ @ @ @ @ @           X.X.X.X.X.X.X.X.X.X.",
"X.X.X.X.X.X.X.a 7 7 o o o o o % % $ @ @ % % % % % % % % % % @ @ $ % % o o o o o 7 7 a X.X.X.X.X.X.X.",
"X.X.X.X.X.X.X.7     ; ; ; ; ; , , % @ @ , , , , , , , , , , @ @ % , , ; ; ; ; ;     7 X.X.X.X.X.X.X.",
"X.X.X.X.X.X.X.7     ; ; ; ; ; , , % @ @ , , , , , , , , , , @ @ % , , ; ; ; ; ;     7 X.X.X.X.X.X.X.",
"X.X.X.X.X.X.X.7     4 4 4 4 4 @ @ @ @ @ @ @ .         . @ @ @ @ @ @ @ 4 4 4 4 4     7 X.X.X.X.X.X.X.",
"X.X.X.X.X.X.X.7     4 4 4 4 4 @ @ @ @ @ @ @ .         . @ @ @ @ @ @ @ 4 4 4 4 4     7 X.X.X.X.X.X.X.",
"X.X.X.X.X.X.X.a 7 7 - - - - - @ @ @ @ @ @ @ .         . @ @ @ @ @ @ @ - - - - - 7 7 a X.X.X.X.X.X.X.",
"X.X.X.X.X.X.X.X.X.X.          @ @ @ @ @ @ @ .         . @ @ @ @ @ @ @           X.X.X.X.X.X.X.X.X.X.",
"X.X.X.X.X.X.X.X.X.X.          @ @ @ @ @ @ @ .         . @ @ @ @ @ @ @           X.X.X.X.X.} / / / X.",
"X.X.X.X.X.X.X.X.X.X.X.X.X.X.X.X.X.X.X.X.X.' K ' X.X.X.X.X.X.X.X.X.X.X.X.X.X.X.X.X.X.X.X.X.' W ^ W ..",
"X.X.X.' / X.X.X.X.X.X.X.X.X.X.X.X.X. ./ X.P C ' X.X.X.X.X.X.X.X.R X.X.X.X.X.X.X.X.X.X.X.X.X.X.^ R R ",
"X.X.X./ W X.X.X.X.X.X.X.X.X.X.X.X.X.' H M x P } X.X.X.X.X.X.X.X.J X.X.X.X.X.X.X.X.X.X.X.X.X.X.( ^ ^ ",
"t } W ^ W X.X.X.X.X.X.X.X.X.X.X.X.X.T u N y D X.X.X.X.X.X.X.^  .H X.X.X.X.X.X.X.X.X.X.X.X.X.X.n T X.",
"Q ' R ^ W X.X.X.X.X.X.X.X.X.X.X.X.X.X.c 9 c ` X.X.X.X.X.X.X.P ( H X.X.X.X.X.X.X.X.X.X.X.X.X.X.` w _ "
};
