/* XPM */
static char *result[] = {
/* columns rows colors chars-per-pixel */
"50 50 78 1 ",
"  c #141B1B",
". c #151B1B",
"X c #141C1B",
"o c #27282F",
"O c #28282F",
"+ c #312F39",
"@ c #313132",
"# c #7A2A33",
"$ c #64393F",
"% c #314438",
"& c #30563E",
"* c #34593D",
"= c #554039",
"- c #755332",
"; c #3B3643",
": c #3C3643",
"> c #3C3743",
", c #403A45",
"< c #443F46",
"1 c #3F7450",
"2 c #494348",
"3 c #4E484A",
"4 c #646661",
"5 c #E0394C",
"6 c #97404B",
"7 c #896046",
"8 c #8B7C63",
"9 c #57995F",
"0 c #599A5F",
"q c #5A9B5E",
"w c #5B9B5E",
"e c #5C9C5D",
"r c #5D9D5D",
"t c #5E9D5D",
"y c #5F9E5D",
"u c #619F5C",
"i c #63A15B",
"p c #64A25B",
"a c #66A35A",
"s c #66A25B",
"d c #67A45A",
"f c #62A05C",
"g c #69A559",
"h c #6BA659",
"j c #68A45A",
"k c #6CA758",
"l c #6CA759",
"z c #6DA759",
"x c #6EA958",
"c c #70AA57",
"v c #72AA57",
"b c #74AB57",
"n c #74AC56",
"m c #75AD56",
"M c #74AC57",
"N c #4F9361",
"B c #4D9262",
"V c #4E9262",
"C c #4E9362",
"Z c #509361",
"A c #509362",
"S c #519460",
"D c #509461",
"F c #519461",
"G c #529560",
"H c #529561",
"J c #509462",
"K c #549760",
"L c #559760",
"P c #8D977F",
"I c #B29164",
"U c #D78B4A",
"Y c #E4A75D",
"T c #D2A770",
"R c #F1C471",
"E c #C1A683",
"W c #ABC2BC",
"Q c #CEC396",
/* pixels */
"BBBBBBBBBBBBBBBBBBBsmHym9BBBBBBBBBBBBBBBBBBBBBBBBB",
"BBBBBBBBBBBBBBBBBBBrjyijKBBBBBBBBBBBBBBBBBBBBBBBBB",
"BBBBBBBBBBBBBBBBBBBZHmjHCBBBBBBBBBBBBBBBBBBBBBBBBB",
"BBBBBBBBBBBBBBBBBBBVCwLCVBBBBBBBBBBBBBBBBBBBBBBBBB",
"BBBBBBBBBBBBBBBBBBBBBFJBBBBBBBBBBBBBBGNBBBBBBBBBBB",
"BBBBBBBBBBBBBBBBBBBBBBBBBBBBBBBBBBBBBchBBBBBBBBBBB",
"BBBBBBBBBBBBBBBBBBBBBBBBBBBBBBBBBBBBBvzBqtBBBBBBBB",
"BBBBBBBBBBBBBBBBBBBBBBBBBBBBBBBBBBBBBnxBscBBBBBBBB",
"BBBBBBBBBBBBBBBBBBBBBBBBBBBBBBBBBBBBBnxBgbBBBBBBBB",
"BBBBBBBBBBBBBBBBBBBBBBBBBBBBBBBBBBBBBdpBgMBBBBBBBB",
"BBBBBBBBBBBB&       BBBBBBBBBBBBBBBBBFFBgMBBBBBBBB",
"BBBBBBBBBBBB&       BBBBBBBBBBBBBBBBBCCB90BBBBBBBB",
"BBBBBBBBBB&&=#######&&&&&&&&&&&&&&&BBBBBAFBBBBBBBB",
"BBBBBBBBBB  #5555555               BBBBBBBBBBBBBBB",
"BBBBBBBBBB  #5555555               BBBBBBBBBBBBBBB",
"BBBBBBB&  5563333333333333333333333  &BBBBBBBBBBBB",
"BBBBBBB&  5563333333333333333333333  &BBBBBBBBBBBB",
"BBBBBBB1&&##$3333333333333333333333@@%&&BBBBBBBBBB",
"BBBBBBBBBB  @333333333333333333333333@  BBBBBBBBBB",
"BBBBBBBBBB  @333333333333333333333333@  BBBBBBBBBB",
"BBBBBBB&  333333333333333333333333333333  &BBBBBBB",
"maBBBBB&  333333333333333333333333333333  &BBBBBBB",
"jfeNBBB&  33333<<233<<233332<<332<<33333  &BBBBBBB",
"Hym9BBB&  33333;;<33;;<3333<;;33<;;33333  &BBBBBBB",
"ljwSBBB&  33333;;<33;;<3333<;;33<;;33333  &BBBBBBB",
"kuDCBBB&  33<;;;;<33;;<3333<;;33<;;;;<33  &BBBBBBB",
"HDBBBBB&  33<;;;;<33;;<3333<;;33<;;;;<33  &BBBBBBB",
"CVBBBBB&  33<;;;;,<<;;,<<<<,;;<<,;;;;<33  &BBBBBBB",
"BBBBBBB&  33<;;;;;;;;;;;;;;;;;;;;;;;;<33  &BBBBBBB",
"BBBBBBB&  33<;;;;;;;;;;;;;;;;;;;;;;;;<33  &BBBBBBB",
"BBBBBBB&  33<;;;;;;;;;;;;;;;;;;;;;;;;<33  &BBBBBBB",
"BBBBBBB&  33<;;;;;;;;;;;;;;;;;;;;;;;;<33  &BBBBBBB",
"BBBBBBB&  33<;;;;;;;;;;;;;;;;;;;;;;;;<33  &BBBBBBB",
"BBBBBBB&  33<;;;;;;;;;;;;;;;;;;;;;;;;<33  &BBBBBBB",
"BBBBBBB& X33<;;;;;;;;;;;;;;;;;;;;;;;;<33  &BBBBBBB",
"BBBBBBBBBt  o;;;;;;;;;;;;;;;;;;;;;;;;o  BBBBBBBBBB",
"BBBBBBBBBt  o;;;;;;;;;;;;;;;;;;;;;;;;o  BBBBBBBBBB",
"BBBBBBB1&*oo+;;;;;;;;;;;;;;;;;;;;;;;;+oo&&1BBBBBBB",
"BBBBBBB&  ;;;;;;;;;;;;;;;;;;;;;;;;;;;;;;  &BBBBBBB",
"BBBBBBB&  ;;;;;;;;;;;;;;;;;;;;;;;;;;;;;;  &BBBBBBB",
"BBBBBBB&  ;;;;;;;;;;;;;;;;;;;;;;;;;;;;;;  &BBBBBBB",
"BBBBBBB&  ;;;;;;;;;;;;;;;;;;;;;;;;;;;;;;  &BBBBBBB",
"BBBBBBB&  oo+;;;;;;;;;;;;;;;;;;;;;;;;+oo  &BBBBBBB",
"BBBBBBB&    o;;;;;;;;;;;;;;;;;;;;;;;;o    &BBBBBBB",
"BBBBBBB&....O>>::;;;;;;;;;;;;;;;;;;;;o    &BBBBBBB",
"BBBBB  -UUUUYRRUU7;;;;;;;;;;;;;;7UURRYUUUU-  BBBBB",
"BBBBB  -UUUUYRRUU7;;;;;;;;;;;;;;7UURRYUUUU-  BBBBB",
"BBBBB  -UUUUTQQII8444444444444448IIQQTUUUU-  BBBBB",
"BBBBB  -UUUUEWWPPPPPPPPPPPPPPPPPPPPWWEUUUU-  BBBBB",
"BBBBB  -UUUUEWWPPPPPPPPPPPPPPPPPPPPWWEUUUU-  BBBBB"
};
