/* XPM */
static char *_bbeb0f3bd8342329f740e6bc26e3644TeDTLb8BMperxo7U[] = {
/* columns rows colors chars-per-pixel */
"50 50 139 2 ",
"   c #141B1B",
".  c #2E251F",
"X  c #192722",
"o  c #1E2B23",
"O  c #1B2A24",
"+  c #202D22",
"@  c #312D23",
"#  c #322D23",
"$  c #383C2C",
"%  c #482F22",
"&  c #482F23",
"*  c #723327",
"=  c #2E402A",
"-  c #284635",
";  c #294836",
":  c #2A4A37",
">  c #344A36",
",  c #2E533D",
"<  c #30563E",
"1  c #4D4F37",
"2  c #5D4930",
"3  c #7C442A",
"4  c #73613D",
"5  c #386547",
"6  c #3A6B49",
"7  c #3B6C4B",
"8  c #3F7450",
"9  c #48724E",
"0  c #44794F",
"q  c #407650",
"w  c #417952",
"e  c #417A53",
"r  c #477D51",
"t  c #437C54",
"y  c #437D55",
"u  c #447F55",
"i  c #84422E",
"p  c #964E2E",
"a  c #A35330",
"s  c #A65B35",
"d  c #89643C",
"f  c #B7683B",
"g  c #D14B34",
"h  c #D34F35",
"j  c #D55336",
"k  c #D55337",
"l  c #DA5C37",
"z  c #DC5E37",
"x  c #D75739",
"c  c #DB5F3B",
"v  c #C96236",
"b  c #CA6236",
"n  c #C26B3E",
"m  c #DC6038",
"M  c #DE6238",
"N  c #DC633E",
"B  c #E36D3A",
"V  c #E46D3A",
"C  c #E5713C",
"Z  c #E7753E",
"A  c #E8753E",
"S  c #9E7644",
"D  c #A67644",
"F  c #EA7D42",
"G  c #E87C48",
"H  c #478457",
"J  c #458258",
"K  c #468459",
"L  c #47855A",
"P  c #48875B",
"I  c #48885B",
"U  c #48885C",
"Y  c #4A8B5E",
"T  c #4A8C5E",
"R  c #528B55",
"E  c #57985F",
"W  c #58995F",
"Q  c #5C9C5D",
"!  c #5F9E5D",
"~  c #619753",
"^  c #629752",
"/  c #659D55",
"(  c #609E5B",
")  c #629F5B",
"_  c #619F5C",
"`  c #6CA253",
"'  c #6EA454",
"]  c #63A15B",
"[  c #64A25B",
"{  c #66A25B",
"}  c #67A45A",
"|  c #63A15C",
" . c #68A459",
".. c #69A559",
"X. c #6CA758",
"o. c #6CA759",
"O. c #6EA958",
"+. c #72A854",
"@. c #70AA57",
"#. c #74AA54",
"$. c #74AB57",
"%. c #74AD56",
"&. c #75AD56",
"*. c #78AF55",
"=. c #79AF55",
"-. c #70A958",
";. c #7AB055",
":. c #4B8E60",
">. c #4B8F60",
",. c #4C9161",
"<. c #4D9162",
"1. c #4D9262",
"2. c #4E9362",
"3. c #509361",
"4. c #519461",
"5. c #579860",
"6. c #DE9350",
"7. c #EC8144",
"8. c #EE8547",
"9. c #F18D4B",
"0. c #E29B55",
"q. c #F79C54",
"w. c #F89D54",
"e. c #FBA558",
"r. c #FEAC5D",
"t. c #FFAD5D",
"y. c #E9946F",
"u. c #949798",
"i. c #9F9CA1",
"p. c #F2AC80",
"a. c #EBAB95",
"s. c #FAC494",
"d. c #D9C1B1",
"f. c #F8CBA7",
"g. c #F7D3B9",
"h. c #D6D0D6",
"j. c #F6D7C2",
"k. c #F5DACC",
"l. c #F2EAF1",
/* pixels */
"1.1.1.1.1.1.1.1.1.1.1.1.1.1.1.1.1.1.1.1.1.1.1.1.1.1.1.1.1.1.1.1.1.1.1.>.Y 1.1.1.1.1.1.1.1.1.1.1.1.1.",
"1.1.1.1.1.1.1.1.1.1.1.1.1.1.1.1.1.1.1.1.1.1.1.1.1.1.1.1.1.1.1.1.1.1.1.Y P 1.1.1.1.1.1.1.1.1.1.1.1.1.",
"1.1.1.1.1.1.1.1.1.1.1.1.1.1.1.1.1.1.1.1.1.1.1.1.1.1.1.1.1.1.1.1.1.1.1.J q Y >.1.1.1.1.1.1.1.1.1.1.1.",
"1.1.1.1.1.1.1.1.1.1.1.1.1.1.1.1.1.1.1.1.1.1.1.1.1.1.1.1.1.1.1.1.1.>.u J P u H >.1.1.1.1.1.1.1.1.1.1.",
"1.1.1.1.1.1.1.1.1.1.1.1.1.1.1.1.1.1.1.1.1.1.1.1.1.1.1.1.1.1.1.1.1.>.w J Y u u 1.1.1.1.1.1.1.1.1.1.1.",
"1.1.1.1.1.1.1.1.1.1.1.1.1.1.1.1.1.1.1.1.1.1.1.1.1.1.1.1.1.1.1.1.1.1.1.J q >.1.1.1.1.1.1.1.1.1.1.1.1.",
"1.1.1.1.1.1.1.1.1.1.1.1.1.1.1.1.1.1.1.1.1.1.1.1.1.1.1.1.1.1.1.1.1.1.1.Y J >.1.1.1.1.1.1.1.1.1.1.1.1.",
"1.1.1.1.1.1.1.1.1.1.1.1.1.1.1.1.1.1.1.1.1.1.1.1.1.1.1.1.1.1.1.1.1.1.1.1.1.1.1.1.1.1.1.1.1.1.1.1.1.1.",
"1.1.1.1.1.1.1.1.1.1.1.1.1.1.1.1.1.1.1.1.1.1.1.1.1.1.1.4.4.1.1.1.1.1.1.1.1.1.1.1.1.1.1.1.1.1.1.1.1.1.",
"1.1.1.1.1.1.1.1.1.1.1.1.1.1.1.1.1.1.1.1.1.1.1.1.1.1.1.W [ 1.1.1.1.1.1.1.1.1.1.1.1.1.1.1.1.1.1.1.1.1.",
"1.1.1.1.1.1.1.1.1.1.1.1.1.1.1.1.1.1.1.1.1.1.1.1.1.1.1...;.4.4.1.1.1.1.1.1.1.1.1.1.1.1.1.1.1.1.1.1.1.",
"1.1.1.1.1.1.1.1.1.1.4.1.1.1.1.1.1.1.1.1.1.1.1.1.1.1.1...;.@.[ 1.1.1.3.3.1.1.1.1.1.1.1.1.1.1.1.1.1.1.",
"1.1.1.1.1.1.1.1.1.4.E 1.1.1.1.1.1.1.1.1.1.1.1.1.1.1.1...=.;...1.T 3.E 3.1.1.1.1.1.1.1.1.1.1.1.1.1.1.",
"1.1.1.1.1.1.1.1.1.! ;.W 1.1.1.1.1.1.1.1.1.1.1.1.1.1.1...&.;...:.3.E =.[ 1.1.1.1.1.1.1.1.1.1.1.1.1.1.",
"1.1.1.1.1.1.1.1.1.! =.W 1.4.1.1.1.1.1.1.1.1.1.1.1.1.1.W ) &./ H )  .#.) 1.1.1.1.1.1.1.1.1.1.1.1.1.1.",
"1.1.1.1.1.1.1.1.1.! ;.W 1.4.4.1.1.1.1.1.1.1.1.1.1.1.1.1.1.@.^ 0 ' =.#.) 1.1.1.1.1.1.1.1.1.1.1.1.1.1.",
"1.1.1.1.1.1.1.1.1.! ;.E 4.&.| 1.1.1.1.1.2.2.2.2.,.,.1.1.1.J R X.@.' r P 1.1.1.1.1.1.1.1.1.1.1.1.1.1.",
"1.1.1.1.1.1.1.1.1.! &.E 5.=.| :           O     L 1.1.1.1.8 R / / ~ u P 1.1.1.1.1.1.1.1.1.1.1.1.1.1.",
"1.1.1.1.1.1.1.1.1.Q %.E 4.= O u.h.h.h.d.0.0.6.6.$ O O O O O : 8 6 X O O O w 1.1.1.1.1.1.1.1.1.1.1.1.",
"1.1.1.1.1.1.1.1.2.4.! 4.E o   i.l.l.l.k.t.t.t.r.@           ; U w         q 1.1.1.1.1.1.1.1.1.1.1.1.",
"1.1.1.1.1.1.1.1.1.1.1.: ; S D d.l.j.s.y.t.t.r.r.s p .   2 D 4 : > D D     8 1.1.1.1.1.1.1.1.1.1.1.1.",
"1.1.1.1.1.1.1.1.1.1.1.    0.t.g.l.f.r.r.t.t.t.t.Z V %   d t.D   @ t.r.    8 1.1.1.1.1.1.1.1.1.1.1.1.",
"1.1.1.1.1.1.1.1.1.1.1.    0.t.p.a.y.G G 9.8.9.9.C V p 3 f 9.n * i t.t.    8 1.1.1.1.1.1.1.1.1.1.1.1.",
"E 1.1.1.1.1.1.1.1.1.1.    0.t.8.V l g g x k N C V V V B B B m g x t.r.    8 1.1.1.1.1.1.1.1.1.1.1.1.",
"X.] E ,.,.1.1.1.1.1.1.    0.t.8.B l g g g h F F C V V V V V M j c w.q.    8 1.1.1.1.1.1.1.1.1.1.1.1.",
"X.] W 1.,.1.1.1.1.1.1.    0.t.8.V l g g g x t.t.Z V V V V V V V V V V     8 1.1.1.1.1.1.1.1.1.1.1.1.",
"1.! &.E 1.1.1.1.2.1.2.    6.e.7.V z h k x N t.t.Z V b b b b b b b b b     8 1.1.1.1.1.1.1.1.1.1.1.1.",
"X.] W E 1.1.1.1.<.2.<.    v B B V V B F t.t.t.t.Z V %                     8 1.1.1.1.1.1.1.1.1.1.1.1.",
"&.} 1.1.1.1.1.1.2.<.2.    b B V V V V F t.t.t.t.C B &                     8 1.1.1.1.1.1.1.1.1.1.1.1.",
"1.1.1.1.1.1.1.1.<.<.<.K J @ @ a V V V V A A Z Z & @ 9 J H J K J P J J J J T 1.1.1.1.1.1.1.1.1.1.1.1.",
"1.1.1.1.1.1.1.1.<.2.<.<.1.O   p B B B B B B B B .   8 1.1.1.1.1.1.1.1.1.1.1.1.1.1.1.1.1.1.1.1.1.1.1.",
"1.1.1.1.1.1.1.1.3.<.<.>.1.8 8 1 & & & & & % % % 5 8 T 1.1.1.1.1.1.1.1.1.1.1.1.1.1.1.1.1.1.1.1.1.1.1.",
"1.1.1.1.1.1.1.1.1.1.1.1.1.1.1.:                 K 1.1.1.1.1.1.1.1.1.1.1.1.1.1.1.1.1.1.1.1.1.1.1.1.1.",
"1.1.1.1.1.1.1.1.1.1.1.1.1.1.,.7 , , , < < < < , T 2.1.1.1.1.1.1.1.1.1.1.1.1.1.1.1.1.1.1.1.1.1.1.1.1.",
"1.1.1.1.1.1.1.1.1.1.1.1.1.1.,.Y w y :.,.2.1.1.1.1.1.1.1.1.1.1.1.1.1.1.1.1.1.1.1.1.1.1.1.1.1.1.1.1.1.",
"1.1.1.1.1.1.1.1.1.1.1.1.1.,.Y J J J J T 2.1.1.1.1.1.1.1.1.1.1.1.1.1.1.1.1.1.1.1.1.1.1.1.1.1.1.1.1.1.",
"1.1.1.1.1.1.1.1.1.1.1.1.1.1.K 8 Y K 8 U 1.1.1.1.1.1.1.1.1.1.1.1.1.1.1.1.1.1.1.1.1.1.1.1.1.1.1.1.1.1.",
"1.1.1.1.1.1.1.1.1.1.1.1.1.1.,.,.u u :.,.1.1.1.1.1.1.1.1.1.1.1.1.1.1.1.1.1.1.1.1.2.4.1.1.1.1.1.1.1.1.",
"1.1.1.1.1.1.1.1.1.1.1.1.1.1.1.1.J H 1.1.1.1.1.1.1.1.1.1.1.1.1.1.1.1.1.1.1.1.1.1.E W 1.1.1.1.1.1.1.1.",
"1.1.1.1.1.1.1.1.1.1.1.1.1.1.1.1.1.1.1.1.1.1.1.1.1.1.1.1.1.1.1.1.1.1.1.1.1.4.4.1...&.1.1.1.1.1.1.1.1.",
"1.1.1.1.1.1.1.1.1.1.1.1.1.1.1.1.1.1.1.1.1.1.1.1.1.1.1.1.1.1.1.1.1.1.1.1.1...| 1...&.1.1.1.1.1.1.1.1.",
"1.1.1.1.1.1.1.1.1.1.1.1.1.1.1.1.1.1.1.1.1.1.1.1.1.1.1.1.1.1.1.1.1.1.1.1.1.@.O.1...&.1.1.1.1.1.1.1.1.",
"1.1.1.1.1.1.1.1.1.1.1.1.1.1.1.1.1.1.1.1.1.1.1.1.1.1.1.1.1.1.1.1.1.1.1.1.1.&.O.1.{ -.1.1.1.1.1.1.1.1.",
"1.1.1.1.1.1.1.1.1.1.1.1.1.1.1.1.1.1.1.1.1.1.1.1.1.1.1.1.1.1.1.1.1.1.1.1.1.@.O.1.5._ 1.1.1.1.1.1.1.1.",
"1.1.1.1.1.1.1.1.1.1.1.1.1.1.1.1.1.1.1.1.1.1.1.1.1.1.1.1.1.1.1.1.1.1.1.1.1.@.o.1.1.1.1.1.1.1.1.1.1.1.",
"1.1.1.1.1.1.1.1.1.1.1.1.1.1.1.1.1.1.1.1.1.4.4.1.1.1.1.1.1.1.1.1.1.1.1.1.1.4.4.1.1.1.1.1.1.1.1.1.1.1.",
"1.1.1.1.1.1.1.1.1.1.1.1.1.1.1.1.1.1.1.1.1.Q E 1.1.1.1.1.1.1.1.1.1.1.1.1.1.1.1.1.1.1.1.1.1.1.1.1.1.1.",
"1.1.1.1.1.1.1.1.1.1.1.1.1.1.1.1.1.1.1.4.4.&...4.2.1.1.1.1.1.1.1.1.1.1.1.1.1.1.1.1.1.1.1.1.1.1.1.1.1.",
"1.1.1.1.1.1.1.1.1.1.1.1.1.1.1.1.1.1.1.! | | ] ..4.1.1.1.1.1.1.1.1.1.1.1.1.1.1.1.1.1.1.1.1.1.1.1.1.1.",
"1.1.1.1.1.1.1.1.1.1.1.1.1.1.1.1.1.1.1.| &.4.! &.E 1.1.1.1.1.1.1.1.1.1.1.1.1.1.1.1.1.1.1.1.1.1.1.1.1."
};
