/* XPM */
static char *_4253beadfaf4e809554100830cee581FpqUPIh6Z38yfFs1[] = {
/* columns rows colors chars-per-pixel */
"50 50 108 2 ",
"   c #311C2A",
".  c #3C2226",
"X  c #382431",
"o  c #492A25",
"O  c #42292D",
"+  c #4D2F2A",
"@  c #45283C",
"#  c #553036",
"$  c #59353B",
"%  c #663931",
"&  c #683A31",
"*  c #613A39",
"=  c #6E433C",
"-  c #7A4735",
";  c #7B4836",
":  c #744539",
">  c #7D4C3B",
",  c #492D41",
"<  c #4E3346",
"1  c #5E3B41",
"2  c #854F38",
"3  c #8F563B",
"4  c #925D45",
"5  c #95726B",
"6  c #9D7569",
"7  c #8F7F7F",
"8  c #818B8E",
"9  c #988483",
"0  c #9D8A88",
"q  c #848D91",
"w  c #998A96",
"e  c #8A9195",
"r  c #8D9498",
"t  c #979B9E",
"y  c #AC9695",
"u  c #A39199",
"i  c #AD989B",
"p  c #B29C98",
"a  c #B6A19D",
"s  c #8E99B0",
"d  c #969FB0",
"f  c #AE9CA0",
"g  c #B09DA0",
"h  c #9CA3B1",
"j  c #A6A6AB",
"k  c #A7A9AA",
"l  c #AEADAD",
"z  c #A5AAB2",
"x  c #A9ACB1",
"c  c #AFB1B1",
"v  c #B2B2B2",
"b  c #C8AEA2",
"n  c #A6B6C4",
"m  c #A9BBCA",
"M  c #B9C6CD",
"N  c #B0C1D3",
"B  c #BFCCD2",
"V  c #B5C6DC",
"C  c #BDCEE7",
"Z  c #BECFEA",
"A  c #C5C5C5",
"S  c #CAC5CF",
"D  c #D7CBC9",
"F  c #DBD0CE",
"G  c #C3CED4",
"H  c #D7CED0",
"J  c #C4D0D9",
"K  c #CCD6DD",
"L  c #D6D6D6",
"P  c #D3D5DA",
"I  c #D1D9DE",
"U  c #D9D9D9",
"Y  c #CCD7E4",
"T  c #CDD8E5",
"R  c #C8D5ED",
"E  c #D5DDE3",
"W  c #D8DFE3",
"Q  c #D3DDE9",
"!  c #C6D6F5",
"~  c #C9D6F5",
"^  c #CAD9F2",
"/  c #CCDCFC",
"(  c #D8E0E3",
")  c #DDE4EB",
"_  c #D4E1FD",
"`  c #DAE5FD",
"'  c #DFE8FD",
"]  c #E4E9ED",
"[  c #EAEAEB",
"{  c #EBEEF1",
"}  c #E4EDFD",
"|  c #E9EEF9",
" . c #EEF1F4",
".. c #ECF2FE",
"X. c #F4F4F5",
"o. c #F9F6F5",
"O. c #F2F6FE",
"+. c #F7F8F9",
"@. c #F7F9FA",
"#. c #F5F8FF",
"$. c #F7FAFE",
"%. c #FBFAF9",
"&. c #FBFAFA",
"*. c #FCFAFA",
"=. c #FAFBFF",
"-. c #FBFCFF",
";. c #FDFDFD",
":. c white",
/* pixels */
":.:.:.:.:.:.:.:.:.:.:.:.:.:.:._ $._ :.:.:.:.:.:.:.:.] n G &.:.:.:.:.:.:.:.:.:.:.:.:.:.O.' } ..:.:.:.",
":.:.:.:.:.:.:.:.:.:.:.:.:.:.-._ $.' :.:.:.:.:.:.:.X.N Z C E :.:.:.:.:.:.:.:.:.:.:.:.:.O.' ..O.:.:.:.",
"O.:.:.:.:.:.:.:.:.:.:.:.:.:.:._ $.=.:.:.:.:.:.:.:...^ Y _ } -.:.:.:.:.:.:.:.:.:.:.:.:.O.' :.:.:.:.:.",
"} :.:.:.:.:.:.:.:.:.:.:.:.:.:.} =.:.:.:.:.:.:.:.:./ _ :.O...:.:.:.:.:.:.:.:.:.:.:.:.:.=.| :.:.:.:.:.",
"} } ..:.:.:.:.:.:.:.:.:.:.:.:.:.:.:.:.:.:.:.:.:.:./ ..:.:.:.:.:.:.:.:.:.:.:.:.:.:.:.:.:.:.:.:.:.:.:.",
"....O.:.:.:.:.:.:.:.:.:.:.:.:.:.:.:.:.:.:.:.:.:.:...:.:.:.:.:.:.:.:.:.:.:.:.:.:.:.:.:.:.:.:.:.:.:.:.",
":.:.:.:.:.:.:.:.:.:.:.:.:.:.:.:.:.:.:.:.:.:.:.:.:.:.:.:.:.:.:.:.:.:.:.:.:.:.:.:.:.:.:.:.:.:.:.:.:.:.",
":.:.:.:.:.:.:.:.:.:.:.:.:.:.:.:.:.:.:.:.:.:.:.:.:.:.:.:.:.I ] :.:.:.:.:.:.:.:.:.:.:.:.:.:.:.:.:.:.:.",
":.:.:.:.:.:.:.:.:.:.:.:.:.:.:.:.:.:.:.:.:.:.:.:.:.:.:.:.:.:.:.:.:.:.:.:.:.:.:.:.:.:.:.:.:.:.:.:.:.:.",
":.:.:.:.:.:.:.:.:.:.:.:.:.O.} :.:.:.:.:.:.:.O.} :.:.:.:.:.:.:.:.:.:.:.:.:.:.:.:.:.:.:.:.:.:.:.:.:.:.",
":.:.:.:.:.:.:.:.:.:.:.:.:.} / :.:.:.-.:.:.:.} / :.:.:.:.:.:.:.:.:.:.:.:.:.:.:.:.:.:.:.:.:.:.:.:.:.:.",
":.:.:.:.:.:.:.:.-./ / / / / / / / / / / / / / / / } :.:.:.:.:.:.:./ } :.:.:.:.:.:.:.:.:.:.:.:.:.:.:.",
":.:.:.:.:.:.:...} / / ~ i i i i i i i i i i i i f S } } O.:.:.:.:./ _ } b H } :.:.:.:.:.:.:.:.:.:.:.",
":.:.:.:.:.:.-.} / / ~ ! 3 3 3 3 3 3 3 3 3 3 3 3 4 f / / } :.:.:.=./ ~ ~ 4 g / :.:.:.:.:.:.:.:.:.:.:.",
":.:.:.:.&.o.3 3 3 3 3 3 3 3 3 3 3 3 3 3 3 3 3 3 3 3 3 4 f / / / / ! y 3 3 > = :.:.:.:.:.:.:.:.:.:.:.",
":.:.:.:.&.o.3 2 - - 2 3 - 2 3 ; 2 3 3 3 3 3 2 - ; 2 3 > 5 i i u w y 6 3 3 > = :.:.:.:.:.:.:.:.:.:.:.",
":.:.:.:.%.o.3 - % % - 3 & - 3 & ; 3 3 3 3 3 - % % - 3 & - 3 3 - % 3 3 3 3 > = :.:.:.:.:.:.| _ _ _ $.",
":.:.:.:.%.o.3 - % 3 3 3 % - 3 % % & 3 3 3 3 - % & - 3 & - 3 % % % 3 ; & 3 > = :.:.:.:.:.:.:.-.-.$.=.",
":.:.:.:.%.o.3 2 ; 3 3 3 - 2 3 ; ; ; 3 3 3 3 2 ; - 2 3 ; 2 3 - - ; 3 2 ; 3 > = :.:.:.:.:.:.:.:.} ` ` ",
"] ..O.:.%.o.3 3 3 3 3 3 3 3 3 3 3 3 3 3 3 3 3 3 3 3 3 3 3 3 3 3 3 3 3 3 3 > = -.:.:.:.:.:.:.:.:.:.:.",
"V _ ..:.%.o.3 3 3 3 3 3 3 3 3 3 3 3 3 3 3 3 3 3 3 3 3 3 3 3 3 3 3 3 3 3 3 > = :.:.:.:.:.:.:.:.:.:.:.",
"! J :.:.&.o.3 3 3 ; 2 3 - ; ; 3 3 3 3 3 3 3 2 ; 3 2 - ; 2 3 3 3 3 - - - 3 > = :.:.:.:.:.:.:.:.:.:.:.",
"N C ' ..&.o.3 3 3 % - 3 % & & 3 3 3 3 3 3 3 - & 3 - % & ; 3 3 3 3 % % % 3 > = :.:.:.:.:.:.:.:.:.:.:.",
"] } / _ | o.3 - % % ; 3 3 ; & 3 ; & & ; 3 3 - & 3 - % & - 3 & - 3 % - 3 3 > = :.:.:.:.:.:.:.:.:.:.:.",
":.:.$.O.&.o.3 2 ; ; 2 3 3 2 ; 3 2 - - 3 3 3 2 ; 3 2 - - 2 3 ; 2 3 ; 2 3 3 > = :.:.:.:.:.:.:.:.:.:.:.",
":.:.:.:.&.o.3 3 3 3 3 3 3 3 3 3 3 3 3 3 3 3 3 3 3 3 3 3 3 3 3 3 3 3 3 3 3 ; = :.:.:.:.:.$.&.:.:.:.:.",
":.:.:.:.%.o.3 3 3 3 3 3 3 3 3 3 3 3 3 3 3 3 3 3 3 3 3 3 3 3 3 3 3 3 3 3 3 > = :.:.:.:.$._ / } ..+.:.",
":.:.:.:.%.o.- - ; 3 3 3 3 3 3 3 3 3 3 3 3 3 3 3 3 3 3 3 3 3 3 3 3 3 3 3 ; : = :.:.:.:.:.O.' R V K &.",
":.:.:.:.%.X.% & & 3 3 3 3 3 3 3 3 3 3 3 3 3 3 3 3 3 3 3 3 3 3 3 3 3 3 3 % & = :.:.:.:.:.:.=.Y Z m X.",
":.:.:.:.:.:.o.y % % % % % % % % % % % % % % % % % % % % & & % % % % % % = a :.:.E &.:.:.:.O._ C J +.",
":.:.:.:.:.:.&.D p p p p p p p p p y 7 0 9 # $ $ p p p p p p p p p p p p a F :.I E G :.:.:.$...)  .:.",
"` :.:.:.:.:.:.:.:.:.:.:.:.:.:.:.:.&.W B [ @ , < :.:.:.:.:.:.:.:.:.:.:.:.:.:.:.{ G E :.:.:.:.-.:.-.:.",
"=.:.:.:.:.:.:.:.:.:.:.:.:.:.:.:.:.:.;.X.X.% $ < :.:.:.:.:.:.:.:.` :.:.:.:.:.:.:. .:.:.:.:.:.:.:.:.:.",
"_ _ } :.:.:.:.:.:.:.:.:.:.:.:.:.:.:.:.%.X.% * $ :.:.:.:.:.:.} O._ -.:.:.:.:.:.:.:.:.:.:.:.:.:.:.:.:.",
":.=.:.:.:.:.:.:.:.:.:.:.:.:.:.:.:.:.:.&.X.% & : :.:.:.:.:.:.' O._ :.:.:.:.:.:.:.:.:.:.:.:.:.:.:.:.:.",
":.:.:.:.:.:.:.:.:.:.:.:.:.-.&.v v v v l k o o + v v v v v v z P :.:.:.:.:.:.:.:.:.:.:.:.:.:.:.:.:.:.",
":.:.:.:.:.:.:.:.:.:.[ U L L L v v v v l l o o + v v v v v v v A P U U U :.:.:.:.:.:.:.:.:.:.:.:.:.:.",
":.:.:.:.:.:.:.:.:.%.L v v v v v v v v l j o o + v v v v v v v v v v v v :.:.:.:.:.:.:.:.:.:.:.:.:.:.",
":.:.:.:.:.:.&.L v v v c v v v v v v v l j o o + v v v v v v v c v v v v v v v :.:.:.:.:.:.:.:.:.:.:.",
":.:.:.:.:.&.L A v v v v v v v v v v v c k . O O v v v v c v v v v v v v v v v :.:.:.:.:.:.:.:.:.:.:.",
":.:.:.:.:.%.v c x v v v v v v v v k e l k     X v v v v v v v v v v v v v v v :.:.:.:.:.:.:.:.:.:.:.",
":.:.:.:.%.;.v c v v v v v v v v v 8 t r v v v v v v v v v v v v v v v v v v v :.:.:.:.:.:.:.:.:.:.:.",
":.:.:.:.:.:.L A v v v v v v v v v k q l v v v v v v v v v v v v v v v v v S U :.:.:.:.:.:.:.:.:.:.:.",
":.:.:.:.:.:.&.L v v v v v v v v v v c v v v v v c v v v v v v v v v v v v ( :.:.:.:.:.:.:.:.:.:.:.:.",
":.:.:.:.:.:.:.:.;.;.L c v v v v v v v v v v x c v v v c v v v v v v v v :.:.:.:.:.:.:.:.:.$.......-.",
":.:.:.:.:.:.:.:.:.;.[ U L L L v v v v v v z d x v v v v v v v A U U U U :.:.:.:.:.:.:.:.:.O.} } } -.",
":.:.:.O...:.:.:.:.:.:.:.:.;.&.v v v x z v h s k v v v v v v v U } :.:.:.:.:.:.:.:.:.:.:.:.:.:...' ' ",
":.:.:...} :.:.:.:.:.:.:.:.:.:.:.:.:.O._ Q R ` =.:.:.:.:.:.:.:.:._ :.:.:.:.:.:.:.:.:.:.:.:.:.:.O.....",
"B $.| ..} :.:.:.:.:.:.:.:.:.:.:.:.:.{ V ! V ) :.:.:.:.:.:.:...$._ :.:.:.:.:.:.:.:.:.:.:.:.:.:.E { :.",
"{ O.` ..} :.:.:.:.:.:.:.:.:.:.:.:.:.:.E n T X.:.:.:.:.:.:.:.' O._ :.:.-.:.:.:.:.:.:.:.:.:.:.:.+.M X."
};
