/* XPM */
static char *result[] = {
/* columns rows colors chars-per-pixel */
"50 50 111 2 ",
"   c #141B1B",
".  c #151B1B",
"X  c #151C1B",
"o  c #383128",
"O  c #313132",
"+  c #323A34",
"@  c #55372D",
"#  c #513F3C",
"$  c #7A2A33",
"%  c #314438",
"&  c #30563E",
"*  c #365A3D",
"=  c #3F603A",
"-  c #5B4834",
";  c #554039",
":  c #476538",
">  c #3B3643",
",  c #403A45",
"<  c #443F46",
"1  c #3F7450",
"2  c #494348",
"3  c #4E484A",
"4  c #4F484A",
"5  c #50594D",
"6  c #604B47",
"7  c #724D45",
"8  c #72444A",
"9  c #407650",
"0  c #417A52",
"q  c #437C54",
"w  c #437D54",
"e  c #447F56",
"r  c #DF394C",
"t  c #E0394C",
"y  c #E03A4C",
"u  c #97404B",
"i  c #955340",
"p  c #965340",
"a  c #B15449",
"s  c #816F46",
"d  c #826F46",
"f  c #9C6447",
"g  c #91755F",
"h  c #A06C4A",
"j  c #B66F45",
"k  c #A2754E",
"l  c #A3754E",
"z  c #A47252",
"x  c #E87E5E",
"c  c #458257",
"v  c #458258",
"b  c #468358",
"n  c #468459",
"m  c #47855A",
"M  c #48895C",
"N  c #4A8B5D",
"B  c #498B5E",
"V  c #4A8B5E",
"C  c #498C5E",
"Z  c #57995F",
"A  c #58995F",
"S  c #5A9B5E",
"D  c #5C9C5D",
"F  c #5E9D5D",
"G  c #5F9E5D",
"H  c #619F5C",
"J  c #63A15B",
"K  c #66A35A",
"L  c #62A05C",
"P  c #63A15C",
"I  c #69A559",
"U  c #68A45A",
"Y  c #6CA758",
"T  c #6CA759",
"R  c #75AD56",
"E  c #70A858",
"W  c #7AB055",
"Q  c #4B8E60",
"!  c #4B8F60",
"~  c #4C9060",
"^  c #4C9061",
"/  c #4C9161",
"(  c #4E9261",
")  c #4E9361",
"_  c #4F9361",
"`  c #4D9162",
"'  c #4D9262",
"]  c #4E9262",
"[  c #4E9362",
"{  c #509361",
"}  c #509461",
"|  c #519461",
" . c #519561",
".. c #529560",
"X. c #529461",
"o. c #529561",
"O. c #579860",
"+. c #BA9A5B",
"@. c #8C967F",
"#. c #8D977F",
"$. c #B19164",
"%. c #B29164",
"&. c #B89F6E",
"*. c #BFAD78",
"=. c #D68A4A",
"-. c #D78B4A",
";. c #CD8B51",
":. c #C38B58",
">. c #E4A75D",
",. c #F0C371",
"<. c #F1C471",
/* pixels */
"' ' ' ' ' ' ' ' ' ' ' ' ' ' ' ' ' ' ' ' ' ' ' ' ' ' ' ' ' ' ' ' ' ' ' ^ ! ` ' ' ' ' ' ' ' ' ' ' ' ' ",
"' ' ' ' ' ' ' ' ' ' ' ' ' ' ' ' ' ' ' ' ' ' ' ' ' ' ' ' ' ' ' ' ' ' / V m ! / ' ' ' ' ' ' ' ' ' ' ' ",
"' ' ' ' ' ' ' ' ' ' ' ' ' ' ' ' ' ' ' ' ' ' ' ' ' ' ' ' ' ' ' ' ' ' ! v 9 C ! ' ' ' ' ' ' ' ' ' ' ' ",
"' ' ' ' ' ' ' ' ' ' ' ' ' ' ' ' ' ' ' ' ' ' ' ' ' ' ' ' ' ' ' ' ' ^ q v M e c ' ' ' ' ' ' ' ' ' ' ' ",
"' ' ' ' ' ' ' ' ' ' ' ' ' ' ' ' ' ' ' ' ' ' ' ' ' ' ' ' ' ' ' ' ' Q 0 b B w e ' ' ' ' ' ' ' ' ' ' ' ",
"' ' ' ' ' ' ' ' ' ' ' ' ' ' ' ' ' ' ' ' ' ' ' ' ' ' ' ' ' ' ' ' ' ' ' n 9 Q ' ' ' ' ' ' ' ' ' ' ' ' ",
"' ' ' ' ' ' ' ' ' ' ' ' ' ' ' ' ' ' ' ' ' ' ' ' ' ' ' ' ' ' ' ' ' ' ' N n ~ ' ' ' ' ' ' ' ' ' ' ' ' ",
"' ' ' ' ' ' ' ' ' ' ' ' ' ' ' ' ' ' ' ' ' ' ' ' ' ' ' ' ' ' ' ' ' ' ' ' ' ' ' ' ' ' ' ' ' ' ' ' ' ' ",
"' ' ' ' ' ' ' ' ' ' ' ' ' ' ' ' ' ' ' ' ' ' ' ' ' ' ' { o.' ' ' ' ' ' ' ' ' ' ' ' ' ' ' ' ' ' ' ' ' ",
"' ' ' ' ' ' ' ' ' ' ' ' ' ' ' ' ' ' ' ' ' ' ' ' ' ' ' S H ( ] ' ' ' ' ' ' ' ' ' ' ' ' ' ' ' ' ' ' ' ",
"' ' ' ' ' ' ' ' ' ' ' ' ' ' ' ' ' ' ' ' ' ' ' ' ' ' ' I W X.              & ' ' ' ' ' ' ' ' ' ' ' ' ",
"' ' ' ' ' ' ' ' ' ) | ] ' ' ' ' ' ' ' ' ' ' ' ' ' ' ' I W E               & ' ' ' ' ' ' ' ' ' ' ' ' ",
"' ' ' ' ' ' ' ' '  .O.[ ' ' ' & & & & & & & & & & & & = : : $ $ $ $ $ $ $ ; & & ' ' ' ' ' ' ' ' ' ' ",
"' ' ' ' ' ' ' ' ' F W A ' ' '                             . t t t t t t t $     ' ' ' ' ' ' ' ' ' ' ",
"' ' ' ' ' ' ' ' ' F W A ' _ [                             . t t t t t t t $     ' ' ' ' ' ' ' ' ' ' ",
"' ' ' ' ' ' ' ' ' F W A &     3 3 3 3 3 3 3 3 3 3 3 3 u t y <.<.<.<.<.<.<.x t r     & ' ' ' ' ' ' ' ",
"' ' ' ' ' ' ' ' ' F W A &     3 3 3 3 3 3 3 3 3 3 3 3 u t y <.<.<.<.<.<.<.x t r     & ' ' ' ' ' ' ' ",
"' ' ' ' ' ' ' ' ' F : * % O O 3 3 3 3 3 3 3 3 3 3 3 3 8 u u x x x x x x x a $ $ & & 1 ' ' ' ' ' ' ' ",
"' ' ' ' ' ' ' ' ' D     O 3 3 3 3 3 3 3 3 3 3 3 3 3 3 3 3 4 t t t t t t t $     ' ' ' ' ' ' ' ' ' ' ",
"' ' ' ' ' ' ' ' ' ..    O 3 3 3 3 3 3 3 3 3 3 3 3 3 3 3 3 4 t t t t t t t $     ' ' ' ' ' ' ' ' ' ' ",
"' ' ' ' ' ' ' &     3 3 3 3 3 3 3 3 3 3 3 3 3 3 3 3 3 3 3 3 3 3 3 3 3 3 3 3 3 3     & ' ' ' ' ' ' ' ",
"' ' ' ' ' ' ' &     3 3 3 3 3 3 3 3 3 3 3 3 3 3 3 3 3 3 3 3 3 3 3 3 3 3 3 3 3 3     & ' ' ' ' ' ' ' ",
"( ] ' ' ' ' ' &     3 3 3 3 3 < < 2 3 3 < < 2 3 3 3 3 2 < < 3 3 2 < < 3 3 3 3 3     & ' ' ' ' ' ' ' ",
"o.} ' ' ' ' ' &     3 3 3 3 3 > > < 3 3 > > < 3 3 3 3 < > > 3 3 < > > 3 3 3 3 3     & ' ' ' ' ' ' ' ",
"T P | ] ' ' ' &     3 3 3 3 3 > > < 3 3 > > < 3 3 3 3 < > > 3 3 < > > 3 3 3 3 3     & ' ' ' ' ' ' ' ",
"Y J S } ' ' ' &     3 3 3 3 3 > > < 3 3 > > < 3 3 3 3 < > > 3 3 < > > 3 3 3 3 3     & ' ' ' ' ' ' ' ",
"o.G R Z ' ' ' &     3 3 3 3 3 > > < 3 3 > > < 3 3 3 3 < > > 3 3 < > > 3 3 3 3 3     & ' ' ' ' ' ' ' ",
"U L D ..' ' ' &     3 3 6 7 7 > > , < < > > , < < < < , > > < < , > > 7 7 6 3 3     & ' ' ' ' ' ' ' ",
"R K ' ' ' ' ' &     3 3 7 p p > > > > > > > > > > > > > > > > > > > > p p 7 3 3     & ' ' ' ' ' ' ' ",
"' ' ' ' ' ' ' &     3 3 7 p p > > > > > > > > > > > > > > > > > > > > p p 7 3 3     & ' ' ' ' ' ' ' ",
"' ' ' ' ' ' ' &     3 3 7 p p           l l l l l l l l l k         . p p 7 3 3     & ' ' ' ' ' ' ' ",
"' ' ' ' ' ' ' &     3 3 7 p p           l l l l l l l l l k         . p p 7 3 3     & ' ' ' ' ' ' ' ",
"' ' ' ' ' ' ' &     3 3 7 p p - - o     l l l l l l l l l k     o - - p p 7 3 3     & ' ' ' ' ' ' ' ",
"' ' ' ' ' ' ' &     3 3 7 p p l l -     l l l l l l l l l k     - l l p p 7 3 3     & ' ' ' ' ' ' ' ",
"' ' ' ' ' ' ' &     3 3 7 p p l l - . . l l l l l l l l l k     - l l p p 7 3 3     & ' ' ' ' ' ' ' ",
"' ' ' ' '     O 3 3 3 3 7 p p l l l l l l l f p p p p f l l l l l l l p p 7 3 3 3 3 O     ' ' ' ' ' ",
"' ' ' ' '     O 3 3 3 3 7 p p l l l l l l l f p p p p f l l l l l l l p p 7 3 3 3 3 O     ' ' ' ' ' ",
"' ' ' ' '     O 3 3 3 3 # @ @ f f h l l l l h f f f f h l l l l h f f @ @ # 3 3 3 3 O     ' ' ' ' ' ",
"' ' ' ' '     O 3 3 3 3 O     p p f l l l l l l l l l l l l l l f p i     O 3 3 3 3 O     ' ' ' ' ' ",
"' ' ' ' '     O 3 3 3 3 O X X p p f l l l l l l l l l l l l l l f p i     O 3 3 3 3 O     ' ' ' ' ' ",
"' ' ' ' '     O 3 3     d <.<.<.<.:.p p p p p p p p p p p p p p :.<.<.<.<.s     3 3 O     ' ' ' ' ' ",
"' ' ' ' '     O 3 3     d <.<.<.<.:.p p p p p p p p p p p p p p :.<.<.<.<.s     3 3 O     ' ' ' ' ' ",
"' ' ' ' ' & & % O O d d +.<.<.>.>.;.j j j j z g g g g z j j j j ;.>.>.<.<.+.d d O O % & & ' ' ' ' ' ",
"' ' ' ' ' ' ' &     <.<.<.<.<.-.-.-.-.-.-.-.%.#.#.#.#.%.-.-.-.-.-.-.-.<.<.<.<.,.    & ' ' ' ' ' ' ' ",
"' ' ' ' ' ' ' &     <.<.<.<.<.-.-.-.-.-.=.=.$.@.#.#.#.%.-.-.-.-.-.-.-.<.<.<.<.,.    & ' ' ' ' ' ' ' ",
"' ' ' ' ' ' ' &     <.<.<.<.<.<.<.>.-.-.                  . -.-.>.<.<.<.<.<.<.,.    & ' ' ' ' ' ' ' ",
"' ' ' ' ' ' ' &     <.<.<.<.<.<.<.>.-.-.                  . -.-.>.<.<.<.<.<.<.,.    & ' ' ' ' ' ' ' ",
"' ' ' ' ' ' ' 1 & & s s s s s *.*.&.%.%.5 5 +         + 5 5 %.%.&.*.*.d d d d d & & 1 ' ' ' ' ' ' ' ",
"' ' ' ' ' ' ' ' ' '           #.#.#.#.#.#.#.5         5 #.#.#.#.#.#.@.          ' ' ' ' ' ' ' ' ' ' ",
"' ' ' ' ' ' ' ' ' '           #.#.#.#.#.#.#.5         5 #.#.#.#.#.#.@.          ' ' ' ' ' ' ' ' ' ' "
};
