/* XPM */
static char *_166ad1841da4b84a85890f81d2c0ea0gDHpBCiaZkudt7ez[] = {
/* columns rows colors chars-per-pixel */
"50 50 201 2 ",
"   c #141B1B",
".  c #191E20",
"X  c #2D1E21",
"o  c #1E2225",
"O  c #1E2C23",
"+  c #1B2A24",
"@  c #262621",
"#  c #222627",
"$  c #22252A",
"%  c #352924",
"&  c #27302F",
"*  c #22392D",
"=  c #283D2B",
"-  c #293E2B",
";  c #383128",
":  c #2C2C34",
">  c #2F2E35",
",  c #312F39",
"<  c #313B35",
"1  c #323A34",
"2  c #3E3F32",
"3  c #34313B",
"4  c #36323E",
"5  c #383738",
"6  c #38363B",
"7  c #38353D",
"8  c #472227",
"9  c #493D2E",
"0  c #403D3E",
"q  c #60262D",
"w  c #7A2A33",
"e  c #673536",
"r  c #6B3735",
"t  c #653E32",
"y  c #2E402A",
"u  c #294735",
"i  c #2C4938",
"p  c #2F4C3B",
"a  c #324E3B",
"s  c #3C4838",
"d  c #3A4E3A",
"f  c #3F5737",
"g  c #34503A",
"h  c #34503E",
"j  c #30563E",
"k  c #31563E",
"l  c #3A513D",
"z  c #3B523C",
"x  c #3E5F3A",
"c  c #4B4530",
"v  c #4C4530",
"b  c #434B3B",
"n  c #524231",
"m  c #5B4834",
"M  c #5A4F36",
"N  c #674234",
"B  c #604B39",
"V  c #6D533B",
"C  c #675A3B",
"Z  c #785A37",
"A  c #476538",
"S  c #54783F",
"D  c #3B3643",
"F  c #3D3940",
"G  c #3D3844",
"H  c #423E42",
"J  c #403A45",
"K  c #423C45",
"L  c #443E46",
"P  c #3A4543",
"I  c #355E42",
"U  c #3C5C49",
"Y  c #376547",
"T  c #3A6746",
"R  c #3E6946",
"E  c #3F7450",
"W  c #3F7550",
"Q  c #474244",
"!  c #474147",
"~  c #4A4045",
"^  c #494348",
"/  c #4A4449",
"(  c #4B4549",
")  c #4E484A",
"_  c #554646",
"`  c #5D4142",
"'  c #5A4A47",
"]  c #5D5E4B",
"[  c #60464A",
"{  c #72444B",
"}  c #695449",
"|  c #6F5548",
" . c #705240",
".. c #7D5943",
"X. c #7B5C43",
"o. c #7F5F41",
"O. c #416B4A",
"+. c #5D614E",
"@. c #42774F",
"#. c #43774F",
"$. c #477A4E",
"%. c #4A7C4D",
"&. c #407650",
"*. c #417A52",
"=. c #437D54",
"-. c #427C55",
";. c #447F56",
":. c #65675D",
">. c #536860",
",. c #5F6E6B",
"<. c #636E61",
"1. c #626B64",
"2. c #6F7866",
"3. c #6E7E78",
"4. c #865A37",
"5. c #82553E",
"6. c #A56F3E",
"7. c #A66F3E",
"8. c #AD3140",
"9. c #BC3D4C",
"0. c #E0394C",
"q. c #85424B",
"w. c #854B4D",
"e. c #965340",
"r. c #975741",
"t. c #995C43",
"y. c #AB5050",
"u. c #AD5952",
"i. c #896046",
"p. c #886444",
"a. c #89654B",
"s. c #966D4C",
"d. c #8A7352",
"f. c #817959",
"g. c #927655",
"h. c #A06840",
"j. c #A2754E",
"k. c #A3754E",
"l. c #BE7D44",
"z. c #BA764A",
"x. c #A57F57",
"c. c #E45C55",
"v. c #D46F5A",
"b. c #E87E5E",
"n. c #5D8947",
"m. c #458257",
"M. c #468259",
"N. c #468459",
"B. c #47855A",
"V. c #498A5D",
"C. c #498C5E",
"Z. c #548D55",
"A. c #57995F",
"S. c #58995F",
"D. c #5A9B5E",
"F. c #5C9C5D",
"G. c #5F9E5D",
"H. c #6B9C4E",
"J. c #619F5C",
"K. c #64A25B",
"L. c #62A05C",
"P. c #68A45A",
"I. c #6CA759",
"U. c #75AD56",
"Y. c #70A958",
"T. c #7AB055",
"R. c #4B8F60",
"E. c #4C9060",
"W. c #4C9161",
"Q. c #4E9361",
"!. c #4D9262",
"~. c #4E9362",
"^. c #509361",
"/. c #519461",
"(. c #70817C",
"). c #9E8450",
"_. c #B88859",
"`. c #BA9A5C",
"'. c #8D977F",
"]. c #9F9978",
"[. c #B29164",
"{. c #AA9B7A",
"}. c #D78B4A",
"|. c #DA924F",
" X c #DE9954",
".X c #C69F74",
"XX c #D5AF66",
"oX c #EDA168",
"OX c #EAB667",
"+X c #EDBD6C",
"@X c #F1C471",
"#X c #728380",
"$X c #859894",
"%X c #95A28E",
"&X c #A1A58F",
"*X c #B6B49F",
"=X c #A3B7AD",
"-X c #B0BBAD",
";X c #A7BCB4",
":X c #C3B380",
">X c #ABC2BC",
/* pixels */
"!.!.!.!.!.!.!.!.!.!.!.!.!.!.!.!.!.!.!.!.!.!.!.!.!.!.!.!.!.!.!.!.!.!.!.!.C.!.!.!.!.!.!.!.!.!.!.!.!.!.",
"!.!.!.!.!.!.!.!.!.!.!.!.!.!.!.!.!.!.!.!.!.!.!.!.!.!.!.!.!.!.!.!.!.!.!.V.N.W.C.!.!.!.!.!.!.!.!.!.!.!.",
"!.!.!.!.!.!.!.!.!.!.!.!.!.!.!.!.!.!.!.!.!.!.!.!.!.!.!.!.!.!.!.!.!.!.W.M.E V.!.!.!.!.!.!.!.!.!.!.!.!.",
"!.!.!.!.!.!.!.!.!.!.!.!.!.!.!.!.!.!.!.!.!.!.!.!.!.!.!.!.!.!.!.!.~.C.=.M.C.m.m.!.!.!.!.!.!.!.!.!.!.!.",
"!.!.!.!.!.!.!.!.!.!.!.!.!.!.!.!.!.!.!.!.!.!.!.!.!.!.!.!.!.!.!.!.!.C.*.N.C.=.m.!.!.!.!.!.!.!.!.!.!.!.",
"!.!.!.!.!.!.!.!.!.!.!.!.!.!.!.!.!.!.!.!.!.!.!.!.!.!.!.!.!.!.!.!.!.!.!.N.E C.!.!.!.!.!.!.!.!.!.!.!.!.",
"!.!.!.!.!.!.!.!.!.!.!.!.!.!.!.!.!.!.!.!.!.!.!.!.!.!.!.!.!.!.!.!.!.!.!.C.N.~.!.!.!.!.!.!.!.!.!.!.!.!.",
"!.!.!.!.!.!.!.!.!.!.!.!.!.!.!.!.!.!.!.!.!.!.!.!.!.!.!.!.!.!.!.!.!.!.!.W.~.W.!.!.!.!.!.!.!.!.!.!.!.!.",
"!.!.!.!.!.!.!.!.!.!.!.!.!.!.!.!.!.!.!.!.!.!.!.!.!.!.!././.!.!.!.!.!.!.!.!.!.!.!.!.!.!.!.!.!.!.!.!.!.",
"!.!.!.!.!.!.!.!.!.!.!.!.!.!.!.!.!.!.!.!.!.!.!.!.!.!.!.S.K.!.!.!.!.W.!.!.!.!.!.!.!.!.!.!.!.!.!.!.!.!.",
"!.!.!.!.!.!.!.!.!.!.!.!.!.!.!.!.!.!.M.E E           * = S /./.!.W.W.W.Q.!.!.!.!.!.!.!.!.!.!.!.!.!.!.",
"!.!.!.!.!.!.!.!.!.!./.!.!.!.!.!.!.!.N.E E           * = S Y.K.!.W.W.A.Q.!.!.!.!.!.!.!.!.!.!.!.!.!.!.",
"!.!.!.!.!.!.!.!.!./.A.!.!.V.M.M.k k l b b w w w w w e r M A x k k Y R T !.!.!.!.!.!.!.!.!.!.!.!.!.!.",
"!.!.!.!.!.!.!.!.!.G.T.S.!.M.E E     X 8 8 0.0.0.0.0.8.8.q         O y = !.!.!.!.!.!.!.!.!.!.!.!.!.!.",
"!.!.!.!.!.!.!.!.!.G.T.A.!.M.@.E     X 8 8 0.0.0.0.0.8.8.q         # y = !.!.!.!.!.!.!.!.!.!.!.!.!.!.",
"!.!.!.!.!.!.!.!.!.G.T.$.&.a # # { { y.c.c.@X@X@X@X@XoXoXv.9.9.) ) / 6 F * * Y !.!.!.!.!.!.!.!.!.!.!.",
"!.!.!.!.!.!.!.!.!.G.T.$.@.f # $ { { y.c.c.@X@X@X@X@XoXoXv.9.9.) ) ! b 0 * * Y ~.!.!.!.!.!.!.!.!.!.!.",
"!.!.!.!.!.!.!.!.V.Z.H.g a s 5 5 ' ' w.y.y.b.b.b.b.b.v.v.u.q.q.) ) ( L L 1 1 h Y T !.!.!.!.!.!.!.!.!.",
"!.!.!.!.!.!.!.!.M.%.n.# # 5 ) ) ) ) [ { { 0.0.0.0.0.9.9.q.) ) ) ) ) ) ) 0 0 < * * !.!.!.!.!.!.!.!.!.",
"!.!.!.!.!.!.!.!.N.@.%.# # 5 ) ) ) ) [ { { 0.0.0.0.0.9.9.q.) ) ) ) ) ) ) 0 0 < * * !.!.!.!.!.!.!.!.!.",
"!.!.!.!.!.!.E E a # # ) ) ) ) ) ) ) ) ) ) ) ) ) ) ) ) ) ) ) ) ) ) ) ) ) ) ) ! F 2 * * Y !.!.!.!.!.!.",
"!.!.!.!.!.!.E E i $ # ) ) ) ) ) ) ) ) ) ) ) ) ) ) ) ) ) ) ) ) ) ) / ) ) ) ( ! b H * * Y !.!.!.!.!.!.",
"!.~.!.!.!.!.E E p # # ~ ! / / / L L ( ( ( L L ( ) ) ( ( ( L L ( ( / ~ ^ ( ( D 5 7 * * Y !.!.!.!.!.!.",
"/.~.!.!.~.~.E W i o o G J L / ^ L J L ( ( J L ^ ) ) ^ ( L J J ( / ! G F ^ ^ D , , * * Y !.!.!.!.!.!.",
"I.K./.~.!.!.*.@.p o o J J L ^ ^ J J J ~ ( J J L ) ) ^ ^ J J J ( ! D G G / / 7 , , * * Y !.!.!.!.!.!.",
"I.K.F./.!.!.E E i o o G J L ^ ^ J J L _ L J L L ^ ^ D D D D D D D D G G D G D , , * * Y !.!.!.!.!.!.",
"/.G.U./.!.!.E E a o o G J L / / J J L L ( J L L ^ ^ D D D D D D D D D D D D D , , * * Y !.!.!.!.!.!.",
"P.K.F./.!.!.E E i . . > > 7 K K D J J L L L L ' } } D D D D D D D D D D D D 3 3 , * * Y !.!.!.!.!.!.",
"U.K.!.!.!.!.E E u     o o : D D D D D D D _ _ | a.a.D D D D D D D D D D D D D , , * * Y !.!.!.!.!.!.",
"!.!.!.!.!.!.E E u     o o : D D D D D D D _ _ | a.a.D D D D D D D D D D D D , , , * * Y !.!.!.!.!.!.",
"!.!.!.!.!.!.!.!.M.E E ; ; V k.k.Z X.9     ; ; B a.a.D D D D D D D D D D D D D : , * * Y !.!.!.!.!.!.",
"!.!.!.!.!.!.!.!.M.E E ; ; V k.k.p.i.9     ; ; B a.a.D D D D D D D D D D D D D , , * * Y !.!.!.!.!.!.",
"!.!.!.!.!.!.M.M.O.l I V V p.k.k.Z p.v @ @ V V X.a.a.D D D D D D D D D D D D , , , * * Y W.!.!.!.!.!.",
"!.!.!.!.!.!.E E l ; 8 k.k.k.k.k.X.p.M ; ; j.k.s.a.a.D D D D D D D D D D D D D , , * * Y W.!.!.!.!.!.",
"!.!.!.!.!.!.E E l ; ; k.k.k.k.k.4.Z m % ; k.k.s.a.a.D D D D D D D D D D D D D , , * * Y !.!.!.!.!.!.",
"!.!.!.!.!.!.E E d % % 4.4.r.t.t.k.k.k.k.j.j.k.s.a.a.D D D D D D D D D D D D D D D , , X     !.!.!.!.",
"!.!.!.!.!.!.@.E d % % e.e.e.t.t.k.k.k.k.k.k.k.s.a.a.D D D D D D D D D D D D D D D D D $     !.!.!.!.",
"!.!.!.!.!.!.M.M.O.d s t r i.h.h.k.k.k.k.k.k.k.s.a.a.D D D D D D D D D D D D D D D : : $     !.!.!.!.",
"!.!.!.!.!.!.!.!.M.&.&.; ; V k.k.k.k.k.k.k.k.k.s.a.a.D D D D D D D D D D D D D D D : : o     !.!.!.!.",
"!.!.!.!.!.!.!.!.;.&.&.; ; | k.k.k.k.k.k.k.k.k.s.a.a.D D D D D D D D D D D D D D D : D o     !.!.!.!.",
"!.!.!.!.!.!.!.!.!.!.R.&.&.u               % % N e.4.Z q.` D D D D D D D D D D D D D : o .   R.!.!.!.",
"!.!.!.!.!.!.!.!.!.!.R.E &.u               % % N e.5.q.Z ` D D D D D D D D D D D D : D $     !.!.!.!.",
"!.!.!.!.!.!.!.!.!.!.!.&.E I : & :.<.:.:.:.4.4.7.v.v._._.x.g.g.p.p...V  .: : , D D D : $     !.!.W.!.",
"!.!.!.!.!.!.!.!.!.!.!.&.E U P P >X>X>X*X-X}.}.|. X}.@X@X+XOXOX}.}.l.6.6.o o : D D : : $     !.!.W.~.",
"!.!.!.!.!.!.!.!.W.W.W.E E U P P >X>X>X*X*X}.}.|. X X@X@XOXOXOX}.}.l.s.7.+ o : D D : D $     !.!.~.W.",
"!.!.!.!.!.!.!.!.N.E E P D #X>X>X*X*X.X}.}.6.6.Z c c @X@XXX`.`.c c ).@X+X`.`.C     * * Y !.!.!.!.W.~.",
"!.!.!.!.!.!.!.!.M.E E P P #X>X>X*X*X.X}.}.6.6.Z c c @X@XXX`.`.c s ).@X@X`.`.}     * * Y !.!.!.!.~.W.",
"!.!.!.!.!.!.!.W.N.E E P P (.;X;X&X%X{.[.[.d.d.C c c @X@XXX`.`.2 c ).:X.X].].+.+ + Y Y W !.!.!.!.W.~.",
"!.!.!.!.!.!.!.!.N.E E P P 3.=X=X%X%X'.'.'.2.2.] c c @X@XXX`.`.1 < ,.%X%X$X$X>.* * W.W.W.~.W.~.W.~.W.",
"!.!.!.!.!.!.!.!.M.E E P P 3.=X=X'.'.'.'.'.:.2.] c c @X@XXX`.`.1 < 1.%X%X$X$X>.* * W.W.~.~.~.~.~.W.~."
};
