/* XPM */
static char *_3e917bbe6724b8ff5191aff2a1cb21ekVzh8P2unfxi1KCs[] = {
/* columns rows colors chars-per-pixel */
"50 50 184 2 ",
"   c #141B1B",
".  c #1E2225",
"X  c #1E2C23",
"o  c #222627",
"O  c #212D22",
"+  c #22252A",
"@  c #22392D",
"#  c #243A2C",
"$  c #243A2D",
"%  c #283C2B",
"&  c #283D2B",
"*  c #293E2B",
"=  c #2C3F2A",
"-  c #383128",
";  c #3B382D",
":  c #2C2C34",
">  c #302F35",
",  c #312F39",
"<  c #313B35",
"1  c #323A34",
"2  c #36323E",
"3  c #3B3439",
"4  c #383738",
"5  c #38363B",
"6  c #472227",
"7  c #453727",
"8  c #463827",
"9  c #443029",
"0  c #493D2E",
"q  c #403635",
"w  c #403D3E",
"e  c #5E3A37",
"r  c #7A2A33",
"t  c #6D3835",
"y  c #733134",
"u  c #2D4029",
"i  c #294735",
"p  c #2E4B3A",
"a  c #2F4C3B",
"s  c #324E3B",
"d  c #3C4838",
"f  c #3F5737",
"g  c #30563E",
"h  c #31563E",
"j  c #4B4530",
"k  c #424539",
"l  c #434B3B",
"z  c #504C37",
"x  c #6B4C39",
"c  c #754537",
"v  c #6D533B",
"b  c #715B3F",
"n  c #3B3643",
"m  c #3D3940",
"M  c #3D3844",
"N  c #403A45",
"B  c #433B44",
"V  c #423C45",
"C  c #443E46",
"Z  c #483E44",
"A  c #523D42",
"S  c #3A4543",
"D  c #355E42",
"F  c #376547",
"G  c #386547",
"H  c #3A6647",
"J  c #3F7450",
"K  c #3F7550",
"L  c #474244",
"P  c #474147",
"I  c #4A4045",
"U  c #4A4547",
"Y  c #494348",
"T  c #4A4449",
"R  c #4B4549",
"E  c #4E484A",
"W  c #534647",
"Q  c #554646",
"!  c #5D5E4B",
"~  c #4C5957",
"^  c #624D47",
"/  c #744841",
"(  c #695449",
")  c #705A40",
"_  c #7F5F41",
"`  c #456E43",
"'  c #4A7242",
"]  c #42774F",
"[  c #477A4E",
"{  c #4A7C4D",
"}  c #5F6859",
"|  c #407650",
" . c #417A52",
".. c #437C54",
"X. c #427C55",
"o. c #447F56",
"O. c #706748",
"+. c #776549",
"@. c #566461",
"#. c #536860",
"$. c #5F6E6B",
"%. c #6F7866",
"&. c #6E7E78",
"*. c #932D39",
"=. c #854C3B",
"-. c #8E6138",
";. c #AC3140",
":. c #AD3140",
">. c #C63546",
",. c #E0394C",
"<. c #8A5940",
"1. c #965340",
"2. c #896046",
"3. c #826F46",
"4. c #89654B",
"5. c #8C674B",
"6. c #916A47",
"7. c #A66840",
"8. c #A06D4B",
"9. c #A1714C",
"0. c #A2734D",
"q. c #A3754E",
"w. c #5D8947",
"e. c #458257",
"r. c #468259",
"t. c #47855A",
"y. c #498A5D",
"u. c #4A8B5E",
"i. c #548D55",
"p. c #57995F",
"a. c #58995F",
"s. c #5C9C5D",
"d. c #5F9E5D",
"f. c #6B9C4E",
"g. c #619F5C",
"h. c #63A15B",
"j. c #66A25B",
"k. c #62A05C",
"l. c #69A559",
"z. c #69A45A",
"x. c #6CA758",
"c. c #74AB57",
"v. c #75AD56",
"b. c #74AC57",
"n. c #7AB055",
"m. c #4B8E60",
"M. c #4B8F60",
"N. c #4C9061",
"B. c #4C9161",
"V. c #4D9162",
"C. c #4D9262",
"Z. c #4E9362",
"A. c #509361",
"S. c #519461",
"D. c #579860",
"F. c #9E8450",
"G. c #A18059",
"H. c #B18256",
"J. c #B99A5C",
"K. c #868164",
"L. c #948961",
"P. c #8D977F",
"I. c #B29164",
"U. c #AC9872",
"Y. c #D78B4A",
"T. c #DA924F",
"R. c #C08453",
"E. c #DD9954",
"W. c #D19258",
"Q. c #CC9966",
"!. c #D5AF66",
"~. c #EAB667",
"^. c #EDBD6C",
"/. c #F1C471",
"(. c #919C86",
"). c #859894",
"_. c #95A28E",
"`. c #A6A58C",
"'. c #BBAD91",
"]. c #98ADA8",
"[. c #A0B2A5",
"{. c #A3B7AD",
"}. c #CABD8F",
"|. c #ABC2BC",
/* pixels */
"C.C.C.C.C.C.C.C.C.C.C.C.C.C.C.C.C.C.C.C.C.C.C.C.C.C.C.C.C.C.C.C.C.C.C.N.N.N.C.C.C.C.C.C.C.C.C.C.C.C.",
"C.C.C.C.C.C.C.C.C.C.C.C.C.C.C.C.C.C.C.C.C.C.C.C.C.C.C.C.C.C.C.C.C.Z.C.y.t.N.C.C.C.C.C.C.C.C.C.C.C.C.",
"C.C.C.C.C.C.C.C.C.C.C.C.C.C.C.C.C.C.C.C.C.C.C.C.C.C.C.C.C.C.C.C.Z.N.N.e.J y.M.C.C.C.C.C.C.C.C.C.C.C.",
"C.C.C.C.C.C.C.C.C.C.C.C.C.C.C.C.C.C.C.C.C.C.C.C.C.C.C.C.C.C.C.C.Z.u...r.y.e.e.N.C.C.C.C.C.C.C.C.C.C.",
"C.C.C.C.C.C.C.C.C.C.C.C.C.C.C.C.C.C.C.C.C.C.C.C.C.C.C.C.C.C.C.C.C.N. .e.y.o.o.C.C.C.C.C.C.C.C.C.C.C.",
"C.C.C.C.C.C.C.C.C.C.C.C.C.C.C.C.C.C.C.C.C.C.C.C.C.C.C.C.C.C.C.C.C.C.C.t.] u.C.C.C.C.C.C.C.C.C.C.C.C.",
"C.C.C.C.C.C.C.C.C.C.C.C.C.C.C.C.C.C.C.C.C.C.C.C.C.C.C.C.C.C.C.C.C.C.C.u.t.u.C.C.C.C.C.C.C.C.C.C.C.C.",
"C.C.C.C.C.C.C.C.C.C.C.C.C.C.C.C.C.C.C.C.C.C.C.C.C.C.C.C.C.C.C.C.C.C.C.C.C.Z.C.C.C.C.C.C.C.C.C.C.C.C.",
"C.C.C.C.C.C.C.C.C.C.C.C.C.C.C.C.C.C.C.C.C.C.C.C.C.C.C.S.S.C.C.C.C.C.C.C.C.C.C.C.C.C.C.C.C.C.C.C.C.C.",
"C.C.C.C.C.C.C.C.C.C.C.C.C.C.C.C.C.C.C.C.C.C.C.C.C.C.C.a.k.C.C.C.C.C.C.C.C.C.C.C.C.C.C.C.C.C.C.C.C.C.",
"C.C.C.C.C.C.C.C.C.C.C.C.C.C.C.C.C.C.C.C.C.J J i         O # # C.C.C.C.C.C.C.C.C.C.C.C.C.C.C.C.C.C.C.",
"C.C.C.C.C.C.C.C.C.C.S.C.C.C.C.C.C.C.C.C.C.J J i         O & & C.C.C.C.C.C.C.C.C.C.C.C.C.C.C.C.C.C.C.",
"C.C.C.C.C.C.C.C.C.S.p.C.C.y.r.r.g g g g g l l e r r r r y t t h D D F G C.C.C.C.C.C.C.C.C.C.C.C.C.C.",
"C.C.C.C.C.C.C.C.C.d.n.a.C.r.J J           6 6 *.,.,.,.,.>.:.:.    X u & C.C.C.C.C.C.C.C.C.C.C.C.C.C.",
"C.C.C.C.C.C.C.C.C.d.n.p.C.r.] J           6 6 *.,.,.,.,.>.:.:.    X u & C.C.C.C.C.C.C.C.C.C.C.C.C.C.",
"C.C.C.C.C.C.C.C.C.d.n.[ | s o o E E E E E E E E E E E E E E E E E P d m @ @ F C.C.C.C.C.C.C.C.C.C.C.",
"C.C.C.C.C.C.C.C.C.s.n.{ ] f o + E E E E E E E E E E E E E E E E E P 5 k @ @ G C.C.C.C.C.C.C.C.C.C.C.",
"C.C.C.C.C.C.C.C.y.i.f.s s d 4 5 E E E E E E E E E E E E E E E E E U U P < < s F G C.C.C.C.C.C.C.C.C.",
"C.C.C.C.C.C.C.C.r.{ w.o o 4 E E E E E E E E E E E E E E E E E E E E E E 5 w < @ # C.C.C.C.C.Z.Z.C.C.",
"C.C.C.C.C.C.C.C.r.] { o o 4 E E E E E E E E E E E E E E E E E E E E E E k B < @ @ C.C.C.C.Z.N.Z.C.C.",
"C.C.C.C.C.C.J J s o o E E E E E E E E E E E E E E E E E E E E E E E E E E E L L m # @ F C.N.Z.Z.C.C.",
"C.C.C.C.C.C.J J p o o E E E E E E E E E E E E E E E E E E E E E E E E E E E L 2 m # @ F N.N.Z.Z.C.C.",
"C.C.C.C.C.C.J J p + o I Y Y Y E P I R Y R I P Y E E R Y Y P P R Y U P R U R L 1 5 @ @ F Z.N.Z.Z.C.C.",
"a.C.C.C.C.C.J J p . . M N C Y Y M M P R Y M M R E E Y Y C C M Y R P n n R P 5 2 2 @ @ G N.Z.N.Z.C.C.",
"l.h.S.C.C.C.] J p . . N N C Y Y N M C Y Z N N B E E Y Y C N N Y Y C n n E R 5 2 , @ @ F C.C.C.C.C.C.",
"x.h.a.S.C.C.J J p . . n n n n n n n n n M M M M C M Y Y C M M Y E M n C T R 5 n , @ @ F C.C.C.C.C.C.",
"S.g.v.p.C.C.J J p . . n n n n n n n n n n n n M M C Y Y C M N R R P M n P R 5 n , @ @ F C.C.C.C.C.C.",
"l.g.s.S.C.C.J J p . . n n n n n n n n n n n n B Y Z ( ( Q M M C Y M M n n n , . . @ @ F C.C.C.C.C.C.",
"v.h.C.C.C.C.J J p . . n n n n n n n n n n n n Z W W 4.4.^ n n n n n n n , , .     @ @ F C.C.C.C.C.C.",
"C.C.C.C.C.C.J J p . . n n n n n n n n n n n n Z Q W 4.4.^ M n n n n n n , 2 +     @ @ F C.C.C.C.C.C.",
"C.C.C.C.C.C.J J p . . n n n n n n n n n n n M Z Q Q _ _ 0     - - v 0.0.+.<.z @ @ C.C.C.C.C.C.C.C.C.",
"C.C.C.C.C.C.J J p . . n n n n n n n n n n n n C Q Q -.+.0     - - v 0.9.-.+.z @ @ C.C.C.C.C.C.C.C.C.",
"C.C.C.C.C.C.J J p . . n n n n n n n n n n n n Z Q Q 6.6.v 0 0 - - v q.q.6.6.<.z z F F K B.V.V.V.C.C.",
"C.C.C.C.C.C.J J p . . n n n n n n n n n n n n Z Q Q q.q.6.b -.- - v q.q.q.q.6.<.+.@ @ F B.V.V.V.C.C.",
"C.C.C.C.C.C.J ] p . . n n n n n n n n n n n n Z Q Q q.q.6.+.<.- - v q.q.q.q.6.) -.@ @ F C.V.V.V.C.C.",
"C.C.C.C.C.C.. . : n n n n n n n n n n n n n n Z Q Q q.q.q.q.q.q.q.0.0.6.1.-.=.c c @ @ F C.C.V.C.C.C.",
"C.C.C.C.C.C.. . : n n n n n n n n n n n n n n Z Q Q q.q.q.q.q.q.q.8.8.8.=.1.=.c x $ $ F C.C.C.C.C.C.",
"C.C.C.C.C.C.. . : n n n n n n n n n n n n n n Z Q Q q.q.q.q.q.q.q.q.8.0.<.1.x 0 j H F K C.C.C.C.C.C.",
"C.C.C.C.C.C.. . : n n n n n n n n n n n n n n C Q Q q.q.q.q.q.q.q.q.q.q.2.+.z # $ D.C.C.C.C.C.C.C.C.",
"C.C.C.C.C.C.. . : n n n n n n n n n n n n n n C Q Q q.q.q.q.q.q.q.q.q.q.+.-.z $ * b.C.C.C.C.C.C.C.C.",
"C.C.C.C.C.C.. . : n n n n n n n n n n n n A A / 1.1.c c 9               @ * ` C.z.b.V.Z.V.Z.V.Z.C.C.",
"C.C.C.C.C.C.. . : n n n n n n n n n n n n A W c 1.1.c c 9               @ u ' Z.z.b.Z.V.Z.V.Z.V.C.C.",
"C.C.C.C.C.C.. . : n n 2 2 3 5 q <.4.5.5.5.G.G.H.H.R.7.7.-.) b $.$.@.~ ~ @ u ' Z.j.b.V.V.C.C.V.Z.C.C.",
"C.C.C.C.C.C.. . : n n , > ; 7 7 Y.Y.T.E.E././.^.~.~.Y.Y.W.Q.Q.|.|.].).).@ u ' C.D.k.V.V.C.C.C.C.C.C.",
"C.C.C.C.C.C.. . : m m > , ; 9 8 T.Y.T.E.E././.^.~.~.Y.Y.W.Q.Q.|.|.].).).@ u ' C.C.C.C.C.C.C.C.C.C.C.",
"C.C.C.C.C.C.J J i     j j G././.J.J.3.j j /./.!.Q.J.7 7 -.Y.Y.Q.Q.'.|.|.).).#.@ @ C.C.C.C.C.C.C.C.C.",
"C.C.C.C.C.C.| ] i     j j G././.I.J.3.j j /./.!.J.J.7 7 -.Y.Y.Q.Q.'.|.|.).).#.@ @ C.C.C.C.C.C.C.C.C.",
"C.C.C.C.C.C.e.e.G i i k k K.}.}.L.F.O.j j /./.!.J.J.; ; +.I.I.U.U.`.[.{.).).#.@ @ C.C.C.C.C.C.C.C.C.",
"C.C.C.C.C.C.C.C.r.J J S S &.{.{.%.%.! j j /./.!.J.J.1 1 } P.P.P.(.(._._.).).#.@ @ V.V.C.C.C.C.C.C.C.",
"C.C.C.C.C.C.C.C.r.J J S S &.{.{.%.%.! j j /./.!.J.J.1 1 } P.P.P.(.(._.(.).).#.@ @ m.V.V.C.C.C.C.C.C."
};
