/* XPM */
static char *bcf31221eade4b19e3eb474c8b4d53c9NxmUpz3tQwpydYp7[] = {
/* columns rows colors chars-per-pixel */
"50 50 101 2 ",
"   c #141B1B",
".  c #342B36",
"X  c #512C38",
"o  c #723327",
"O  c #662B36",
"+  c #7A2A33",
"@  c #7A442E",
"#  c #443444",
"$  c #533445",
"%  c #543C52",
"&  c #703547",
"*  c #713D54",
"=  c #5F5C62",
"-  c #6D5D63",
";  c #667074",
":  c #767D7F",
">  c #A53A34",
",  c #815635",
"<  c #D14B34",
"1  c #843445",
"2  c #993342",
"3  c #8F3E56",
"4  c #A33D53",
"5  c #B73B51",
"6  c #E0394C",
"7  c #924343",
"8  c #D84240",
"9  c #E06E41",
"0  c #EF914F",
"q  c #848888",
"w  c #878B8B",
"e  c #898C8C",
"r  c #898D8D",
"t  c #A4B5C4",
"y  c #A7B7C4",
"u  c #A9BBCA",
"i  c #B9C6CD",
"p  c #AFC0D4",
"a  c #B0C1D3",
"s  c #BFCCD2",
"d  c #B4C5DB",
"f  c #B6C7DC",
"g  c #BCCDE6",
"h  c #BECFEA",
"j  c #C4C6C6",
"k  c #C3CED3",
"l  c #C1CCD4",
"z  c #C4D0D9",
"x  c #CDD6DB",
"c  c #CCD6DD",
"v  c #C4D1E1",
"b  c #CCD7E4",
"n  c #CDD8E5",
"m  c #C7D5EC",
"M  c #C8D5ED",
"N  c #D2DBE2",
"B  c #D4DCE0",
"V  c #D5DCE0",
"C  c #D7DEE2",
"Z  c #D5DDE5",
"A  c #D3DDE9",
"S  c #C5D5F3",
"D  c #C6D7F6",
"F  c #CAD9F2",
"G  c #CCDBFC",
"H  c #CEDDFC",
"J  c #CFDEFC",
"K  c #DEE3E6",
"L  c #DCE3EA",
"P  c #D6E3FB",
"I  c #D2E0FC",
"U  c #D2E1FD",
"Y  c #D4E2FD",
"T  c #D7E3FD",
"R  c #DAE5FD",
"E  c #DCE7FD",
"W  c #DFE8FD",
"Q  c #E1E7EA",
"!  c #E4EAEF",
"~  c #EAEEF2",
"^  c #E0EAFD",
"/  c #E3ECFD",
"(  c #E6EEFD",
")  c #EEF1F2",
"_  c #EEF1F3",
"`  c #EDF2F7",
"'  c #EAF0FE",
"]  c #ECF2FE",
"[  c #EFF4FE",
"{  c #F2F4F6",
"}  c #F3F5F6",
"|  c #F6F7F8",
" . c #F0F5FE",
".. c #F3F6FE",
"X. c #F3F7FE",
"o. c #F7F9FA",
"O. c #F7F9FE",
"+. c #F9FAFA",
"@. c #F8FBFE",
"#. c #FBFDFF",
"$. c white",
/* pixels */
"$.$.$.$.$.$.$.$.$.$.$.$.$.$.$.Y @.U $.$.$.$.$.$.$.$.! y l +.$.$.$.$.$.$.$.$.$.$.$.$.$. .^ ( ' $.$.$.",
"$.$.$.$.$.$.$.$.$.$.$.$.$.$.$.U @.E $.$.$.$.$.$.$.} a h g Z $.$.$.$.$.$.$.$.$.$.$.$.$. .^ '  .$.$.$.",
" .$.$.$.$.$.$.$.$.$.$.$.$.$.$.U O.$.$.$.$.$.$.$.$.' F b P ^ $.$.$.$.$.$.$.$.$.$.$.$.$. .E $.$.$.$.$.",
"/ $.$.$.$.$.$.$.$.$.$.$.$.$.$.^ @.$.$.$.$.$.$.$.$.H Y $. .] $.$.$.$.$.$.$.$.$.$.$.$.$.@.' $.$.$.$.$.",
"( ( [ $.$.$.$.$.$.$.$.$.$.$.$.$.$.$.$.$.$.$.$.$.$.H ' $.$.$.$.$.$.$.$.$.$.$.$.$.$.$.$.$.$.$.$.$.$.$.",
"' ]  .$.$.$.$.$.$.$.$.$.$.$.$.$.$.$.$.$.$.$.$.$.$.] $.$.$.$.$.$.$.$.$.$.$.$.$.$.$.$.$.$.$.$.$.$.$.$.",
"$.$.$.$.$.$.$.$.$.$.$.$.$.$.$.$.$.$.$.$.$.$.$.$.$.$.$.$.$.$.$.$.$.$.$.$.$.$.$.$.$.$.$.$.$.$.$.$.$.$.",
"$.$.$.$.$.$.$.$.$.$.$.$.$.$.$.$.$.j r r r r r r r $.$.$.$.C Q $.$.$.$.$.$.$.$.$.$.$.$.$.$.$.$.$.$.$.",
"$.$.$.$.$.$.$.$.$.$.$.$.$.$.$.$.$.e               $.$.$.Q x k ! $.$.$.$.$.$.$.$.$.$.$.$.$.$.$.$.$.$.",
"$.$.$.$.$.$.$.$.$.$.$.$.$.$.$.$.$.w               $.$.$.$.C K $.$.$.$.$.$.$.$.$.$.$.$.$.$.$.$.$.$.$.",
"$.$.$.$.$.$.$.$.$.$.$.$.r         X 3 3 3 3 3 3 3                     $.$.$.$.$.$.$.$.$.$.$.$.$.$.$.",
"$.$.$.$.$.$.$.$.$.$.$.$.r         X 3 3 3 3 3 3 3                     $.$.$.$.$.$.$.$.$.$.$.$.$.$.$.",
"$.$.$.$.$.$.$.$.$.$.r r - X X     O 5 5 5 5 4 3 3 + + + + + + + + + + r r j $.$.$.$.$.$.$.$.$.$.$.$.",
"$.$.$.$.$.$.$.$.$.$.    X 3 3     + 6 6 6 6 5 3 3 6 6 6 6 6 6 6 6 6 6     e $.$.$.$.$.$.$.$.$.$.$.$.",
"$.$.$.$.$.$.$.$.$.$.    X 3 3     + 6 6 6 6 5 3 3 6 6 6 6 6 6 6 6 6 6     r $.$.$.$.$.$.$.$.$.$.$.$.",
"$.$.$.$.$.$.$.r     3 3 X     3 3 3 3 3 6 6 6 6 6 6 6 6 6 6 6 6 6 6 6 6 6 +     $.$.$.$.$.$.$.$.$.$.",
"$.$.$.$.$.$.$.r     3 3 X     3 3 3 3 3 6 6 6 6 6 6 6 6 6 6 6 6 6 6 6 6 6 +     $.$.$.$.$.( U Y U O.",
"$.$.$.$.$.$.$.q     3 3 1 + + 5 5 4 3 3 6 6 6 6 6 6 6 6 6 6 6 6 6 6 6 6 6 2 X X e e j $.$.$.$.@.@.O.",
"$.$.$.$.$.$.) ;     3 3 5 6 6 6 6 5 3 3 6 6 6 6 6 6 6 6 6 6 6 6 6 6 6 6 6 5 3 3     e $.$.$.$.( R R ",
"Q ]  .$.$.$.B :     3 3 5 6 6 6 6 5 3 3 6 6 6 6 6 6 6 6 6 6 6 6 6 6 6 6 6 5 3 3     e $.$.$.$.$.$.$.",
"f U ] $.$.$.$.:     3 3 5 6 6 6 6 6 6 6 6 6 6 6 6 6 6 6 6 6 6 6 6 6 6 6 6 5 3 3     e $.$.$.$.$.$.$.",
"D v $.$.$.$.$.w     3 3 5 6 6 6 6 6 6 6 6 6 6 6 6 6 6 6 6 6 6 6 6 6 6 6 6 5 3 3     e $.$.$.$.$.$.$.",
"u g E ] $.$.$.r     3 3 4 5 5 6 6 6 6 6 6 6 6 6 6 6 6 6 6 6 6 6 6 6 6 5 5 1 $ X e e j $.$.$.$.$.$.$.",
"~ ( H P ' $.$.e     3 3 3 3 3 6 6 6 6 6 6 6 6 6 6 6 6 6 6 6 6 6 6 6 6 3 3 X     $.$.$.$.$.$.$.$.$.$.",
"$.$.O.O.@.$.$.r     3 3 3 3 3 6 6 6 6 6 6 6 6 6 6 6 6 6 6 6 6 6 6 6 6 7 3 $     $.$.$.$.$.$.$.$.$.$.",
"$.$.$.$.$.$.$.r     3 3 3 3 3 3 3 3 3 3 3 3 3 3 3 % % 7 < < < < o     < < o     $.$.$.$.@.@.#.$.$.$.",
"$.$.$.$.$.$.$.r     3 3 3 3 3 3 3 3 3 3 3 3 3 3 3 % % 7 < < < < o     < < o     $.$.$.O.Y J ( ` o.$.",
"$.$.$.$.$.$.$.r     3 3 3 3 3 3 3 3 3 3 3 3 3 3 3 % % 7 < < 9 9 @     < < > + + e e j $. .^ M f c +.",
"$.$.$.$.$.$.$.r     3 3 3 3 3 3 3 3 3 3 3 3 3 3 3 % % 7 < < 0 0 ,     < < 8 6 6     e $.$.#.b h u } ",
"$.$.$.$.$.$.$.r     3 3 3 3 3 3 3 3 3 3 3 3 3 3 3 % % 7 < < 0 0 @     < < 8 6 6     e $.$.O.U g z o.",
"$.$.$.$.$.$.$.r     3 3 3 3 3 3 3 3 3 3 3 3 3 3 3 3 3 3 3 3 6 6 6 6 6 6 6 6 6 6     e $.$. .' L ) $.",
"E $.$.$.$.$.$.r     3 3 3 3 3 3 3 3 3 3 3 3 3 3 3 3 3 3 3 3 6 6 6 6 6 6 6 6 6 6     e $.$.$.$.$.$.$.",
"O.$.$.$.$.$.$.j r r X X & 3 3 3 3 3 3 3 3 3 3 3 3 3 3 3 3 3 5 5 5 5 5 5 5 2 + + w r j $.$.$.$.$.$.$.",
"U Y ^ $.$.$.$.$.$.$.    X 3 3 3 3 3 3 3 3 3 3 3 3 3 3 3 3 3 3 3 3 3 3 3 3 X     $.$.$.$.$.$.$.$.$.$.",
"@.$.$.$.$.$.$.$.$.$.    X 3 3 3 3 3 3 3 3 3 3 3 3 3 3 3 3 3 3 3 3 3 3 3 3 X     $.$.$.$.$.$.$.$.$.$.",
"$.$.$.$.$.$.$.$.$.$.$.$.r     % % % % % % % % % % % % % % % % % % % %     r $.$.$.$.$.$.$.$.$.$.$.$.",
"$.$.$.$.$.$.$.$.$.$.$.$.r     % % % % % % % % % % % % % % % % % % % %     r $.$.$.$.$.$.$.$.$.$.$.$.",
"$.$.$.$.$.$.$.$.$.$.$.$.r     * * $ . . 7 7 7 7 7 . . $ * * % % # . . e r j $.$.$.$.$.$.$.$.$.$.$.$.",
"$.$.$.$.$.$.$.$.$.$.$.$.r     3 3 X     < < < < <     X 3 3 % % .     $.$.$.$.$.$.$.$.$.$.$.$.$.$.$.",
"$.$.$.$.$.$.$.$.$.$.$.$.r     3 3 X     < < < < <     X 3 3 % % .     $.$.$.$.$.$.$.$.$.$.$.$.$.$.$.",
"$.$.$.$.$.$.$.$.$.$.$.$.r     % % .     0 0 0 0 0     . % % % % .     $.$.$.$.$.$.$.$.$.$.$.$.$.$.$.",
"$.$.$.$.$.$.$.$.$.$.$.$.r     % % .     0 0 0 0 0     . % % % % .     $.$.$.$.$.$.$.$.$.$.$.$.$.$.$.",
"$.$.$.$.$.$.$.$.$.$.$.$.j r r . . . . . , , , , ,     . % % . . = r r $.$.$.$.$.$.$.$.$.$.$.$.$.$.$.",
"$.$.$.$.$.$.$.$.$.$.$.$.$.$.$.    . % %               . % %     r $.$.$.$.$.$.$.$.$.$.$.$.$.$.$.$.$.",
"$.$.$.$.$.$.$.$.$.$.$.$.$.$.$.    . % %               . % %     r $.$.$.$.$.$.$.$.$.$.$.$.O.] ] ] $.",
"$.$.$.$.$.$.$.$.$.$.$.$.$.$.$.$.$.$.$.$.$. .T  .$.$.$.$.$.$.$.$.$.$.$.$.$.$.$.$.$.$.$.$.$. .( ' ( #.",
"$.$.$. .] $.$.$.$.$.$.$.$.$.$.$.$.$.@.] $.E G  .$.$.$.$.$.$.$.$.^ $.$.$.$.$.$.$.$.$.$.$.$.$.$.' ^ ^ ",
"$.$.$.] ( $.$.$.$.$.$.$.$.$.$.$.$.$. .U A M E O.$.$.$.$.$.$.$.$.Y $.$.$.$.$.$.$.$.$.$.$.$.$.$.[ ' ' ",
"s O.( ' ( $.$.$.$.$.$.$.$.$.$.$.$.$.~ f S d L $.$.$.$.$.$.$.' @.U $.$.$.$.$.$.$.$.$.$.$.$.$.$.C ~ $.",
")  .^ ' ( $.$.$.$.$.$.$.$.$.$.$.$.$.$.N y N | $.$.$.$.$.$.$.E [ U $.$.$.$.$.$.$.$.$.$.$.$.$.$.| i } "
};
