/* XPM */
static char *a28a41e46e3a4c2596784ae946b090bfhGNgp3kBUkIGr895[] = {
/* columns rows colors chars-per-pixel */
"50 50 73 1 ",
"  c #141B1B",
". c #151C1C",
"X c #323A34",
"o c #30563E",
"O c #33583D",
"+ c #355A3D",
"@ c #446339",
"# c #476538",
"$ c #3F7450",
"% c #50594D",
"& c #46794E",
"* c #407650",
"= c #417A52",
"- c #437C54",
"; c #447F56",
": c #62725F",
"> c #5A6C62",
", c #5F6E6B",
"< c #6A6E69",
"1 c #458257",
"2 c #468358",
"3 c #468459",
"4 c #47855A",
"5 c #498B5E",
"6 c #498C5E",
"7 c #57985F",
"8 c #57995F",
"9 c #5F9B5A",
"0 c #58995F",
"q c #5B9B5E",
"w c #5F9E5D",
"e c #659D55",
"r c #629F5B",
"t c #64A25B",
"y c #66A35A",
"u c #62A05C",
"i c #69A559",
"p c #6CA758",
"a c #77AD54",
"s c #75AD56",
"d c #74AC57",
"f c #79AF55",
"g c #70A958",
"h c #7AB055",
"j c #4B8E60",
"k c #4B8F60",
"l c #4C9060",
"z c #4C9161",
"x c #4D9262",
"c c #4E9362",
"v c #509361",
"b c #519560",
"n c #519461",
"m c #579860",
"M c #768375",
"N c #8C967F",
"B c #8D977F",
"V c #828285",
"C c #838286",
"Z c #8F9792",
"A c #9CAC9D",
"S c #AEB6AB",
"D c #BAB6BB",
"F c #AAC1BB",
"G c #ABC2BC",
"H c #B5C1BA",
"J c #BFC0B8",
"K c #BDCCC9",
"L c #C7CBC7",
"P c #CED6D6",
"I c #E0E0E4",
"U c #F1E9F0",
"Y c #F2EAF1",
/* pixels */
"xxxxxxxxxxxxxxxxxxxxxxxxxxxxxxxxxxxz6zxxxxxxxxxxxx",
"xxxxxxxxxxxxxxxxxxxxxxxxxxxxxxxxxxx64zxxxxxxxxxxxx",
"xxxxxxxxxxxxxxxxxxxxxxxxxxxxxxxxxxz4$6zxxxxxxxxxxx",
"xxxxxxxxxxxxxxxxxxxxxxxxxxxxxxxxxz=16-2zxxxxxxxxxx",
"xxxxxxxxxxxxxxxxxxxxxxxxxxxxxxxxxj$4511xxxxxxxxxxx",
"xxxxxxxxxxxxxxxxxxxxxxxxxxxxxxxxxxx4$6zxxxxxxxxxxx",
"xxxxxxxxxxxxxxxxxxxxxxxxxxxxxxxxxxz646xxxxxxxxxxxx",
"xxxxxxxxxxxxxxxxxxxxxxxxxxxxxxxxxxxczcxxxxxxxxxxxx",
"xxxxxxxxxxxxxxxxxxxxxxxxxxxvnxxxxxxxxxxxxxxxxxxxxx",
"xxxxxxxxxxxxxxxxxxxxxxxxxxzwuxxxxxxxxxxxxxxxxxxxxx",
"xxxxxxxxxxxxxxxxxxxxxxxxxxxihnnxxxzzxxxxxxxxxxxxxx",
"xxxxxxxxxxnxxxxxxxxxxxxxxxxihguxxxczxxxxxxxxxxxxxx",
"xxxxxxxxxn7xxxxxxxxxxxxxxxxihhixxb78xxxxxxxxxxxxxx",
"xxxxxxxxxwh0xxxxxxxxxxxxxxxyshi6x7fyxxxxxxxxxxxxxx",
"xxxxxxxxxwf0xnxxxxxxxxxxxxx0use49isuxxxxxxxxxxxxxx",
"xxxxxxxxxwh0xn                      oxxxxxxxxxxxxx",
"xxxxxxxxxwhmcd                      occxxxxxxxxxxx",
"xxxxxxxxxwh&+@VVVCCCCCCCCCCCCCCCVVVV>ooxxxxxxxxxxx",
"xxxxxxxxxqd+  YYYYYYYYYYYYYYYYYYYYYYC  xxxxxxxxxxx",
"xxxxxxxxccq+  YYYYYYYYYYYYYYYYYYYYYYV  xxxxxxxxxxx",
"xxxxxxxxc  ,GGYYYYYYYYYYYYYYYYYYYYYYPGF  oxxxxxxxx",
"xxxxxxxxc  ,GGYYYYYYYYYYYYYYYYYYYYYYPGF  oxxxxxxxx",
"xxxxxxczc  ,GGYYYYYYYYYYYYYYYYYYYYYYPGF  oxxxxxxxx",
"mxxxxxzcz  ,GGYYYYYYYYYYYYYYYYYYYYYUPGF  oxxxxxxxx",
"iucccxxxx  ,GGYYYYYYYYYYYYYYYYYYYYYYPGF  oxxxxxxxx",
"puqccxxxx  ,GGYYYYYYYYYYYYYYYYYYYYYYPGF  oxxxxxxxx",
"nusqxxxxx  ,GGYYYYYYYYYYYYYYYYYYYYYYPGG  oxxxxxxxx",
"iummxxxxx  ,GGYYYYYYYYYYYYYYYYYYYYYYPGF  oxxxxxxxx",
"dyxxxxxxx  ,GGYYYYYYYYYYYYYYYYYYYYYYPGF  oxxxxxxxx",
"cxxxxxxxz  ,GGYYYYYYYYYYYYYYYYYYYYYYPFF  oxxxxxxxx",
"xxxxxxxxz  <GGYYYYYYYYYYYYYYYYYYYYUUPGF  oxxxxxxxx",
"xxxxxxxxk  <GGYYYYYYYYYYYYYYYYYYYYYUPGF  oxxxxxxxx",
"xxxxxxxxx  ,FGPPIYYYYYYYYYYYYYYYYYPPKGF  oxxxxxxxx",
"xxxxxxxxx  ,GGGGPYYYYYYYYYYYYYYYYYGGGGF  oxxxxxxxx",
"xxxxxxxxx  ,FFGGPYYYYYYYYYYYYYYYYYGGFFF  oxxxxxxxx",
"xxxxxxxxxxxo  BBAGGGGGGGGGGGGGGGGGBB%  cxxxxxxxxxx",
"xxxxxxxxxxco  BBAGGGGGGGGGGGGGGGGGBB%  cxxxxxxxxxx",
"xxxxxxxxxzzo  %%MAAAAAAAAAAAAAAAAA%%X  cxbxxxxxxxx",
"xxxxxxxxxxzo    %BBBBBBBBBBBBBBBBB     c8qxxxxxxxx",
"xxxxxxxxxxc+.   %BBBBBBBBBBBBBBBBB     bydxxxxxxxx",
"xxxxxxxxx  CYYYYJBBBBBBBBBBBBBBBBBBBJYU  @cxcczcxx",
"xxxxxxxxx  CYYYYJBBBBBBBBBBBBBBBBBBBJYU  @ccczczxx",
"xxxxxx*ooCCDYYPPLJJAAAAAAAAAAAASJJAALYYVV:ooxxczxx",
"xxxxxxo  YYYYYGGPYYGGGGGGGFFFFFPYYGGPYUUUV  xxxxxx",
"xxxxxxo  YYYYUFFPYYGGGGGGGGGFFFPYYGGPUUUUV  xxxxxx",
"xxxxxxo  YYDZZFFABBBBBBBBBBBBBBBBBGGABBUUV  xxxxxx",
"xxxxlxO  YUDBBFFABBBBBBBBBBBBBBZBBGGABZYYV  xxxxxx",
"xxxxx6*O+VB:%%PPHAAAAM%%%%%%%AAAAAPPZ%%CC>ooxxxxxx",
"xxxxxxxxx     YYPGGGG,       FGGGGYYV    ocxxxxxxx",
"xxxxxxxxx     YYPGGGG<       FGGGGYYV    +bxxxxxxx"
};
