/* XPM */
static char *af509647059640419b920e62724bdca6BdLULi5sAnOMur2V[] = {
/* columns rows colors chars-per-pixel */
"50 50 78 1 ",
"  c #141B1B",
". c #141C1B",
"X c #151C1C",
"o c #323A34",
"O c #30563E",
"+ c #33583D",
"@ c #3B5E3B",
"# c #476538",
"$ c #3F7450",
"% c #50594D",
"& c #407650",
"* c #417A52",
"= c #437C54",
"- c #447F56",
"; c #5A6C62",
": c #5F6E6B",
"> c #6A6E69",
", c #717879",
"< c #468358",
"1 c #468459",
"2 c #4A8B5D",
"3 c #498C5E",
"4 c #57985F",
"5 c #58995F",
"6 c #5A9B5E",
"7 c #5E9D5D",
"8 c #5F9E5D",
"9 c #659D55",
"0 c #629F5B",
"q c #619F5C",
"w c #63A15B",
"e c #64A25B",
"r c #63A15C",
"t c #68A459",
"y c #69A559",
"u c #69A45A",
"i c #6CA759",
"p c #77AD54",
"a c #75AD56",
"s c #74AC57",
"d c #79AF55",
"f c #70A958",
"g c #7AB055",
"h c #4B8E60",
"j c #4C9060",
"k c #4C9061",
"l c #4C9161",
"z c #4E9361",
"x c #4D9162",
"c c #4D9262",
"v c #4E9262",
"b c #4E9362",
"n c #509361",
"m c #519461",
"M c #529560",
"N c #529561",
"B c #579860",
"V c #768375",
"C c #8D977F",
"Z c #7E8D84",
"A c #828285",
"S c #838286",
"D c #8F9792",
"F c #94A28E",
"G c #9CAC9D",
"H c #A9ACAE",
"J c #AEB6AB",
"K c #BAB6BB",
"L c #AAC1BB",
"P c #ABC1BC",
"I c #ABC2BC",
"U c #B5C1BA",
"Y c #BFC0B8",
"T c #C7CBC7",
"R c #CDD5D5",
"E c #CED6D6",
"W c #F1E9F0",
"Q c #F2EAF1",
/* pixels */
"ccccccccccccccccccccccccccccccccccchhnchzccccccccc",
"ccccccccccccccccccccccccccccccccccc21hcccccccccccc",
"cccccccccccccccccccccccccccccccccch<&hhccccccccccc",
"ccccccccccccccccccccccccccccccccc3-<2-<hcccccccccc",
"ccccccccccccccccccccccccccccccccc3*<2--ccccccccccc",
"ccccccccccccccccccccccccccccccccccc1&2cccccccccccc",
"ccccccccccccccccccccccccccccccccccc21ccccccccccccc",
"cccccccccccccccccccccccccccccccccccccccccccccccccc",
"cccccccccccccccccccccccccccmmccccccccccccccccccccc",
"ccccccccccccccccccccccccccc5wccccccccccccccccccccc",
"cccccccccccccccccccccccccccygmmccccccccccccccccccc",
"ccccccccccmccccccccccccccccygfwcccnncccccccccccccc",
"cccccccccm4ccccccccccccccccyggychc4ncccccccccccccc",
"ccccccccc8g5cccccccccccccccwagy344d0cccccccccccccc",
"ccccccccc8d5cmccccccccccccc50d91q0s8cccccccccccccc",
"ccccccccc8g5cmm.               .XXXXXOcccccccccccc",
"ccccccccbBdBmsB                      Ohhbccccccccc",
"ccccccccbrdB$#@ZSSSSSSSSSSSSSSSSSSSSS;OOhccccccccc",
"ccccccccbBsB+X QQQQQQQQQQQQQQQQQQQQQQZ  cccccccccc",
"ccccccccmNrm+X QQQQQQQQQQQQQQQQQQQQQQS  cccccccccc",
"cccclcccbb  :IIQQQQQQQQQQQQQQQQQQQQQWEILXXObhbcccc",
"ccccblccbb  :IIQQQQQQQQQQQQQQQQQQQQQQEILXXObbbcccc",
"bbcclblblb  :IIQQQQQQQQQQQQQQQQQQQQQQEILX Oblccccc",
"mbccblblbl  :IIQQQQQQQQQQQQQQQQQQQQQQEIL  Ohcccccc",
"irmbbbbhcc. :IIQQQQWQQQQQQQQQQQQQQQQQEIL..Occccccc",
"irBmbbbbcc..:IIQQQQWQQQWQQQQQQQQQQQQQEIL .Occccccc",
"n8sBblblcc..:IIQQQWWQQWWQQQQQQQQQQQQQEII  Occccccc",
"i88nlblbcc..:IIQQKSSSZHREEEEEESSSSSQQEII  Occccccc",
"seccblcclc..:IIQQS..  :LIIIIIL    XQWELL  Olcccccc",
"bccclbccll..:IIQQS .  :LIIIIII    XQQEIL  Olcccccc",
"bbccccccll..:ILQQS    >IIIIIIL     QQELL .Olcccccc",
"bbccccccll..:IKQQS    >IIIIIIL   X.QQEII .Obcccccc",
"hblccccccc  :LLUYGAAAAHEEEEEEEZSSZSKYULL..Oczjzccc",
"bbccccccccXX:KLDCYWWQQQQQQQQQQWWWWWDCGLL  Ozcclzcc",
"ccccccccccXX;LLCCYWWQWQQQQQQWWWWWWQDCGLL .Ojcczlcc",
"ccccccccccccO..CCGII..AQQ..AWW. >LLCC%. jjjzczlzcc",
"ccccccccccccO..CCGII..AQQ..ZWW  ;IIDC%  bbcccccccc",
"ccccccccccccO..%%ZIL..,EE..,RR  :IL%%o  bzcccccccc",
"ccccccccccccO....:II..:IK..:IL .:LL..   BBcccccccc",
"ccccccccccccOX...>II..:II..>IK..:IL...  yscccccccc",
"cccccccccc  AQQQQYCCCCCCCCCCCCCCCCCCCYWWX.Ocnchbcc",
"cccccccccc  SQQQQYCCCCCCCCCCCCCCCCCCCYWW..Occcbbcc",
"ccccccc&OOAAKQQEETYYGGGGGCCFGGGGJYYGGTWWAA;OObbbcc",
"cccccccO. QQQQQIIEQWIIIILCCGLLLLEWWLIEWWQQA. bbhcc",
"cccccccO..WWQQQIIEWWIILLLCCGLLLLEWWIIEQWWWZ  hbbcc",
"ccccnchO..WWYDDJIGCCCCCCCCCCCCCCCCCIIGDCWWS  bblcc",
"ccccnc3O..WWUCCLIGCCCCCCCCCCCCDDCCCIJGDDWQSXXclbcc",
"ccccccj$OOAC>%%REUGGGGV%%%%%%%GGGGGERD%%SS;OOlblcc",
"ccccccccccX    QQEIIII>       IIIIIQQA....+zzzblbl",
"cccccccccc     QQEIIII:      .LLIIIWQA....+zbblbcc"
};
