/* XPM */
static char *c36adb42cfd84cd6eb8050f3cef28bb7PsAzZo34tpVpMwRA[] = {
/* columns rows colors chars-per-pixel */
"50 50 74 1 ",
"  c #141B1B",
". c #151C1C",
"X c #30563E",
"o c #33583D",
"O c #3B5E3B",
"+ c #3D5F3A",
"@ c #426239",
"# c #446338",
"$ c #476538",
"% c #3F7450",
"& c #405846",
"* c #50594D",
"= c #58645C",
"- c #417A52",
"; c #437C54",
": c #437D54",
"> c #5A6C62",
", c #5F6E6B",
"< c #6A6E69",
"1 c #717879",
"2 c #458257",
"3 c #478457",
"4 c #458258",
"5 c #468459",
"6 c #4A8B5D",
"7 c #498B5E",
"8 c #57985F",
"9 c #5F9B5A",
"0 c #58995F",
"q c #5B9B5E",
"w c #5F9E5D",
"e c #659D55",
"r c #629F5B",
"t c #63A15B",
"y c #64A25B",
"u c #66A35A",
"i c #66A25B",
"p c #62A05C",
"a c #68A459",
"s c #69A559",
"d c #6CA758",
"f c #6EA958",
"g c #70AA57",
"h c #77AD54",
"j c #75AC56",
"k c #75AD56",
"l c #74AC57",
"z c #79AF55",
"x c #7AB055",
"c c #4B8E60",
"v c #4C9161",
"b c #4E9361",
"n c #4D9262",
"m c #4E9362",
"M c #519461",
"N c #559760",
"B c #579860",
"V c #768375",
"C c #8C967F",
"Z c #8D977F",
"A c #7E8D84",
"S c #828285",
"D c #838286",
"F c #9CAC9D",
"G c #97A2A1",
"H c #AAC1BB",
"J c #ABC2BC",
"K c #BFC0B8",
"L c #BDCCC9",
"P c #CDD5D5",
"I c #CED6D6",
"U c #E0E0E4",
"Y c #F1E9F0",
"T c #F2EAF1",
/* pixels */
"nnnnnnnnnnnnnnnnnnnnnnnnnnnnnnnnnnnvcnnnnnnnnnnnnn",
"nnnnnnnnnnnnnnnnnnnnnnnnnnnnnnnnnnv65cvnnnnnnnnnnn",
"nnnnnnnnnnnnnnnnnnnnnnnnnnnnnnnnnnc3%7cvnnnnnnnnnn",
"nnnnnnnnnnnnnnnnnnnnnnnnnnnnnnnnvc;5645vnnnnnnnnnn",
"nnnnnnnnnnnnnnnnnnnnnnnnnnnnnnnnnc-56;4nnnnnnnnnnn",
"nnnnnnnnnnnnnnnnnnnnnnnnnnnnnnnnnnn5%cnnnnnnnnnnnn",
"nnnnnnnnnnnnnnnnnnnnnnnnnnnnnnnnnnn65vnnnnnnnnnnnn",
"nnnnnnnnnnnnnnnnnnnnnnnnnnnnnnnnnnnnnnnnnnnnnnnnnn",
"nnnnnnnnnnnnnnnnnnnnnnnnnnnMMnnnnnnnnnnnnnnnnnnnnn",
"nnnnnnnnnnnnnnnnnnnnnnnnnnn0ynnnnnnnnnnnnnnnnnnnnn",
"nnnnnnnnnnnnnnnnnnnnnnnnnnnsxMMnnn6nnnnnnnnnnnnnnn",
"nnnnnnnnnnMnnnnnnnnnnnnnnnnsxgynnbMnnnnnnnnnnnnnnn",
"nnnnnnnnnM8nnnnnnnnnnnnnnnnyzxsnMn88nnnnnnnnnnnnnn",
"nnnnnnnnnwx0nnnnnnnnnnnnnnnskxscnBzynnnnnnnnnnnnnn",
"nnnnnnnnnwz0nMnnnnnnnnnnnnn8rke3qalrnnnnnnnnnnnnnn",
"nnnnnnnnnwx0nMM                      Xnnnnnnnnnnnn",
"nnnnnnnnnwx8MlB                      Xccmmcmnnnnnn",
"nnnnnnnnnwxB;$OSDDDDDDDDDDDDDDDDSCSSA=XXmmmmnnnnnn",
"nnnnnnnnn8kBo  YTTTTTTTTTTTTTTTTTTTTYD  nnmcnnnnnn",
"nnnnnnnnn80Bo  YTTTTTTTTTTTTTTTTTTTTYD  nnnnnnnnnn",
"nnnnnnnnnn  ,JJYTTTTTTTTTTTTTTTTTTTTTTTY..Xnnnnnnn",
"nnnnnnnnnn  >LJYTTTTTTTTTTTTTTTTTTTTTTTT .Xnnnnnnn",
"nnnnnnnnnn  1IITTTTTTTTTTTTTTTTTTTTTTTTT  Xnnnnnnn",
"8nnnnnnnnn  STTTTTTTTTTTTTTTTTTTTTTTTTTT  Xnnnnnnn",
"syMnnnnnnn  AYTTTTTTTTTTTTTTTTTTTTTTTTTT  Xnnnnnnn",
"dyqMnnnnnn  SYTTTTTTTTTTTJJJJJJJJJJJJITT  Xnnnnnnn",
"MrgBnnnnnn  SYTTTTTTTTTTTJJJJJJJJJJJJITT  Xnnnnnnn",
"ayqMnnnnnn  1IISDDDDTTUIIJJJJJJJJJJJJLII  Xnnnnnnn",
"kannnnnnnn  <JH     TTIJJJJJJJJJJJJJJJJJ  Xnnnnnnn",
"nnnnnnnnnn  <JJ     TTIJJJJJJJJJJJJJJJJJ  Xnnnnnnn",
"nnnnnnnnvn  ,HH     TTIJJJJJJJJJJJJJJFZZ  Xnnnnnnn",
"nnnnnnnnvv  ,HJ     TTIJJJJJJJJJJJJJJFZD  Xnnnnnnn",
"nnnnnnn%XXDDGJJ,,,,,IILJJJJJJJJJJJJJJFZC  Xnnnnnnn",
"nnnnnnnX  TTIJJJJJJJJJJJJJJJJJJJJJJJHFZZ  Xnnnnnnn",
"nnnnnnnX  TTIJJJJJHHJJJJJJJJJJJJJJJJHFZC  Xnnnnnnn",
"nnnnnnnX  TTIJJTYKZZZZFJJJJJJJJJFZZZZ*  bbvnnnnnnn",
"nnnnnnnX  TTIJJTYKCCZZFHJJJJJJHJFZZZZ*  nnnnnnnnnn",
"nnnnnnn%XXDD1,,DA<****VFFFFFFF,,=****&XXnMnnnnnnnn",
"nnnnnnnnnn          ..*ZZZZZZZ       obvBqnnnnnnnn",
"nnnnnnnnnn           .*ZZZZZZZ       obbslnnnnnnnn",
"nnnnnnnnnnnnnnn .*ZZZZZZZJJJJJCC*....+pnslnnnnnnnn",
"nnnnnnnnnnnnnnn .*ZZZZZZZJJJJJZC*....@fnslnnnnnnnn",
"nnnnnnnnnnnnnnn .<KKFFV**IIIII*****. @fnulvnnnnnnn",
"nnnnnnnnnnnnnnn .STTHJ,. TTTTY  *ZS  $fnBwnnnnnnnn",
"nnnnnnnnnnnnnnn .STTJJ,  TTTTY  *ZZ. @annnnnnnnnnn",
"nnnnnnnnnnnnnnn .*ZZZS*  TTTTT  *ZZ. oMnnnnnnnnnnn",
"nnnnnnnnnnnnnnn .*ZZZZ*  TTTTT  *ZZ  Xnnnnnnnnnnnn",
"nnnnnnnnnnnnnnnXo&**FFA,<DDDDD,,=**oX%nnnnnnnnnnnn",
"nnnnnnnnnnnnnnnnnX  JJJJJ     JJ>  bbnnnnnnnnnnnnn",
"nnnnnnnnnnnnnnnnnX  JJJJJ     JJ,  bnnnnnnnnnnnnnn"
};
