/* XPM */
static char *result[] = {
/* columns rows colors chars-per-pixel */
"50 50 182 2 ",
"   c #45283C",
".  c #4D2C39",
"X  c #512E38",
"o  c #563136",
"O  c #5C3334",
"+  c #623732",
"@  c #653932",
"#  c #5C4337",
"$  c #483542",
"%  c #5F3F45",
"&  c #53394A",
"*  c #3F6F4D",
"=  c #3E734E",
"-  c #424443",
";  c #414D45",
":  c #6C4642",
">  c #6F5255",
",  c #407750",
"<  c #437C54",
"1  c #477A59",
"2  c #4A7C59",
"3  c #6E626E",
"4  c #7B6D77",
"5  c #746D7D",
"6  c #826661",
"7  c #81706F",
"8  c #82767F",
"9  c #468459",
"0  c #4A815A",
"q  c #498A5D",
"w  c #5A8C5C",
"e  c #59975B",
"r  c #5D9D5D",
"t  c #619F5C",
"y  c #64A15A",
"u  c #7AB055",
"i  c #7FB35F",
"p  c #4E8262",
"a  c #4B8E60",
"s  c #558464",
"d  c #58866F",
"f  c #568C68",
"g  c #4D9262",
"h  c #519461",
"j  c #559860",
"k  c #55956B",
"l  c #58996C",
"z  c #5A8B71",
"x  c #5A9773",
"c  c #5D9B75",
"v  c #628D6F",
"b  c #618D79",
"n  c #679775",
"m  c #639F76",
"M  c #6E967A",
"N  c #639D7D",
"B  c #729E7F",
"V  c #6AA567",
"C  c #6BA666",
"Z  c #76AC6B",
"A  c #7DB16E",
"S  c #63A076",
"D  c #6BA573",
"F  c #6FA67F",
"G  c #7DB07C",
"H  c #85B66C",
"J  c #737F88",
"K  c #887C81",
"L  c #6A9384",
"P  c #679881",
"I  c #7A9F85",
"U  c #739B8F",
"Y  c #7F8B9A",
"T  c #789E91",
"R  c #6CA488",
"E  c #78A987",
"W  c #71A48B",
"Q  c #7AAD89",
"!  c #76A493",
"~  c #74A992",
"^  c #7EA29A",
"/  c #7CAD9C",
"(  c #9B8C89",
")  c #959A9E",
"_  c #82AE8F",
"`  c #90BC82",
"'  c #85A690",
"]  c #86A991",
"[  c #84B392",
"{  c #8DB599",
"}  c #92B09B",
"|  c #92BC9D",
" . c #8994A9",
".. c #929AA3",
"X. c #939DB0",
"o. c #84A7A5",
"O. c #84B2A5",
"+. c #8BB4AD",
"@. c #98B4A6",
"#. c #9EBAA6",
"$. c #98BDB5",
"%. c #95B4BB",
"&. c #A8A2A2",
"*. c #A6BBAC",
"=. c #A5A9B1",
"-. c #AAADB1",
";. c #A1B7B1",
":. c #A4BEBC",
">. c #B2B2B2",
",. c #B8B4B6",
"<. c #BCBCBC",
"1. c #9AC189",
"2. c #A0C78B",
"3. c #ABCD95",
"4. c #9BC1A6",
"5. c #9FC4B0",
"6. c #A4C5AC",
"7. c #BAD5AB",
"8. c #ABC2B1",
"9. c #A6C8B0",
"0. c #AAC5BD",
"q. c #B0C6BC",
"w. c #B5CBBD",
"e. c #CDE1BF",
"r. c #9BBDC2",
"t. c #A9BBCA",
"y. c #A9C9C3",
"u. c #A7C7C9",
"i. c #B9C6CD",
"p. c #B1CDC8",
"a. c #BCD6C4",
"s. c #BAD4C9",
"d. c #A7C1D0",
"f. c #ACC9D5",
"g. c #B5CAD1",
"h. c #BCCDD2",
"j. c #B5C9DB",
"k. c #B9CBDD",
"l. c #BDD5D3",
"z. c #BCCEE7",
"x. c #BECFEA",
"c. c #BBD1E9",
"v. c #C4C4C4",
"b. c #CACACA",
"n. c #C5D8C7",
"m. c #C4CFD5",
"M. c #C6D4D7",
"N. c #CFDCD3",
"B. c #D3D7D7",
"V. c gray86",
"C. c #D2E4C9",
"Z. c #CCE0D7",
"A. c #D3E4D8",
"S. c #DBE5DE",
"D. c #E3EEDE",
"F. c #C5D9E0",
"G. c #CCDAE6",
"H. c #C5D4E8",
"J. c #CADCEA",
"K. c #D6DDE2",
"L. c #D8DFE3",
"P. c #C5D7F4",
"I. c #CCDBFC",
"U. c #DBE6E9",
"Y. c #DAE6F3",
"T. c #D4E1FD",
"R. c #D9E4FD",
"E. c #DEE8FD",
"W. c #E5E3E4",
"Q. c #E6EDEA",
"!. c #EAEEEB",
"~. c #E9F2EC",
"^. c #E0EBF5",
"/. c #E4ECFD",
"(. c #E8EFFD",
"). c #EEF1F3",
"_. c #ECF2FE",
"`. c #F3F5F4",
"'. c #F5F9F5",
"]. c #F2F6FE",
"[. c #F6F9FE",
"{. c #FFFFFF",
/* pixels */
"{.{.{.{.{.{.{.{.{.{.{.{.{.{.{.T.[.T.{.{.{.{.{.{.[.(.T./.[.{.{.{.{.{.{.{.{.{.{.{.{.{.{.].E.(.(.{.{.{.",
"{.{.{.{.{.{.{.{.{.{.{.{.{.{.{.T.[.E.{.{.] 4.(.{.[._._.[.{.{.{.{.{.{.{.{.{.{.{.{.{.{.{.].E._.].{.{.{.",
"].{.{.{.{.{.{.{.{.{.{.{.{.{.{.T.[.{.{.} 9 Z R.{.{.{.{.{.{.{.{.{.{.{.{.{.{.{.{.{.{.{.{.].E.{.{.{.{.{.",
"/.{.{.{.{.{.{.{.{.{.{.{.{.{.{./.{.{.{.s A.D._.M.` a.{.{.{.{.{.{.{.{.{.{.{.{.{.{.{.{.{.[._.{.{.{.{.{.",
"(.(._.{.{.{.{.{.{.{.{.{.{.{.{.{.{.{.I N.{.I.l.C r 7./.[.{.{.{.[./.{.{.{.{.{.{.{.{.{.{.{.{.{.{.{.{.{.",
"_._.].{.{.{.{.{.{.{.{.{.{.{.{.{.{.' a g I.j u 3._.I./ f.].{.{.{.t.' {.{.{.{.{.{.{.{.{.{.{.{.{.{.{.{.",
"{.{.{.{.{.{.{.{.{.{.{.{.{.{.{.{.{.{.| j g H D A V r l S A.[.z.d.= _ {.{.{.{.{.{.{.{.{.{.{.{.{.{.{.{.",
"{.{.{.{.{.{.{.{.{.{.{.{.{.{.{.{.Q.Q.[.` r N.].].l.Q Z.[._.j.= = = I Q.{.{.{.{.{.{.{.{.{.{.{.{.{.{.{.",
"{.{.{.{.{.{.{.{.{.{.{.{.{.{.{.{.0.l.T.p.u w %.%.:.w.0.%.r.p = = , = #.{.{.{.{.{.{.{.{.{.{.{.{.{.{.{.",
"{.{.{.{.{.{.{.{.{.{.{.{.{.{.{.{.h.r.0.i u y < 9 < < < < q g g 9 s M #.{.{.{.{.{.{.{.{.{.{.{.{.{.{.{.",
"{.{.{.{.{.{.{.{.{.{.{.{.{.{.{.N.n _ 7.C u h r g F 9.9.9.9.9.9.6.q.:.M N.{.{.{.{.{.{.{.{.{.{.{.{.{.{.",
"{.{.{.{.{.{.{.{.{.{.{.{.{.{.N.n { ~.{.n.e.h G a.A.{.{.{.{.E.} E.F.P = v N.{.{.{.{.{.{.{.{.{.{.{.{.{.",
"{.{.{.{.{.{.{.{.{.{.{.{.{.{.w.9 y.R.R.[.{.j.a.Q Q u._.{./.U g b N = = ' `.{.{.{.{.{.{.{.{.{.{.{.{.{.",
"{.{.{.{.{.{.{.{.{.{.{.{.{.{.w.9 N R R J.R.W F g g c p.R.^ 9 < a < 9 = #.{.{.{.{.{.{.{.{.{.{.{.{.{.{.",
"{.{.{.{.{.{.{.{.{.{.{.{.{.{.`.!.[ g < x 2 g g g g g k c k g a g 9 , = #.{.{.{.{.{.{.{.{.{.{.{.{.{.{.",
"{.{.{.{.{.{.{.{.{.{.{.{.{.{.{.{.| g g < a < q < g g a g g g g a < 9 2 2 8.{.{.{.{.{.{.{.{.{.{.{.{.{.",
"{.{.{.{.{.{.{.{.{.{.{.{.{.{.{.{.3.r g g = q < 9 < 9 9 g g a S S k s 8.8.2 N.{.{.{.{.{.{.{.(.T.T.T.{.",
"{.{.{.{.{.{.{.`.{.{.{.{.{.].E.{.9.A r g g < = = = < < q g E {.~.4.[.].].' N.{.{.{.{.{.{.{.{.{.[.[.[.",
"{.{.{.{.{.{.).i.!.{.{.{.{.U.g.[.{.a.C r g g f ' _ ' { l g ~.{.{.[.U.r.%.z } `.{.{.{.{.{.{.{.{.(.R.R.",
"W._.].{.{.{.K.L.M.{.{.{.{.N.d m.{.{.a.C y 6.s./././.[.a.9.`.{./.G.W q < , = !.{.{.{.{.{.{.{.{.{.{.{.",
"z.I._.{.{.{.{.B.[.{.{.{.!.' d g.(.].{.w.7.'.5.+.o.o.M./././.Y.o.T 9 9 < = = } `.{.{.{.{.{.{.{.{.{.{.",
"P.H.{.{.{.{.{.{.{.{.{.`.#.w.h.r.U g.E.E.E.J.g a 9 1 z U U U L = 9 9 9 < < = = Q.{.{.{.{.{.{.{.{.{.{.",
"t.H.E._.{.{.{.{.{.{.{.Q.M {.[.@.= d b b n N g g g a q < = = q q < 9 ] ] = = = Q.{.{.{.{.{.{.{.{.{.{.",
"!./.I.T._.{.{.{.{.{.{.!.b E.{.`.1.e a a a g g g g g g g a a g g E ~.'.Y.L = = Q.{.{.{.{.{.{.{.{.{.{.",
"{.{.[.[.[.{.{.{.{.[./.Q.= U /.{.'.2.j g g g g g g g g g g g S ~.~.{.(.+.1 = = Q.{.{.{.{.{.{.{.{.{.{.",
"{.{.{.{.{.{.{.{.{.{.].G.= < ~ c.^.[.~.m c {.{.{.{.Y.~ g g g c.c.c.c.^ = 0 f Q.{.{.{.{.[.[.[.{.{.{.{.",
"{.{.{.{.{.{.{.{.{.[./.w.= = < q +.f.N g f.]._.].Y./ g g g g q q = 9 = = s A.j.).{.{.{.[.R.I./.).{.{.",
"{.{.{.{.{.{.{.{.{.{.{.= = = = < q q q g g f.f.f.O.g g g g g = < < 0 M M M.k.2 n.{.{.{.{.]./.H.j.M.{.",
"{.{.{.{.{.{.{.{.{.{.{.2 M = < < 9 < < [ | g g g g g g g g g g g c a.U.a.y.d = = {.{.{.{.{.{.G.x.t.`.",
"{.{.{.{.{.{.{.{.{.{.{.s ~.*.[ q _ $.+.`.{.9.9.9.Q 9 9 9 g t C 9.a.[.5.q 9 = = = K.{.{.{.{.].I.H.m.`.",
"{.{.{.{.{.{.{.{.{.{.{.s {.{.~._ B U U Y.E./.S.' M = = 9 6.C.C.E.M.{ z < = = = = K.m.{.{.{.[.(.U._.{.",
"E.{.{.{.{.{.{.{.{.{.{.s (.{.{.9.< = = L U T I < P %.%.%.J.E.R.I.P.! = < 9 , = = m.K.{.{.{.{.{.{.{.{.",
"[.{.{.{.{.{.{.{.{.{.{.s T.{.].H.W < = = = = = = s z P z z L z b b s a a g q , = ).{.{.{.{.{.{.{.{.{.",
"T.T./.{.{.{.{.{.{.{.{., / E.{.[.`.[ < = = = = = = = = p a a m Q.Q.!.^.U.~ g , , {.{.{.{.{.{.{.{.{.{.",
"{.{.{.{.{.{.{.{.{.{.{., g R I./.{.{.{.S a g Q {.a.g g g g ~.{.{.].I.6.y g g , = {.{.{.{.{.{.{.{.{.{.",
"{.{.{.{.{.{.{.{.{.{.{.Q.0 a r | c./ c g g Q.c.c.J.~.[ a.G.c.c.c.u.g a a < = = s {.{.{.{.{.{.{.{.{.{.",
"{.{.{.{.{.{.{.{.{.{.{.{.S.v = < q +.f.k g g a a a a g g g g g g a q < = = = v `.{.{.{.{.{.{.{.{.{.{.",
"{.{.{.{.{.{.{.{.{.{.{.{.{.Q.M = = < 9 a g g a 9 = < q 9 9 9 9 9 9 = = = = W `.{.{.{.{.{.{.{.{.{.{.{.",
"{.{.{.{.{.{.{.{.{.{.{.{.{.{.N.] s = = 9 9 9 9 = = = = = = = = = = = = = M S.{.{.{.{.{.{.{.{.{.{.{.{.",
"{.{.{.{.{.{.{.{.{.{.{.{.{.{.{.{.n.#.f = = = = * ; ; ; ; ; = 2 #.#.#.#.#.S.{.{.{.{.{.{.{.{.{.{.{.{.{.",
"{.{.{.{.{.{.{.{.{.{.{.{.{.{.{.{.{.`.;.2 = = - .           *.b.{.{.{.{.{.{.{.{.{.{.{.{.{.{.{.{.{.{.{.",
"{.{.{.{.{.{.{.{.{.{.{.{.{.{.{.{.{.i.V.;.N.# O O o X . o . W.{.{.{.{.{.{.{.{.{.{.{.{.{.{.{.{.{.{.{.{.",
"{.{.{.{.{.{.{.{.{.{.{.{.{.{.{.{.{.).m.{.{.@ @ @ O X X + . ,.b.{.{.{.{.{.{.{.{.{.{.{.{.{.{.{.{.{.{.{.",
"{.{.{.{.{.{.{.{.{.{.{.{.{.{.{.{.{.B.,.<.<.@ @ @ @ @ X O . & >.<.<.<.V.{.{.{.{.{.{.{.{.{.{.{.{.{.{.{.",
"{.{.{.{.{.{.{.{.{.{.{.{.{.{.{.B.>.>.>.&.@   @ @ @ @ X O .   &.>.>.>.>.>.V.{.{.{.{.{.{.{.{.[._._._.{.",
"{.{.{.{.{.{.{.{.{.{.{.{.{.{.V.-.>.>.>.> & & @ @ @ @ X O .   : &.>.>.>.>.>.W.{.{.{.{.{.{.{.`.(.(./.{.",
"{.{.{.]._.{.{.{.{.{.{.{.{.!.>.>.>.>.-.=.>.8 @ O X + .     . > 6 =.>.>.>.>.>.`.{.{.{.{.{.{.{.{._.E.E.",
"{.{.{._./.{.{.{.{.{.{.{.{.'.v.>.>.>.-.X...@ O X . .       X ( >.X.>.>.>.>.b.{.{.{.{.{.{.{.{.{._._._.",
"h.[./.(.(.{.{.{.{.{.{.{.{.{.).v.>.>.&.Y  .@ 3 4 4 4 4 4 4 $ % -.X.-.>.>.b.`.{.{.{.{.{.{.{.{.{.K.).{.",
").]./._./.{.{.{.{.{.{.{.{.{.{.!.B.v.>.) J 7 -.>.>.>.>.>.>.K 5 =.X.>.v.V.`.{.{.{.{.{.{.{.{.{.{.`.i.`."
};
