/* XPM */
static char *result[] = {
/* columns rows colors chars-per-pixel */
"50 50 106 2 ",
"   c #366745",
".  c #3A6646",
"X  c #376846",
"o  c #3B6B45",
"O  c #3B6A49",
"+  c #3E744E",
"@  c #41674C",
"#  c #43694E",
"$  c #4A6F4A",
"%  c #467241",
"&  c #497541",
"*  c #53744A",
"=  c #476851",
"-  c #4E6856",
";  c #556A5B",
":  c #5A6A5E",
">  c #467053",
",  c #427C53",
"<  c #626C5E",
"1  c #5C6A61",
"2  c #5A7163",
"3  c #5C7B66",
"4  c #646A65",
"5  c #676A69",
"6  c #6A6B6C",
"7  c #65746B",
"8  c #6A746E",
"9  c #6F6E70",
"0  c #706F71",
"q  c #6D7272",
"w  c #6E7B74",
"e  c #727275",
"r  c #767579",
"t  c #79767C",
"y  c #747B7C",
"u  c #7B797E",
"i  c #448157",
"p  c #468459",
"a  c #48875B",
"s  c #4A8B5D",
"d  c #588C57",
"f  c #55955E",
"g  c #5A9259",
"h  c #57995F",
"j  c #5A9B5E",
"k  c #619E5D",
"l  c #6FA957",
"z  c #65A25B",
"x  c #6CA45A",
"c  c #6FA958",
"v  c #75AC56",
"b  c #79AF56",
"n  c #74AA5A",
"m  c #7AB055",
"M  c #4D8F61",
"N  c #548764",
"B  c #518D64",
"V  c #5B8C6B",
"C  c #4D9262",
"Z  c #519362",
"A  c #5E9C62",
"S  c #55946B",
"D  c #58956E",
"F  c #5B9770",
"G  c #5E9875",
"H  c #619E60",
"J  c #6D8677",
"K  c #678873",
"L  c #74837C",
"P  c #659A7D",
"I  c #689A7F",
"U  c #7D7B81",
"Y  c #837D86",
"T  c #857F88",
"R  c #7E8184",
"E  c #7E868B",
"W  c #699B80",
"Q  c #719E89",
"!  c #7F9591",
"~  c #7B9D92",
"^  c #7DA297",
"/  c #85828B",
"(  c #88878F",
")  c #868790",
"_  c #888790",
"`  c #858C92",
"'  c #898A93",
"]  c #8C8F98",
"[  c #879298",
"{  c #8D949C",
"}  c #859B99",
"|  c #8A9A9E",
" . c #90969F",
".. c #8BAA9D",
"X. c #8F96A0",
"o. c #8D9BA2",
"O. c #929DA6",
"+. c #939FA8",
"@. c #86A5A0",
"#. c #89A6A3",
"$. c #95A3AC",
"%. c #93AAAC",
"&. c #97A6B0",
"*. c #98A6B0",
"=. c #97A8B1",
"-. c #9AACB5",
/* pixels */
"C C C C C C C C C C C C C C C C C C C C C C C C C C C C C C C C C s i p p i p C C C C C C C C C C C ",
"C C C C C C C C C C C C C C C C C C C C C C C C C C C C C C C C C s , p s , , C C C C C C C C C C C ",
"C C C C C C C C C C C C C C C C C C C C C C C C C C C C C C C C C s a p , a s C C C C C C C C C C C ",
"C C C C C C C C C C C C C C C C C C C C C C C C C C C C C C C C C C C p i C C C C C C C C C C C C C ",
"C C C C C C C C C C C C C C C C C C C C C C C C C C C C C C C C C C C s a C C C C C C C C C C C C C ",
"C C C C C C C C C C C C C C C C C C C C C C C C C C C C C C C C C C C C C C C C C C C C C C C C C C ",
"C C C C C C C C C C C C C C C C C C C C C C C C C C C h C C C C C C C C C C C C C C C C C C C C C C ",
"C C C C C C C C C C C C C C C C C C C C C C C C C C j z h C C C C C C C C C C C C C C C C C C C C C ",
"C C C C C C C C C C C C C C C C C C C C C C C C C C z v z Z Z C C C C C C C C C C C C C C C C C C C ",
"C C C C C C C C Z Z C C C C C C C C C C C C C C C C z v v z j C C C Z Z C C C C C C C C C C C C C C ",
"C C C C C C C f h C C C C C C C C C C C C C C C C C z v m l j C C Z Z C C C C C C C C C C C C C C C ",
"C C C C C C Z z v h C C C C C C C C C C C C C C C h z n b l j C f k b k C C C C C C C C C C C C C C ",
"C C C C C C Z z v h C C C C C C C C C C C C S S P ......n l g f z x n H C C C C C C C C C C C C C C ",
"C C C C C C Z z b h C C f C C C C C C S S C C F W -.-.%...l d d c m n A C C C C C C C C C C C C C C ",
"C C C C C C C z b h f l j Z C C C C S ^ %.%.%.-.%.-.-.-.-.%.#.%.%.%.%.%.#.P C C C C C C C C C C C C ",
"C C C C C C Z z v h Z m z f C C C D G @.-.-.-.-.-.-.-.-.-.-.-.-.-.-.-.-.=.W C C C C C C C C C C C C ",
"C C C C C C Z z l h f m z Z C C G Q -.-.-.-.-.-.-.-.-.-.-.-.-.-.-.-.-.=.&.W M C C C C C C C C C C C ",
"C C C C C C Z j z h Z b z Z Z D W ^ -.-.-.$.+.+.+.+.$.-.-.-.-.-.-.&.X.O.X.W V S M C C C C C C C C C ",
"C C C C C C C Z h Z Z v z Z D I -.-.-.-.*._ Y T T T  .-.-.-.-.-.*.+.6 e Y U U V M C C C C C C C C C ",
"C C C C C C C C C C f z k S ~ ~ X.{ | o. ./ Y Y T T '  . .X.X.X.] T 6 9 r U Y J K C C C C C C C C C ",
"C C C C C C C C C C C C S S =.+.Y Y Y T Y T Y T T Y T Y T Y T Y Y U 5 6 6 U Y U / C Z C C C C C C C ",
"C C C C C C C C C C C C S D &.O.T Y T Y T Y Y T T T Y T Y T T T Y U 5 5 5 9 e U Y L J C C C C C C C ",
"C C C C C C C C C C C C D D *.O.Y T Y T Y T Y Y Y T T Y Y Y Y T Y U 5 6 5 6 6 U Y R R C C C C C C C ",
"C C C C C C C C Z C S S } $./ ) T Y T Y T Y T Y Y Y Y T Y Y Y Y 6 6 5 6 6 6 6 9 6 U L C C C C C C C ",
"Z C C C C C C C S D G G #.-.) / T T T Y Y Y Y Y T Y Y T Y Y Y Y 5 5 6 9 q r w 6 5 R L C C C C C C C ",
"j f C C C C Z S ^ -.-.-.-.-.-.+.T T T T Y Y Y Y Y T Y T T Y Y Y 6 5 9 E -.=.$.U 6 5 7 C C C C C C C ",
"h f C C C C S W #.-.-.-.-.-.-.=.] ' ' T Y Y Y U Y Y Y Y Y Y Y Y 6 6 9 ) -.-.=.E y q 7 C C C C C C C ",
"C C C C C S W -.-.-.-.-.-.-.-.-.-.-.*.] Y Y U 6 0 Y Y Y Y Y Y Y 6 6 q R -.-.-.&.%.R R C C C C C C C ",
"C C C C C S W -.-.-.-.-.-.-.-.-.-.-.&.) r r r 6 0 T Y Y Y Y Y Y 6 5 0 U { X.{ ` E r w C C C C C C C ",
"C C C C C S W -.-.-.-.-.-.-.-.-.-.-.-.U 9 9 9 6 e Y Y Y Y Y U Y 5 6 6 r T Y U 9 6 8 7 C C C C C C C ",
"C C C S C S W -.-.-.-.&.] ' ] X.-.-.-.+.X.X.{ 0 e Y Y Y Y Y 0 6 6 5 6 r T Y U r q o.~ C C C C C C C ",
"C C C C C S W -.-.-.&.&.) Y ) { -.-.-.-.*.*.*.0 e Y Y Y Y Y 0 6 5 6 6 e Y Y U r w =.#.C C C C C C C ",
"C C C S S #.{ / / / Y Y y q &.&.-.*.*.) r $.-.+.[ e E +._ Y 9 5 5 6 6 t Y / / +.$.%.#.C C C C C C C ",
"C C C C S +.O.T T T Y Y e 9 *.*.*.+.+.U 9 | *.&.O.r E +.T Y 9 6 6 6 r U ) ) ' +.*.%.#.C C C C C C C ",
"C C C C S Y Y T T T Y U 0 9 T Y Y Y Y e 6 U ) -.=.&.` 9 t Y 0 6 9 r &.-.=.&.&.' T %.#.M C C C C C C ",
"C C C S V T Y Y Y Y Y Y 0 6 Y T Y Y Y r 6 U T +.O.[ E 6 t Y r 0 r U +.+.X.X.X.Y U [ ! N B C C C C C ",
"C C C C S Y Y Y Y Y Y Y 0 9 Y Y Y Y Y 0 6 t Y Y r 5 6 6 U Y T Y U T U U 5 5 5 5 5 5 9 2 3 C C C C C ",
"C C C C S Y Y Y Y Y U Y 0 9 Y T T Y Y t t Y Y Y U 9 0 t Y Y Y T T T Y U r 9 5 6 5 6 6 5 3 C C C C C ",
"C C C C B Y Y Y Y T Y U 0 6 Y Y Y Y Y T Y T Y Y t 6 r Y Y Y Y Y T Y T Y Y 9 6 6 6 5 6 5 3 C C C C C ",
"C C C C M e r Y Y Y r 0 9 9 0 r Y Y T Y T Y T Y U U t 0 U Y Y T T T Y Y Y U t 6 6 5 6 5 3 C C C C C ",
"C C C C B 6 e U Y U e 9 6 6 6 q Y Y Y Y Y T T Y Y Y u 9 u / T T T T Y Y Y Y Y 0 6 5 5 4 3 C C C C C ",
"C C C B M 5 5 9 9 0 [ $.+.+.6 9 9 t Y Y T Y Y T Y U u q { *.*.*.+.X.Y Y Y 0 6 6 5 4 < O , C C C C C ",
"C C M M M 4 4 5 6 9 [ &.=.=.q q 6 0 Y Y Y T Y T Y Y U y o.-.$.&.$.O.Y Y Y 0 5 5 5 < : . , C C C C C ",
"C C B M M . # 5 6 6 U R $.=.$.X.6 5 6 t T Y T Y T / { -.&.&.( Y Y U 6 0 Y 0 5 4 4 % . . , C C C C C ",
"C C C M M + = 2 1 2 8 y [ +.[ E 5 5 6 t Y Y Y T / ] X.+.O.O.Y u t t 5 0 y 6 5 : ; o o + , C C C C C ",
"C C C C C M p X X X X O w U 6 6 5 5 6 t Y Y Y / ' &.{ Y Y U 9 5 4 5 5 5 5 4 4 @   O + C C C C C C C ",
"C C C C C M M , + , + X ; 2 - - - - ; 6 e e r r y E U r e e 5 4 - - - - - - - O X , i C C C C C C C ",
"C C C C C C C C C M + X X X X X     . : 5 5 5 5 5 5 5 5 5 5 4 4       . X X X O O C C C C C C C C C ",
"C C C C C C C C C M M M i p p + O O o $ * $ > # # # # # # # # #     X + a a a a a C C C C C C C C C ",
"M C C C M C C C C C M M C M M i X O % & % & & o X X X X X X X X     O , C C C C C C C C C C C C C C "
};
