/* XPM */
static char *_d52238c999e4176a94db2481ec93070KlxUGiAWcxNdr4t2[] = {
/* columns rows colors chars-per-pixel */
"32 32 202 2 ",
"   c #3E2A12",
".  c #342120",
"X  c #33302E",
"o  c #3F2F3D",
"O  c #33383B",
"+  c #483419",
"@  c #553A16",
"#  c #583A1B",
"$  c #643E1D",
"%  c #471D2F",
"&  c #453622",
"*  c #553626",
"=  c #512A32",
"-  c #49353A",
";  c #5D4119",
":  c #62441A",
">  c #6B431D",
",  c #6C481E",
"<  c #72491F",
"1  c #7B4A1F",
"2  c #5A4029",
"3  c #4F4331",
"4  c #564436",
"5  c #564C3F",
"6  c #6B4B25",
"7  c #64482D",
"8  c #734A21",
"9  c #7E4D23",
"0  c #7D522C",
"q  c #664F37",
"w  c #6B4B39",
"e  c #675439",
"r  c #785731",
"t  c #7D613C",
"y  c #4F3243",
"u  c #643651",
"i  c #723552",
"p  c #753A55",
"a  c #344046",
"s  c #3B4951",
"d  c #544D4B",
"f  c #534354",
"g  c #5C4C5D",
"h  c #5E595B",
"j  c #644F44",
"k  c #6A5449",
"l  c #6A4158",
"z  c #774758",
"x  c #7F644D",
"c  c #696359",
"v  c #706352",
"b  c #4F5C64",
"n  c #684F64",
"m  c #7C4765",
"M  c #695A69",
"N  c #725368",
"B  c #55636B",
"V  c #596A74",
"C  c #696661",
"Z  c #797775",
"A  c #834E24",
"S  c #845127",
"D  c #8B5126",
"F  c #86552A",
"G  c #8D532A",
"H  c #895B2F",
"J  c #93542A",
"K  c #965A2E",
"L  c #855933",
"P  c #895D33",
"I  c #925E32",
"U  c #995D32",
"Y  c #8F6637",
"T  c #87633C",
"R  c #8B6539",
"E  c #9B6135",
"W  c #91663B",
"Q  c #9E6A3C",
"!  c #A26B3D",
"~  c #8A5E42",
"^  c #844D54",
"/  c #855F55",
"(  c #8B6844",
")  c #916944",
"_  c #996C45",
"`  c #9B7347",
"'  c #9B7249",
"]  c #8A6C55",
"[  c #8C7152",
"{  c #977655",
"}  c #A57344",
"|  c #A67848",
" . c #AC7C4B",
".. c #A77757",
"X. c #AE7C53",
"o. c #874B68",
"O. c #894F70",
"+. c #875472",
"@. c #935579",
"#. c #9A577B",
"$. c #897163",
"%. c #967E67",
"&. c #916871",
"*. c #83747D",
"=. c #95717C",
"-. c #AF804F",
";. c #AC8453",
":. c #A6835A",
">. c #B28453",
",. c #B48856",
"<. c #B58C59",
"1. c #B98E5C",
"2. c #B7905C",
"3. c #BA925E",
"4. c #9B8465",
"5. c #A3866A",
"6. c #A98C6A",
"7. c #B48967",
"8. c #BD9562",
"9. c #BE9863",
"0. c #BB9069",
"q. c #A28A75",
"w. c #BA9173",
"e. c #C19B66",
"r. c #C39D6B",
"t. c #C6A16D",
"y. c #C9A573",
"u. c #CCA976",
"i. c #CFAC7A",
"p. c #D1AF7D",
"a. c #D2B07F",
"s. c #966884",
"d. c #897D86",
"f. c #AC7395",
"g. c #B0779C",
"h. c #B379A2",
"j. c #828281",
"k. c #8C8B8C",
"l. c #988D81",
"z. c #9F8492",
"x. c #919496",
"c. c #AB9A88",
"v. c #BB9D84",
"b. c #B49388",
"n. c #BA8B9F",
"m. c #AFA28F",
"M. c #B1A391",
"N. c #BBAE9F",
"B. c #A8A7A8",
"V. c #B5A5AC",
"C. c #BDB2A3",
"Z. c #BEAAB3",
"A. c #BAB9B0",
"S. c #C39B81",
"D. c #C9A289",
"F. c #D3A88D",
"G. c #D4B382",
"H. c #DBBC8D",
"J. c #C7AC96",
"K. c #C7AFA0",
"L. c #C4B3A4",
"P. c #CDB7A9",
"I. c #CEB8A9",
"U. c #D5B9A4",
"Y. c #C6B8BA",
"T. c #CDC6BC",
"R. c #E2C3AD",
"E. c #E6CBB6",
"W. c #EFD2BE",
"Q. c #F1D3BD",
"!. c #CAB7C2",
"~. c #C7BDC2",
"^. c #D2B7C5",
"/. c #CAC6C6",
"(. c #CDCECE",
"). c #D4CEC6",
"_. c #D2CBCA",
"`. c #D6D2CB",
"'. c #DDD1CA",
"]. c #DBC7D1",
"[. c #D4D5D5",
"{. c #DBD6D3",
"}. c #DDDAD5",
"|. c #DCD5D9",
" X c #DCDBD9",
".X c #EBD3C2",
"XX c #E2D3C9",
"oX c #F1D7C6",
"OX c #F4DCCA",
"+X c #E1DAD5",
"@X c #E2DEDD",
"#X c #E4E1DE",
"$X c #EFE1D8",
"%X c #F5E3D4",
"&X c #F9E7DB",
"*X c #E6E5E3",
"=X c #E9E8E7",
"-X c #ECECEC",
";X c #F9EAE1",
":X c #EEEFF0",
">X c #EFEFF0",
",X c #F0F1F0",
/* pixels */
"-X-X-X-X-X-X-X-X-X-X-X-X:X:X:X:X:X-X-X-X-X-X-X-X-X-X-X-X-X-X-X-X",
"-X-X-X-X-X-X-X-X,X,X=XT.C.C.L.P.P.{.-X-X:X-X-X-X-X-X-X-X-X-X-X-X",
"-X-X-X-X-X-X-X=X).q.4.Q H Y I E J | w.I.+X-X-X-X-X-X-X-X-X-X-X-X",
"-X-X-X-X-X-X-XC.T ` 2.3.3.3.3.2.} ! | | 7.'.-X:X-X-X-X-X-X-X-X-X",
"-X-X-X-X-X-XN.W ,.y.t.8.3.e.e.e.e.1. .} ,.7.XX:X-X-X-X-X-X-X-X-X",
"-X-X-X-X-X{.) ;.r.a.p.e.e.8.8.<. . .| }  .! ..U.*X-X-X-X-X-X=X-X",
"-X-X-X-X-XM.` e.e.t.G.y.e.1. . . .1.e.e.| !  . .D.@X-X-X-X-X-X-X",
"-X-X-X-X).{ <.8.,.8.t.y.e. .r.y.1.i.p.e. .! 1.u.,.K.-X-X-X-X-X-X",
"-X-X-X:Xm.F 2.-.>.9.e.t.;.8.i.1.r.G.2.` K J Q u.1.6.@X-X-X-X-X-X",
"-X-X-X:Xm.S ! E 3.e.9.>. .9.| 7.H.3.W :.0.:.R ;.R ( `.-X-X-X-X-X",
"-X-X-X:XM.A J U 2.<.} Q <.| T y.t.` J.E.$XE.' H Y r `.:X-X-X-X-X",
"-X-X-X:Xm.A J U } K 9 | | F e y.;.P J.Q.&X.X..9 F r `.:X-X-X-X-X",
"-X-X-X:XM.9 J J J 9 8 P S T e 9.W ..S.F.Q.R.X.D 1 L `.-X-X-X-X-X",
"-X-X-X*Xq.S J J S 0 ) 8 F ` q ,.0 ~ w ( R.F.U J ( [ }.-X-X-X-X-X",
"-X-X-X{.P J J J 9 2 5., Q ,.2 6 ( ] X %.E.D.K L P.).-X-X-X-X-X-X",
"-X-X-XC.H J J D >   7 A K >.t   ..A.O q.OXD.K L (.:X-X-X-X-X-X-X",
"-X-X*X[ J J J D , @ + $ G ! ` ] J._.h c.&XR._ %.@X-X-X-X-X-X-X-X",
"-X-X}.( D J J D , $ @   $ S Y v.%XoXXX$X;XoX{ b.:X-X-X-X-X-X-X-X",
"-X-Xm.S J J J 1 : : : 6 q > ) U.OXoXOX%XE.q.[ ).-X-X-X-X-X-X-X-X",
"-X`.4 A J J J < ; : : 6 w.x 5..XW.W.R.S.q @ q.-X-X-X-X-X-X-X-X-X",
"-X(.& S G J J < : : : ; * = j k k k * Z $.%.@X-X-X-X-X-X-X-X-X-X",
":X[.5 > D J J < : : # * y u u z +.&.$.(.#X X-X-X-X-X-X-X-X-X-X-X",
"-X:Xk.+ , A J < : > # p f.@.m #.o.g.n.=.[.:X-X-X-X-X-X-X-X-X-X-X",
"-X-X`.c @ < G < @ @ * p o.o.z z O.@.m s. X-X-X-X-X-X-X-X=X-X-X-X",
"-X-X:X Xc @ 9 9 q 3 # i ^ b.%.] ^ o.O.].-X-X-X-X-X-X-X-X-X-X-X-X",
"-X-X-X-X[.C + @ X j.d = w v l.E.7.^ #.^.-X-X-X-X-X-X=X-X-X-X-X-X",
"-X-X-X-X-X*XB.Z Z /.~.p = - K.U./ f.h.!.:X-X-X-X-X-X-X-X-X-X-X-X",
"-X-X-X-X-X-X,X,X:X:XV.i p % . - s.h.n k.=X-X-X-X-X-X-X-X-X-X-X-X",
"-X-X-X-X-X-X-X-X-X:XB.o g g f z.N n f O x.-X-X-X-X-X-X-X-X-X-X-X",
"-X-X-X-X-X-X-X-X-X@XM s V B B.-Xk.a V b y Z.-X-X-X-X-X-X-X-X-X-X",
"-X-X-X-X-X-X-X-X:X*X*.g M f d.:X(.h y y l Y.-X-X-X-X-X-X-X-X-X-X",
"-X-X-X-X-X-X-X-X-X:X|.!.!.!./.:X:X/.V.B.Y.-X-X-X-X-X-X-X-X-X=X-X"
};
