/* XPM */
static char *_ea1d431846a499c8ac5d0aa609d33c0cps8Lowj0R5qRbYx[] = {
/* columns rows colors chars-per-pixel */
"32 32 190 2 ",
"   c #382817",
".  c #21242B",
"X  c #362E25",
"o  c #3D3D3B",
"O  c #452F11",
"+  c #4C3313",
"@  c #563617",
"#  c #5F3E1B",
"$  c #502B21",
"%  c #463723",
"&  c #583726",
"*  c #512939",
"=  c #4C3730",
"-  c #5E411A",
";  c #62431A",
":  c #6E461D",
">  c #73491F",
",  c #594128",
"<  c #5C4333",
"1  c #5A4439",
"2  c #6B4923",
"3  c #754620",
"4  c #734A21",
"5  c #7D4D23",
"6  c #7E5327",
"7  c #7D5229",
"8  c #664D35",
"9  c #685135",
"0  c #7D5B35",
"q  c #393C47",
"w  c #5B2B40",
"e  c #413C49",
"r  c #563548",
"t  c #602E45",
"y  c #70374B",
"u  c #653D54",
"i  c #743C5A",
"p  c #42424A",
"a  c #5F4D41",
"s  c #5E5547",
"d  c #594153",
"f  c #6A5847",
"g  c #72504D",
"h  c #68485B",
"j  c #7F6543",
"k  c #6B6052",
"l  c #7B6658",
"z  c #7E4463",
"x  c #6B5767",
"c  c #785466",
"v  c #76716B",
"b  c #666B78",
"n  c #7B7878",
"m  c #834E24",
"M  c #884E24",
"N  c #865127",
"B  c #8C5126",
"V  c #8D5328",
"C  c #8A5B2F",
"Z  c #905227",
"A  c #93542A",
"S  c #96582E",
"D  c #875833",
"F  c #835D35",
"G  c #955B31",
"H  c #9B5F36",
"J  c #86603D",
"K  c #8C653A",
"L  c #8F6C3F",
"P  c #966538",
"I  c #9F6639",
"U  c #916A3D",
"Y  c #A0643F",
"T  c #A26C3E",
"R  c #8A6649",
"E  c #926C41",
"W  c #996945",
"Q  c #977349",
"!  c #886D58",
"~  c #956F57",
"^  c #8B7353",
"/  c #957353",
"(  c #967A5D",
")  c #9C7C5B",
"_  c #A47243",
"`  c #A97646",
"'  c #A47A4B",
"]  c #AB7C4C",
"[  c #A97B58",
"{  c #B47E5E",
"}  c #874968",
"|  c #86566F",
" . c #8B4D70",
".. c #904F71",
"X. c #8D5475",
"o. c #9A597C",
"O. c #81746C",
"+. c #95796E",
"@. c #866376",
"#. c #A77274",
"$. c #AC804F",
"%. c #A98352",
"&. c #B28554",
"*. c #B68C5A",
"=. c #B98F5C",
"-. c #BB925E",
";. c #9F8565",
":. c #948072",
">. c #A98567",
",. c #B58B69",
"<. c #BD9562",
"1. c #BE9864",
"2. c #A58A75",
"3. c #AD8C77",
"4. c #BE8F73",
"5. c #A5927A",
"6. c #C09A65",
"7. c #C19668",
"8. c #C39D6B",
"9. c #C6A16E",
"0. c #CAA773",
"q. c #CBA774",
"w. c #CEAB79",
"e. c #D0AD7B",
"r. c #955B80",
"t. c #A35F84",
"y. c #806C84",
"u. c #9D6588",
"i. c #927683",
"p. c #A56389",
"a. c #A06A92",
"s. c #AB749B",
"d. c #B3749E",
"f. c #B67AA2",
"g. c #B97CA6",
"h. c #928F86",
"j. c #848B9B",
"k. c #AA9B87",
"l. c #B49D8B",
"z. c #B99B8C",
"x. c #AEA08C",
"c. c #B2A28F",
"v. c #BAA998",
"b. c #BB83AF",
"n. c #AB9CA3",
"m. c #BA9FAD",
"M. c #B9AFA8",
"N. c #BBB0A1",
"B. c #B7B3B4",
"V. c #BBBCBD",
"C. c #C99D83",
"Z. c #C29E97",
"A. c #C8A38B",
"S. c #D2AA8E",
"D. c #D6B584",
"F. c #DCBC8D",
"G. c #C6AA96",
"H. c #D3B19B",
"J. c #E3B598",
"K. c #C590A9",
"L. c #CDB6A6",
"P. c #C4B2AE",
"I. c #D7B6A3",
"U. c #C5BDB1",
"Y. c #C9C1B7",
"T. c #CBC4BA",
"R. c #D6C1B2",
"E. c #E4C4AE",
"W. c #EACDB8",
"Q. c #E6D1BA",
"!. c #CEB9C4",
"~. c #CBC9C7",
"^. c #D7CEC5",
"/. c #D7D2CC",
"(. c #DBD1CB",
"). c #DBD8D8",
"_. c #ECD9CB",
"`. c #F3D9C5",
"'. c #F2DAC9",
"]. c #E1D9D4",
"[. c #E3E2DF",
"{. c #F5E1D2",
"}. c #F9E8DC",
"|. c #E2DFE0",
" X c #E5E3E3",
".X c #E8E6E4",
"XX c #E9E7E8",
"oX c #ECECEC",
"OX c #F9EAE1",
"+X c #EEEFF0",
/* pixels */
"oXoXoXoXoXoXoXoXoXoXoX+XoX Xv.k.k.c.A.v.].XXoX+XoXoXoXoXoXoXoXoX",
"oXoXoXoXoXoXoXoXoXoX[.T.5.>.K C C C S A [ 4.L.].oXoXoXoXoXoXoXoX",
"oXoXoXoXoXoXoXoXoX X;.K %.-.-.-.-.-.-.T T ` ` ,.(.oXoXoXoXoXoXoX",
"oXoXoXoXoXoXoXoX.Xk.E -.9.8.1.1.6.6.6.1.-.] ` *.,.(.+XoXoXoXoXoX",
"oXoXoXoXoXoXoXoXN.U -.0.D.w.1.1.6.-.&.] ] ] ` ] Y [ L.[.oXoXoXoX",
"oXoXoXoXoXoXoX)./ ] 1.1.w.D.0.1.-.` ] ] -.6.6.` T ] $.A..XoXoXoX",
"oXoXoXoXoXoXoXv.U -.*.-.1.9.0.-.$.8.9.7.e.e.6.$.T &.q.&.G.oXoXoX",
"oXoXoXoXoXoXoX( T -.` *.1.9.8.$.6.w.&.8.D.-.T S Z T w.1.>.(.oXoX",
"oXoXoXoXoXoXXX( Y T _ 1.1.1.$.$.1.' 1.F.<.U Q { 9.Q %.%.L U.oXoX",
"oXoXoXoXoXoXXX( V A T 1.&._ 6 ` E 0 8.w.W G.Q.W.{.>.L K F U.+XoX",
"oXoXoXoXoXoXXX( V V I ` G N > W D 9 1.<.F R.'.{.{.[ 6 N F T.+XoX",
"oXoXoXoXoXoXXX( V A S A 5 4 > 7 ' & / ' / >.A.`.W.[ 4 : 5.oXoXoX",
"oXoXoXoXoXoXoX( B A A > G ,.7 5 &.E & E R R ~ W.S.H > j /.oXoXoX",
"oXoXoXoXoXoX^.R Z A Z : ! _.) 5 I *.& - 9 X ( W.C.S N ^ XXoXoXoX",
"oXoXoXoXoXoXx.m A A B - < I.S.C S &.Q % h.p l.`.C.S N c.oXoXoXoX",
"oXoXoXoXoXoXx.m A A 6 ; + < 2.) N ` %./ ~.o +.}.I.I 6 Y.+XoXoXoX",
"oXoXoXoX+XoX5.N A A 7 ; ; O 8 ! : N P ;._.M.^.OX'.{ 7 Y.+XoXoXoX",
"oXoXoXoX+XT.J V A Z m ; ; ; 0 G.f : N ) '.'.}.{.G.W N Y.+XoXoXoX",
"oXoXoXoX+XT.N A A A N ; ; - 0 J.H.1 : [ `.`.E.3.& > ~ ].oXoXoXoX",
"oXoXoXoX+XY.2 V A A 7 ; ; ; 2 R >.!   8 2.~ l n B.^ N.+XoXoXoXoX",
"oXoXoXoX+XB.  m A A V : ; ; $ w r * r u s a B.oXoXY..XoXoXoXoXoX",
"oXoXoXoX+XV.X > N N Z 4 ; $  .g.s. ...t.K.Z.P.oXoXoXoXoXoXoXoXoX",
"oXoXoXoXoXoXn + > 5 Z 4 # g } p.z } p. .r. .| |.oXoXoXoXoXoXoXoX",
"oXoXoXoXoX+X~.s + ; Z > R I.+.* * } f.a.X.X.#.c. XoXoXoXoXoXoXoX",
"oXoXoXoXoXoXoXT.v = @ ; f k k = y t.t.i i } z.W N.oXoXoXoXoXoXoX",
"oXoXoXoXoXoXoXoXoXV.v X f c.G.a w g.g.g.d.f.o.l (.oXoXoXoXoXoXoX",
"oXoXoXoXoXoXoXoXoX+X|.V.O.S.4.1 i g.g.b.K.g.u.~.+XoXoXoXoXoXoXoX",
"oXoXoXoXoXoXoXoXoXoX+X+X~.v = u r.p.s.s.p.m.!.oXoXoXoXoXoXoXoXoX",
"oXoXoXoXoXoXoXoX+XoXoXoX+X).h.q p e b j.b n ).+XoXoXoXoXoXoXoXoX",
"oXoXoXoXXXoXoXoXXXoXoXoX+X|.h q q . d y.x h n.+XoXoXoXoXoXoXoXoX",
"oXoXoXoXoXoXoXoXoXoXoXoXXXoXB.X.@.c c c h i.).oXoXoXoXoXoXoXoXoX",
"oXoXoXoXoXoXoXoXoXoXoX+XXX+X+X XXX X.X|.]..XoXoXoXoXoXoXoXoXoXoX"
};
