/* XPM */
static char *result[] = {
/* columns rows colors chars-per-pixel */
"32 32 177 2 ",
"   c #020303",
".  c #0C0505",
"X  c #05080B",
"o  c #06080A",
"O  c #130403",
"+  c #1D0504",
"@  c #170807",
"#  c #120D0D",
"$  c #19100F",
"%  c #060E13",
"&  c #090F14",
"*  c #0C1114",
"=  c #0C151D",
"-  c #141313",
";  c #1D1313",
":  c #1A161A",
">  c #230807",
",  c #2B0907",
"<  c #240D0B",
"1  c #2D0C0A",
"2  c #320D0B",
"3  c #28110F",
"4  c #221918",
"5  c #291A1C",
"6  c #331412",
"7  c #371816",
"8  c #3C1917",
"9  c #0E1C27",
"0  c #0F1E29",
"q  c #311F24",
"w  c #12212D",
"e  c #122634",
"r  c #162B3B",
"t  c #1D2E3A",
"y  c #242323",
"u  c #2F2626",
"i  c #2C2B2B",
"p  c #2E2C33",
"a  c #2E373E",
"s  c #323333",
"d  c #3A3232",
"f  c #3B3D3D",
"g  c #43110E",
"h  c #4B110E",
"j  c #51110D",
"k  c #5B130E",
"l  c #421613",
"z  c #4E1411",
"x  c #4C1D1E",
"c  c #521512",
"v  c #5C1612",
"b  c #531A16",
"n  c #5D1A16",
"m  c #631914",
"M  c #6A1A14",
"N  c #751C16",
"B  c #791D16",
"V  c #791E18",
"C  c #64201D",
"Z  c #6A221D",
"A  c #73211C",
"S  c #412220",
"D  c #4E2D2B",
"F  c #5D2A29",
"G  c #4F3332",
"H  c #463E3E",
"J  c #4E3938",
"K  c #5B3431",
"L  c #6E2523",
"P  c #632927",
"I  c #752825",
"U  c #772C27",
"Y  c #7A2C2A",
"T  c #712F32",
"R  c #78373C",
"E  c #70383E",
"W  c #1E3A4E",
"Q  c #1E3C52",
"!  c #203B4F",
"~  c #383746",
"^  c #363C4D",
"/  c #223E53",
"(  c #2D3E51",
")  c #423E4E",
"_  c #4F3F4E",
"`  c #5B3F4A",
"'  c #663D45",
"]  c #1F425A",
"[  c #3E464B",
"{  c #264056",
"}  c #2B4155",
"|  c #224259",
" . c #394153",
".. c #444343",
"X. c #494747",
"o. c #41474C",
"O. c #4A4B4B",
"+. c #4C5358",
"@. c #4F585E",
"#. c #525353",
"$. c #5D5C5C",
"%. c #6D4947",
"&. c #7D4C48",
"*. c #6A5B5A",
"=. c #64605F",
"-. c #72605E",
";. c #5C5F60",
":. c #666668",
">. c #736D6C",
",. c #7D706F",
"<. c #686C70",
"1. c #6B7073",
"2. c #747676",
"3. c #7D7575",
"4. c #7D7D7D",
"5. c #821F18",
"6. c #84211A",
"7. c #8A211A",
"8. c #93241D",
"9. c #9A261F",
"0. c #862923",
"q. c #952720",
"w. c #9C2720",
"e. c #932923",
"r. c #9F2820",
"t. c #82302B",
"y. c #823031",
"u. c #8A3939",
"i. c #923635",
"p. c #9C3531",
"a. c #A42A22",
"s. c #AC2B23",
"d. c #AB2F28",
"f. c #B42E25",
"g. c #B92F26",
"h. c #B22F28",
"j. c #BD3027",
"k. c #B4332C",
"l. c #BE3128",
"z. c #A03430",
"x. c #C03127",
"c. c #C13128",
"v. c #876F6E",
"b. c #817574",
"n. c #857A79",
"m. c #8C7D7C",
"M. c #8A807F",
"N. c #828384",
"B. c #8D8E8F",
"V. c #978988",
"C. c #8F9191",
"Z. c #939394",
"A. c #979999",
"S. c #9B9B9B",
"D. c #A4A4A4",
"F. c #ABA5A5",
"G. c #A9A8A7",
"H. c #ACACAC",
"J. c #B3AEAD",
"K. c #B3B4B4",
"L. c #BBB7B7",
"P. c #B6B8B8",
"I. c #BCBDBD",
"U. c #C2C2C2",
"Y. c #C6C9C9",
"T. c #CBCCCC",
"R. c #CFD0D0",
"E. c #D4D4D4",
"W. c #D8D7D7",
"Q. c #D7D8D8",
"!. c #DCDCDD",
"~. c #DFE0E0",
"^. c #E5E5E5",
"/. c #EDEDED",
"(. c #F3F3F3",
"). c #F8F7F8",
"_. c #FDFDFD",
/* pixels */
"/.(.).(./.(.).(.^.(.).(././.).)././._.)././.(._././.(._.(./.(.).",
"^.)._.(.^.(._.(.^.(._.).^./._._.^.^._._./.^.)._./.^.(._.(.^.(._.",
"(.(.(.(.(.(./.(.).(./.(.).(.(./.(.)./.(.(.)./.(.(.).(./.(.(.(./.",
"_./.^.(._.(.^.(._.(.^./._._././._._./.^._._./.^.)._./.^.(._.(.^.",
"(.(.(.(.(.(.(.(.(.(.(.^.S.A.C.C.S.A.V.I.(.(.(.(.(.(.(.(.(.(.(.(.",
"^.)._./.^.(._.(.^.(./.F.8 1 2 2 2 2 , *.U.^._._./.^.(._.(.^.(._.",
"(.(.(.(./.(.(.(.(./.Z.8 s.h.h.g.f.f.h.A H Q.(.(.(.(.(.(.(.(.(.(.",
"_./.^.)._.(.^.(._.N.P a.j.j.j.j.j.j.j.f.0.H U.^.)._./.^.(._.(.^.",
"(.(.(.(.(.(.(.).).;.h c.x.l.j.j.j.j.j.j.s.A *.P.(.(.(.(.(.(.(.(.",
"/.(._./.^.R.L.J.G.%.B f.7.7.a.j.j.j.j.j.j.j.1 A.(.^.(._.(.^.(._.",
"/.(.).(.!.b.3 3 # 6.l.w.@ y U s.s.g.j.j.g.a.1 Z.(./.(.(.(./.(.(.",
"_./.^./.=.I g.9.> 6.c.9.; P.n.3 l s.j.j.r.6 . Z._._.(.^.(._.(.^.",
").(.Q.=.t.s.x.s.> 6.c.9.; T.~.I.J.K 9.7.K H.s C.).).(.(.(._.(./.",
"/.T.3.C s.j.j.g.M M 8.s.C 3.T._./.i 7.M s /...Z.(.!.Z.N.N.S.(._.",
"T.n.h h.j.d.p.z.j.h c x.g.h ,.T.L.D 9.5.G L.d Z.^.G.S , , G I.(.",
"O.b h.j.j.E ! ^ p.z v h.j.g.C ; 7 s.g.g.e.; - S.P.5 a.f.g.q.u I.",
"f h j.j.l.M % = ~ y.N l g.l.s.w.9.g.j.x.9.$ S.~.H.3 s.j.j.9.4 I.",
"f h c.l.c.k   o Q _ T N v a.c.c.c.x.c.8.m A -.Y.K.< s.j.x.9.: T.",
"N.%.6.5.6.&.O.o e Q _ y.c V 5.6.6.6.6.x q h.m v.m.n s.c.a.Y >.!.",
"_.G.i i # 4.D.i X r / ) d.2 @ + . > O 0  .p.s.M n j.j.s.A $./.^.",
"_./.E.E._ @ $.I.i r / ) d.2 m 5., 9.g w | } : N f.j.h.z ,./.(.^.",
"/.).~.*.y.5.U X.# P i.p.g.w.n v 7.c V.1.9 W & N x.f.c M.R./.(.).",
"/.R.M.Z s.c.a.k O j Y ' R A M M U b.~.T.:.t <.&.M Z 3.Q.).^.(._.",
"R.m.z f.j.j.h.i.4 . = ! Q 9 F Y p K.U.Q.W.$.T.S...=.~./.(.).(./.",
"O.b j.j.f.f.u.} { 9   * W Q | { Q : # <./.(./.^.(.)./.^.(._.(.^.",
"[ h j.f.h p  .| | Q w   * W | | W % e t #.^.(.(.(./.(.).(./.(.(.",
"f + h b n.@.e ] | e +.S.B.a r Q ( L t.x s ~._._./.^.(._.(.^.(._.",
"n.#.#.$.W.G.o.r r [ S.)./.f u ` ' k.9.g y Z.D.E.(.(.(.(.(.(.(.(.",
")./.^.(._.(.K.s s H.^./.Q.J N l.j.g.v > > < . C.)._.(.^.(._.(.^.",
"(.(.(.(.(.(./.~.!./.(.T.d e.f.j.j.k.f.s.s.a.1 Z.).(.(.(.(.(.(.(.",
"^.)._.(.^.(._.(.^.(._.T.- 2 g g g g g g g g O A.(.^.(._.(.^./._.",
"/.(.).(./.(.).(./.(.).!.4.2.2.2.2.2.2.2.2.2.2.U.(./.(.(.(./.(.)."
};
