/* XPM */
static char *_9ff2ad1ac8f4a1dad1d57ca74831700muwS0gpWHU8riK0W[] = {
/* columns rows colors chars-per-pixel */
"50 50 150 2 ",
"   c #141B1B",
".  c #1A2F33",
"X  c #1D383F",
"o  c #2B3B3D",
"O  c #303536",
"+  c #313737",
"@  c #48313E",
"#  c #49343C",
"$  c #403C3F",
"%  c #483643",
"&  c #703547",
"*  c #2C4344",
"=  c #20424B",
"-  c #22444C",
";  c #384B4F",
":  c #345152",
">  c #355056",
",  c #385859",
"<  c #275663",
"1  c #2A5F6F",
"2  c #2E5C6E",
"3  c #3E5C6E",
"4  c #3F5B74",
"5  c #2B6475",
"6  c #2F677A",
"7  c #2D697B",
"8  c #2F6B7C",
"9  c #3F6174",
"0  c #346378",
"q  c #31667A",
"w  c #34687C",
"e  c #316D7D",
"r  c #356F7D",
"t  c #3C687D",
"y  c #37707E",
"u  c #415253",
"i  c #4F5454",
"p  c #774152",
"a  c #76495F",
"s  c #4A5270",
"d  c #455E72",
"f  c #6A4E64",
"g  c #645066",
"h  c #446C6E",
"j  c #5E6262",
"k  c #5A646F",
"l  c #5F6F6F",
"z  c #4C7A7B",
"x  c #6C7070",
"c  c #6C7171",
"v  c #60777D",
"b  c #6F7A7C",
"n  c #803A4F",
"m  c #8F3E56",
"M  c #92425D",
"N  c #944663",
"B  c #9A4F70",
"V  c #397280",
"C  c #3C7480",
"Z  c #3C7481",
"A  c #5A6681",
"S  c #596D84",
"D  c #427084",
"F  c #437A83",
"G  c #457C83",
"H  c #457C84",
"J  c #4B7887",
"K  c #487A86",
"L  c #487E84",
"P  c #56778C",
"I  c #59738E",
"U  c #507B89",
"Y  c #606782",
"T  c #696483",
"R  c #616882",
"E  c #706484",
"W  c #786385",
"Q  c #767C93",
"!  c #767E94",
"~  c #A25C84",
"^  c #8F6188",
"/  c #966289",
"(  c #8E7586",
")  c #8F798E",
"_  c #A5608B",
"`  c #4C8186",
"'  c #4C8286",
"]  c #4F8387",
"[  c #528588",
"{  c #548789",
"}  c #5A838D",
"|  c #57898F",
" . c #548392",
".. c #538A93",
"X. c #7C8385",
"o. c #698C9C",
"O. c #748E96",
"+. c #6091A1",
"@. c #70ABBC",
"#. c #838286",
"$. c #888C8C",
"%. c #898D8D",
"&. c #80859D",
"*. c #989B9B",
"=. c #9E83A1",
"-. c #948CA6",
";. c #958DA6",
":. c #9F9EA1",
">. c #BC81A5",
",. c #A993AF",
"<. c #A398AB",
"1. c #BB91AC",
"2. c #B397B3",
"3. c #9FB1BD",
"4. c #A6A9A9",
"5. c #A7A9A9",
"6. c #A5B1B5",
"7. c #A2B3BD",
"8. c #A3B4BD",
"9. c #AFB3BE",
"0. c #B5B8B8",
"q. c #B6B8B8",
"w. c #BBBEC9",
"e. c #BBBFC9",
"r. c #D3A2C0",
"t. c #D7ABC6",
"y. c #DBB4CC",
"u. c #B7C5CA",
"i. c #B5C4E0",
"p. c #C3C5C6",
"a. c #C4C6C6",
"s. c #C7C9D2",
"d. c #D3C7D0",
"f. c #D6D0D6",
"g. c #E2C6D8",
"h. c #E4CBDB",
"j. c #E6CFDF",
"k. c #C7D7F7",
"l. c #CADAFB",
"z. c #CBDBFC",
"x. c #CCDCFC",
"c. c #CFDEFC",
"v. c #ECDDE8",
"b. c #E2E3E3",
"n. c #F2EAF1",
"m. c #F1F1F1",
"M. c #F7F8F9",
"N. c #F9FAFA",
"B. c #FBFCFF",
"V. c white",
/* pixels */
"V.V.V.V.V.V.V.V.V.V.V.V.V.x.V.B.V.V.V.V.V.V.V.V.V.k.3.z.k.V.V.V.V.V.V.V.V.V.V.V.V.V.V.V.V.l.V.B.V.V.",
"V.V.V.V.V.V.V.V.V.V.V.V.V.x.V.V.V.V.V.V.V.V.V.V.x.z.M.B.z.V.V.V.V.V.V.V.V.V.V.V.V.V.V.V.V.l.V.V.V.V.",
"V.V.V.V.V.V.V.V.V.V.V.V.V.V.V.V.V.V.V.V.V.V.V.V.x.z.V.V.B.V.V.V.V.V.V.V.V.V.V.V.V.V.V.V.V.V.V.V.V.V.",
"V.V.V.V.V.V.V.V.V.V.V.V.V.V.V.V.V.V.V.V.V.V.V.V.x.V.V.V.V.V.V.V.V.V.V.V.V.V.V.V.V.V.V.V.V.V.V.V.V.V.",
"V.V.V.V.V.V.V.V.V.V.V.V.V.V.V.V.V.V.V.V.V.V.V.V.B.V.V.V.V.V.V.V.V.V.V.V.V.V.V.V.V.V.V.V.V.V.V.V.V.V.",
"V.V.V.V.V.V.V.V.V.V.V.V.V.V.V.V.V.V.V.V.V.V.V.V.V.V.V.V.V.V.V.V.V.V.V.V.V.V.V.V.V.V.V.V.V.V.V.V.V.V.",
"V.V.V.V.V.V.V.V.V.V.V.V.V.V.V.V.V.V.V.V.V.V.V.V.V.V.V.V.V.7.V.V.V.V.V.V.V.V.V.V.V.V.V.V.V.V.V.V.V.V.",
"V.V.V.V.V.V.V.V.V.V.V.V.V.V.V.V.V.V.V.V.V.V.V.V.V.V.V.V.7.M.7.V.V.V.V.V.V.V.V.V.V.V.V.V.V.V.V.V.V.V.",
"V.V.V.V.V.V.V.V.V.V.V.V.V.V.V.V.V.V.V.V.V.V.V.V.V.V.V.V.N.8.M.V.V.V.V.V.V.V.V.V.V.V.V.V.V.V.V.V.V.V.",
"V.V.V.V.V.V.V.V.V.V.V.V.V.V.V.V.V.V.V.V.V.V.V.V.V.V.V.V.V.N.V.V.V.V.V.V.V.V.V.V.V.V.V.V.V.V.V.V.V.V.",
"V.V.V.V.V.V.V.V.V.V.V.V.V.V.V.V.V.V.V.V.V.V.V.V.V.V.V.V.V.V.V.V.V.V.V.V.V.V.V.V.V.V.V.V.V.V.V.V.V.V.",
"V.V.V.V.V.V.V.V.V.V.V.V.V.V.V.V.V.V.V.V.V.V.V.V.V.V.V.V.V.7.V.V.V.V.V.V.V.V.V.V.V.V.V.V.V.V.V.V.V.V.",
"V.V.V.V.V.V.V.V.V.V.V.V.V.V.V.V.V.V.V.V.V.V.V.V.V.V.V.V.8.M.8.V.V.V.V.V.V.V.V.V.V.V.V.V.V.V.V.V.V.V.",
"V.V.V.V.V.V.V.V.V.V.V.V.V.V.V.V.V.V.V.V.V.V.V.V.V.V.V.V.N.8.M.V.V.V.V.V.V.V.V.V.V.V.V.V.V.V.V.V.V.V.",
"V.V.V.V.V.V.V.V.V.V.V.V.V.V.V.V.V.V.V.V.V.V.b.      V.V.V.N.V.V.V.V.V.V.V.V.V.V.V.V.V.V.V.V.V.V.V.V.",
"V.V.V.V.V.V.V.V.V.V.V.V.V.V.V.V.V.V.V.V.V.0.$.#.#.#.$.0.V.V.V.V.V.V.V.V.V.V.V.V.V.V.V.V.V.V.V.V.V.V.",
"V.V.V.V.V.V.V.V.V.V.V.V.V.V.V.V.V.V.V.V.V.c O n.n.n.  c V.V.V.V.V.V.V.V.V.V.V.V.V.V.V.V.V.V.V.c.x.z.",
"V.V.V.V.V.V.V.V.V.V.V.V.V.V.V.V.V.V.j + + :.f.n.n.n.1.( + + c V.V.V.V.V.V.V.V.V.V.V.V.V.V.V.V.V.V.B.",
"V.V.V.V.7.V.V.V.V.V.V.V.V.z.V.V.b.5.v > * 5.n.n.v.j.r.) X X ; 5.4.q.V.V.V.V.V.V.V.V.V.V.V.V.V.V.V.x.",
"V.V.V.7.M.7.V.V.V.V.V.V.V.z.V.V.5.  +.@.{ u.n.n.g.r.r.-.7 7 <     + V.V.V.V.V.V.V.V.V.V.V.V.V.V.V.V.",
"V.V.V.N.7.M.V.V.V.V.V.V.V.z.V.k u h | ..y  .o.y.t.r.P D 7 7 3 & & p i q.V.V.V.V.V.V.V.V.V.V.V.V.V.V.",
"V.V.V.V.N.V.V.V.V.V.V.V.V.i.p.o , { ' G y y J ,.,.,.7 7 7 7 9 a M n   4.V.V.V.V.V.V.V.V.V.V.V.V.V.V.",
"V.V.V.V.V.V.V.V.V.V.V.V.V.$.  z { { y y { { { 7 7 7 7 7 8 q 7 7 a &   4.V.V.V.V.V.V.V.V.V.V.V.V.V.V.",
"V.V.V.V.V.V.V.V.V.V.V.V.B.$.  6.9.<.} G { { { F y 7 7 7 7 T W W % # 4.b.V.V.V.V.V.V.V.V.V.V.V.V.V.V.",
"x.V.V.V.V.V.V.V.V.V.V.V.V.$.  d.j.r.o. .I I o.+.K 8 5 V V ^ ~ _ @ % b.m.V.V.V.V.V.V.V.V.V.V.V.V.V.V.",
"B.V.V.V.V.V.V.x.V.V.V.V.V.$.  1.r.r.O.K V -.r.r.O.7 V A ~ ~ _ _ N n   5.V.V.V.V.V.V.V.V.V.V.V.V.V.V.",
"V.V.V.V.V.V.V.B.x.V.V.V.$.x : O.O.O.J I o.2.r.r.) W V A _ _ ~ B M n   5.V.V.c.V.V.V.V.V.V.V.V.V.V.V.",
"V.V.V.V.V.V.V.x.B.V.V.V.  : ' 8 0 Z V I r.r.t.y.>._ V A _ ~ ~ m M &   5.V.V.V.V.V.V.V.V.V.x.x.x.V.V.",
"V.V.V.V.V.V.V.B.V.V.V.V.  > { { D 8 8 I t.r.r._ _ ^ V 1 V & M n d 7 7 X   V.V.V.V.V.V.V.V.V.l.z.x.7.",
"V.V.V.V.V.V.V.V.V.V.V.V.  > { { J Z q Z ) _ _ _ ^ A 1 V V g f f 9 7 7 X   V.V.V.V.V.V.V.V.V.B.V.7.k.",
"V.V.V.V.V.V.V.V.V.V.V.V.  : [ { [ [ V 8 V T _ _ T V V V V 1 V V 7 7 7 X   V.V.V.V.V.V.V.V.V.V.V.l.l.",
"V.V.V.V.V.V.V.V.V.V.V.V.  - e ] | [ [ F V V V V D V I V V V V V 7 7 7 X   V.V.V.V.7.V.V.V.V.V.x.l.3.",
"V.V.V.V.V.V.V.V.V.V.V.V.  = 7 G ] { { ` 7 e y y H { { { { e 8 7 7 7 7 X   V.V.V.7.M.7.V.V.V.V.V.B.M.",
"V.V.V.V.V.V.V.V.V.V.V.V.  = 7 7 y { { ` 7 G { { { { { { [ e 7 7 7 7 7 X   V.V.V.N.7.M.V.V.V.V.V.V.V.",
"V.V.V.V.V.V.V.V.V.V.V.V.a.b . 1 e y y r 7 G [ { { { y y r 7 7 7 7 5 . X.a.V.V.V.V.N.V.V.V.V.V.V.V.V.",
"V.V.V.V.V.V.V.V.V.V.V.V.V.*.+ 2 q q 7 7 7 F ' [ ] ] 7 7 7 7 6 6 q 2 + 0.V.V.V.V.V.V.V.V.V.V.V.V.V.V.",
"V.V.V.V.V.V.V.V.V.V.V.V.V.V.V.R s s 0 7 7 7 7 7 7 7 7 7 7 7 0 s s A V.V.V.V.V.V.V.V.V.V.V.V.V.V.V.V.",
"V.V.V.V.V.V.V.V.V.V.V.V.V.V.V.s.e.e.S 4 4 4 4 4 4 d 4 4 4 4 I e.w.s.V.V.V.V.V.V.V.V.V.V.V.V.V.V.V.V.",
"V.V.V.V.V.V.V.V.V.V.V.V.V.V.V.V.V.V.Q s s s s s s s s s s s Q V.V.V.V.V.V.V.V.V.V.V.V.V.V.V.V.V.V.V.",
"V.V.V.V.V.V.V.V.V.V.V.V.V.V.V.V.V.V.V.V.c.V.V.V.V.V.V.V.V.V.V.V.V.V.V.V.V.V.V.V.V.V.V.V.V.V.V.V.V.V.",
"V.V.V.V.V.V.V.V.V.V.V.V.V.V.V.V.V.V.V.c.B.c.V.V.V.V.V.V.V.V.V.V.V.V.V.V.V.V.V.V.V.V.V.V.V.V.V.V.V.V.",
"V.V.V.V.V.V.V.V.V.V.V.V.V.V.V.V.V.V.V.B.c.B.V.V.V.V.V.V.V.V.V.V.V.V.V.V.V.V.V.V.V.V.V.V.V.V.V.V.V.V.",
"V.V.V.V.V.V.V.V.V.V.V.V.V.V.V.V.V.V.V.V.B.V.V.V.V.V.V.V.V.V.V.V.V.V.V.V.V.V.V.V.V.V.V.V.V.V.V.V.V.V.",
"V.V.V.V.V.V.V.V.V.V.V.V.V.V.V.V.7.V.V.V.V.V.V.V.V.V.V.V.V.V.V.V.V.V.V.V.V.V.V.V.V.V.V.V.V.V.V.V.V.V.",
"V.V.V.V.V.V.V.V.V.V.V.V.V.V.V.8.M.8.V.V.V.V.V.V.V.V.V.V.V.V.V.V.V.V.V.V.V.V.V.V.V.V.V.V.V.V.V.V.V.V.",
"V.V.V.V.V.V.V.V.V.V.V.V.V.V.V.N.8.M.V.V.V.V.V.V.V.V.V.V.V.V.V.V.V.V.V.V.V.V.V.V.V.V.V.V.V.V.V.V.V.V.",
"V.V.V.V.V.V.V.V.V.V.V.V.V.V.V.V.N.V.V.V.V.V.V.V.V.V.V.V.V.V.V.V.V.V.V.V.V.V.V.V.V.V.V.V.V.V.V.V.V.V.",
"V.V.V.V.V.V.V.V.V.V.V.V.V.V.V.V.V.V.V.V.V.V.V.V.V.V.V.V.V.V.V.V.V.V.V.V.V.V.V.V.V.V.V.V.V.V.V.V.V.V.",
"V.V.V.V.V.V.V.V.V.V.V.V.V.V.V.V.V.V.V.V.V.c.V.V.V.V.V.V.V.V.V.V.V.V.V.V.V.V.V.V.V.V.V.V.V.V.V.x.x.c.",
"V.V.V.V.V.V.V.V.V.V.V.V.V.V.V.V.V.V.V.V.x.z.V.V.V.V.V.V.V.V.V.V.V.V.V.V.V.V.V.V.V.V.V.V.V.V.V.B.V.V."
};
