/* XPM */
static char *_2b90f5c3de140a3a23ed6f7266f5058LQtueIlLrvv7fgPd[] = {
/* columns rows colors chars-per-pixel */
"50 50 69 1 ",
"  c #141B1B",
". c #56634D",
"X c #5F7160",
"o c #E66A3A",
"O c #8D977F",
"+ c #F38C4C",
"@ c #B6BEB0",
"# c #A4B5C4",
"$ c #A7B7C4",
"% c #A9BBCA",
"& c #B9C6CD",
"* c #B0C1D3",
"= c #BFCCD2",
"- c #B4C5DB",
"; c #B6C7DC",
": c #BCCDE6",
"> c #BECFEA",
", c #C1CCD4",
"< c #C4D0D9",
"1 c #CCD6DD",
"2 c #C4D1E1",
"3 c #CCD7E4",
"4 c #C7D5EC",
"5 c #D2DBE2",
"6 c #D5DCE0",
"7 c #D7DEE2",
"8 c #D5DDE5",
"9 c #D3DDE9",
"0 c #C5D5F3",
"q c #C6D7F6",
"w c #CAD9F2",
"e c #CCDBFC",
"r c #CCDCFC",
"t c #CEDEFC",
"y c #CFDEFC",
"u c #DCE3EA",
"i c #D2E1FD",
"p c #D3E1FD",
"a c #D4E2FD",
"s c #D7E3FC",
"d c #D7E3FD",
"f c #DCE7FD",
"g c #DFE8FD",
"h c #E1E7EA",
"j c #E5EAEF",
"k c #EAEEF2",
"l c #E0EAFD",
"z c #E3EBFC",
"x c #E3ECFD",
"c c #E6EEFD",
"v c #ECF0F2",
"b c #EDF2F7",
"n c #E9F0FD",
"m c #EAF0FE",
"M c #EBF1FE",
"N c #ECF2FE",
"B c #EFF4FE",
"V c #F2F4F6",
"C c #F3F5F6",
"Z c #F4F5F7",
"A c #F6F7F8",
"S c #F0F5FE",
"D c #F3F6FE",
"F c #F7F9FE",
"G c #F9FAFA",
"H c #F8FBFE",
"J c #FBFCFF",
"K c #FBFDFF",
"L c white",
/* pixels */
"LLLLLLLLLLLLLLLaHiLLLLLLLLj$,GLLLLLLLLLLLLLSzcmLLL",
"LLLLLLLLLLLLLLLiHfLLLLLLLC*>:8LLLLLLLLLLLLLSfmBLLL",
"SLLLLLLLLLLLLLLiFLLLLLLLLmw3slLLLLLLLLLLLLLSfLLLLL",
"xLLLLLLLLLLLLLLlHLLLLLLLLtiLSNLLLLLLLLLLLLLHmLLLLL",
"ccBLLLLLLLLLLLLLLLLLLLLLLymLLLLLLLLLLLLLLLLLLLLLLL",
"mNSLLLLLLLLLLLLLLLLLLLLLLmLLLLLLLLLLLLLLLLLLLLLLLL",
"LLLLLLLLLLLLLLLLLLLLLLLLLLLLLLLLLLLLLLLLLLLLLLLLLL",
"LLLLLLLLLLLLLLLLLLXXXXXXLLLLL7hLLLLLLLLLLLLLLLLLLL",
"LLLLLLLLLLLLLLLLLXOOOOXXXLLLhXXXXXXXLLLLLLLLLLLLLL",
"LLLLLLLLLLLLLLLLXOOOXXXXXXLLXOOOOOOXXLLLLLLLLLLLLL",
"LLLLLLLLLLLLLLLXOOOOXXXXXXXXOOOOOXXXXXLLLLLLLLLLLL",
"LLLLLLLLLLLLXXXOOOOOOXXXXXXOOOOOOOXXXXXLLLLLLLLLLL",
"LLLLLLLLLLLXOOOOOOOOXXXXXXXOOOOOOOXXXXXXLLLLLLLLLL",
"LLLLLLLLLLXOOOOOOOOXXOOOOOXXOOOOOOOXXXXXXLLLLLLLLL",
"LLLLLLLLLXOOOOOOOOXXOOOOOOOXOOOOOOOOXXXXX.LLLLLLLL",
"LLLLLLLLLXOOOOOOOXXOOOOOOOOOOOOOOOOOOXXXX.LLLLLLLL",
"LLLLLLLLLX@OOOOOO  OOOOOOOOOOOOO  OOOXXXXX.LLmiiiF",
"LLLLLLLZXOO@OOO  ++             ++  OO.XXX.LLLJFHF",
"LLLLLLvXOOOO@O +.++.+++++++++++.++.+ ...XX.LLLLcff",
"hNSLLL6XOOOO@@ oo..ooooooooooooo..oo ....XX.LLLLLH",
";iNLLLXOOOOO@@ .oooo++ooooooo++oooo. .....X.LLLLLL",
"q2LLLLXOOOOO@X ooooooooooooooooooooo .......LLLLLL",
"*:gNLXOOOOOOXX oooooo+++++++++oooooo .......LLLLLL",
"jcriNXOOOOOOXX ooooooooooooooooooooo XX.....LLLLLL",
"LLFFXOOOOOOOXX ooooo+++++++++++ooooo XXX.....LLLLL",
"LLLLXOOOOOOXXX ooooooooooooooooooooo XXXX....JJLLL",
"LLLXOOOOOOOXXX ..ooo+++oooo++++ooo.. XXXXX....lbGL",
"LLX@@OOXOOOXXX.oo++ooooooooooooo++oo.XXXX.....4;1G",
"LLX@@OOOXXXXXXX..++.............++..XXXX.......>%C",
"LL.O@@OOOXXXXXX.....................XXX..XXX...:<A",
"LL.OOOOOOOOXXXXX.X..           ....XXXXXXXXXX...VL",
"fLL.@OOOOOOOXXXXXX.             ..XXXXXXXXXXX...LL",
"FLL.XOOOOOOXXXXXX.               .XXXXXXXXXXXX..LL",
"iaXOXXOOOOXXXXXXX.               .XXXXXXXXXXXX...L",
"JLOOOXXXOXXXXXXXX.               .X...XXXXXXXX...L",
"LLOOOOXXXXXXXXXXX.               ....XXXXXXXX....L",
"LLOOOOOOXXXXXXXX.                ..OXXXXXXXX.....L",
"LLXOOOOXXXXXXXX.                 .OOXXXXX........L",
"LLXXOOXXXOOOXX..                 OOXXXXX.XXXX....L",
"LLXXXXXXOOOOXXX..                OXXXXX@XXXXXX...L",
"LLXXXXXOOOOXXXX...               XXXXXO@@XXXXXX.LL",
"LLXXXXOOOOXXXX....    .......    XXXXOOO@XXXXX.LLL",
"LLLLL.OOXXXXXOOX..  ...........  XXXOOOXXXXXX..LLL",
"LLLLL.OOXXXXOOXXX. ............. .XXOOXXXXXXX..LLL",
"LLLLLL..XXXXXXXXXLLLLLSLLLLLLLLLLLLLOXXXXXXXX..NNL",
"LLLLLLLLLXX.XXXXLLLLLSaSLLLLLLLLLLLLLXXXXXXXX.cccJ",
"LLLSBLLLLLLLLLLLLLFNLgeBLLLLLLLLxLLLLLXXXXXXLLLmll",
"LLLNzLLLLLLLLLLLLLSi94gFLLLLLLLLiLLLLLLLLLLLLLLSmm",
"=FcmcLLLLLLLLLLLLLk;0-uLLLLLLLmFiLLLLLLLLLLLLLL7kL",
"vSlNcLLLLLLLLLLLLLL5$5ZLLLLLLLgBiLLLLLLLLLLLLLLZ&C"
};
