/* XPM */
static char *_22022254da54370c89dbce844f0f353O9LMPE5N4Q7Tg2Eg[] = {
/* columns rows colors chars-per-pixel */
"50 50 97 2 ",
"   c #141B1B",
".  c #342B36",
"X  c #512C38",
"o  c #723327",
"O  c #662B36",
"+  c #7A2A33",
"@  c #7A442E",
"#  c #443444",
"$  c #533445",
"%  c #543C52",
"&  c #703547",
"*  c #713D54",
"=  c #5E5C61",
"-  c #6D5D63",
";  c #667074",
":  c #767D7F",
">  c #A53A34",
",  c #815635",
"<  c #D14B34",
"1  c #843445",
"2  c #993342",
"3  c #8F3E56",
"4  c #A33D53",
"5  c #B73B51",
"6  c #E0394C",
"7  c #924343",
"8  c #D84240",
"9  c #E06E41",
"0  c #EF914F",
"q  c #7E8384",
"w  c #878B8B",
"e  c #898D8D",
"r  c #A7B7C4",
"t  c #A9BBCA",
"y  c #B9C6CD",
"u  c #B0C1D3",
"i  c #BFCCD2",
"p  c #B4C5DB",
"a  c #B6C6DC",
"s  c #B6C7DC",
"d  c #BCCDE6",
"f  c #BECFEA",
"g  c #C4C6C6",
"h  c #C1CCD4",
"j  c #C4D0D9",
"k  c #CCD6DD",
"l  c #C4D1E1",
"z  c #CCD7E4",
"x  c #C7D5EC",
"c  c #C8D5ED",
"v  c #D2DBE2",
"b  c #D5DCE0",
"n  c #D6DDE2",
"m  c #D5DDE5",
"M  c #D3DDE9",
"N  c #C5D5F3",
"B  c #C6D7F6",
"V  c #CAD9F2",
"C  c #CCDBFC",
"Z  c #CCDCFC",
"A  c #CEDDFC",
"S  c #DCE3EA",
"D  c #DFE5EA",
"F  c #D6E3FB",
"G  c #D2E0FC",
"H  c #D2E1FD",
"J  c #D3E1FD",
"K  c #D4E1FD",
"L  c #D4E2FD",
"P  c #D7E3FD",
"I  c #DAE5FD",
"U  c #DCE7FD",
"Y  c #DDE8FD",
"T  c #DFE8FD",
"R  c #E4EAEF",
"E  c #EAEEF2",
"W  c #E0EAFD",
"Q  c #E3ECFD",
"!  c #E6EEFD",
"~  c #EEF1F3",
"^  c #EDF2F7",
"/  c #E9F0FD",
"(  c #EAF0FE",
")  c #ECF2FE",
"_  c #EFF4FE",
"`  c #F2F4F6",
"'  c #F3F5F6",
"]  c #F6F7F8",
"[  c #F0F5FE",
"{  c #F3F7FE",
"}  c #F7F9FA",
"|  c #F7F9FE",
" . c #F9FAFA",
".. c #F8FBFE",
"X. c #FBFDFF",
"o. c #FDFDFF",
"O. c white",
/* pixels */
"O.O.O.O.O.O.O.O.O.O.O.O.O.O.O.L ..H O.O.O.O.O.O.O.O.R r h  .O.O.O.O.O.O.O.O.O.O.O.O.O.[ W ! ( O.O.O.",
"O.O.O.O.O.O.O.O.O.O.O.O.O.O.O.H ..U O.O.O.O.O.O.O.' u f d m O.O.O.O.O.O.O.O.O.O.O.O.O.[ W ( _ O.O.O.",
"[ O.O.O.O.O.O.O.O.O.O.O.O.O.O.H | O.O.O.O.O.O.O.O.( V z F W O.O.O.O.O.O.O.O.O.O.O.O.O.[ U O.O.O.O.O.",
"Q O.O.O.O.O.O.O.O.O.O.O.O.O.O.W ..O.O.O.O.O.O.O.O.A L O.[ ) O.O.O.O.O.O.O.O.O.O.O.O.O...( O.O.O.O.O.",
"! ! _ O.O.O.O.O.O.O.O.O.O.O.O.O.O.O.O.O.O.O.O.O.O.A ( O.O.O.O.O.O.O.O.O.O.O.O.O.O.O.O.O.O.O.O.O.O.O.",
"( ) [ O.O.O.O.O.O.O.O.O.O.O.O.O.O.O.O.O.O.O.O.O.O.) O.O.O.O.O.O.O.O.O.O.O.O.O.O.O.O.O.O.O.O.O.O.O.O.",
"O.O.O.O.O.O.O.O.O.O.O.O.O.O.O.O.O.O.O.O.O.O.O.O.O.O.O.O.O.O.O.O.O.O.O.O.O.O.O.O.O.O.O.O.O.O.O.O.O.O.",
"O.O.O.O.O.O.O.O.O.O.O.O.O.O.O.O.O.O.O.O.O.O.O.O.O.e e e e : q e g O.O.O.O.O.O.O.O.O.O.O.O.O.O.O.O.O.",
"O.O.O.O.O.O.O.O.O.O.O.O.O.O.O.O.O.O.O.O.O.O.O.O.O.              e O.O.O.O.O.O.O.O.O.O.O.O.O.O.O.O.O.",
"O.O.O.O.O.O.O.O.O.O.O.O.O.O.O.O.O.O.O.O.O.O.O.O.O.              e O.O.O.O.O.O.O.O.O.O.O.O.O.O.O.O.O.",
"O.O.O.O.O.O.O.O.O.O.O.O.O.O.O.                    3 3 3 3 3 3 3 X         e O.O.O.O.O.O.O.O.O.O.O.O.",
"O.O.O.O.O.O.O.O.O.O.O.O.O.O.O.                    3 3 3 3 3 3 3 X         e O.O.O.O.O.O.O.O.O.O.O.O.",
"O.O.O.O.O.O.O.O.O.O.O.O.g e e + + + + + + + + + + 3 3 4 5 5 5 5 O     X X - e e O.O.O.O.O.O.O.O.O.O.",
"O.O.O.O.O.O.O.O.O.O.O.O.e     6 6 6 6 6 6 6 6 6 6 3 3 5 6 6 6 6 +     3 3 X     O.O.O.O.O.O.O.O.O.O.",
"O.O.O.O.O.O.O.O.O.O.O.O.e     6 6 6 6 6 6 6 6 6 6 3 3 5 6 6 6 6 +     3 3 X     O.O.O.O.O.O.O.O.O.O.",
"O.O.O.O.O.O.O.O.O.O.    + 6 6 6 6 6 6 6 6 6 6 6 6 6 6 6 6 6 3 3 3 3 3     X 3 3     w O.O.O.O.O.O.O.",
"O.O.O.O.O.O.O.O.O.O.    + 6 6 6 6 6 6 6 6 6 6 6 6 6 6 6 6 6 3 3 3 3 3     X 3 3     e O.O.( H H H ..",
"O.O.O.O.O.O.O.g e e X X 2 6 6 6 6 6 6 6 6 6 6 6 6 6 6 6 6 6 3 3 4 5 5 + + 1 3 3     e O.O.O.O.| | | ",
"O.O.O.O.O.O.~ ;     3 3 5 6 6 6 6 6 6 6 6 6 6 6 6 6 6 6 6 6 3 3 5 6 6 6 6 5 3 3     e O.O.O.O.! I I ",
"D ) [ O.O.O.b :     3 3 5 6 6 6 6 6 6 6 6 6 6 6 6 6 6 6 6 6 3 3 5 6 6 6 6 5 3 3     e O.O.O.O.O.O.O.",
"a H ) O.O.O.O.:     3 3 5 6 6 6 6 6 6 6 6 6 6 6 6 6 6 6 6 6 6 6 6 6 6 6 6 5 3 3     e O.O.O.O.O.O.O.",
"B l O.O.O.O.O.w     3 3 5 6 6 6 6 6 6 6 6 6 6 6 6 6 6 6 6 6 6 6 6 6 6 6 6 5 3 3     e O.O.O.O.O.O.O.",
"u d U ) O.O.O.g e e X X 1 5 5 6 6 6 6 6 6 6 6 6 6 6 6 6 6 6 6 6 6 6 6 5 5 4 3 3     e O.O.O.O.O.O.O.",
"R ! C F ( O.O.O.O.O.    X 3 3 6 6 6 6 6 6 6 6 6 6 6 6 6 6 6 6 6 6 6 6 3 3 3 3 3     e O.O.O.O.O.O.O.",
"O.O.| | | O.O.O.O...    X 3 3 6 6 6 6 6 6 6 6 6 6 6 6 6 6 6 6 6 6 6 6 3 3 3 3 3     e O.O.O.O.O.O.O.",
"O.O.O.O.O.O.O.O.O.O.    o < <     o < < < < 7 % % 3 3 3 3 3 3 3 3 3 3 3 3 3 3 3     e O...| X.O.O.O.",
"O.O.O.O.O.O.O.O.O...    o < <     o < < < < 7 % % 3 3 3 3 3 3 3 3 3 3 3 3 3 3 3     e ..L A ! ^ } O.",
"O.O.O.O.O.O.O.g e e + + > < <     @ 9 9 < < 7 % % 3 3 3 3 3 3 3 3 3 3 3 3 3 3 3     e O.[ Y x a k  .",
"O.O.O.O.O.O.O.e     6 6 8 < <     , 0 0 < < 7 % % 3 3 3 3 3 3 3 3 3 3 3 3 3 3 3     e O.O.O.z f t ' ",
"O.O.O.O.O.O.O.e     6 6 8 < <     , 0 0 < < 7 % % 3 3 3 3 3 3 3 3 3 3 3 3 3 3 3     e O.O.| H d j } ",
"O.O.O.O.O.O.O.e     6 6 6 6 6 6 6 6 6 6 3 3 3 3 3 3 3 3 3 3 3 3 3 3 3 3 3 3 3 3     w O.O.[ ( S ^ O.",
"Y O.O.O.O.O.O.e     6 6 6 6 6 6 6 6 6 6 3 3 3 3 3 3 3 3 3 3 3 3 3 3 3 3 3 3 3 3     e O.O.O.O.O.O.O.",
"| O.O.O.O.O.O.g e e + + 2 5 5 5 5 5 5 5 3 3 3 3 3 3 3 3 3 3 3 3 3 3 3 3 3 & X X w e g O.O.O.O.O.O.O.",
"H L Q O.O.O.O.O.O.O.    X 3 3 3 3 3 3 3 3 3 3 3 3 3 3 3 3 3 3 3 3 3 3 3 3 X     O.O.O.O.O.O.O.O.O.O.",
"..O.O.O.O.O.O.O.O.O.    X 3 3 3 3 3 3 3 3 3 3 3 3 3 3 3 3 3 3 3 3 3 3 3 3 X     O.O.O.O.O.O.O.O.O.O.",
"O.O.O.O.O.O.O.O.O.O.O.O.e     % % % % % % % % % % % % % % % % % % % %     e O.O.O.O.O.O.O.O.O.O.O.O.",
"O.O.O.O.O.O.O.O.O.O.O.O.e     % % % % % % % % % % % % % % % % % % % %     e O.O.O.O.O.O.O.O.O.O.O.O.",
"O.O.O.O.O.O.O.O.O.O.O.O.g e e . . # % % * * $ . . 7 7 7 7 7 . . $ * *     e O.O.O.O.O.O.O.O.O.O.O.O.",
"O.O.O.O.O.O.O.O.O.O.O.O.O.O.O.    . % % 3 3 X     < < < < <     X 3 3     e O.O.O.O.O.O.O.O.O.O.O.O.",
"O.O.O.O.O.O.O.O.O.O.O.O.O.O.O.    . % % 3 3 X     < < < < <     X 3 3     e O.O.O.O.O.O.O.O.O.O.O.O.",
"O.O.O.O.O.O.O.O.O.O.O.O.O.O.O.    . % % % % .     0 0 0 0 0     . % %     e O.O.O.O.O.O.O.O.O.O.O.O.",
"O.O.O.O.O.O.O.O.O.O.O.O.O.O.O.    . % % % % .     0 0 0 0 0     . % %     e O.O.O.O.O.O.O.O.O.O.O.O.",
"O.O.O.O.O.O.O.O.O.O.O.O.O.O.O.e e = . . % % .     , , , , , . . . . . e e g O.O.O.O.O.O.O.O.O.O.O.O.",
"O.O.O.O.O.O.O.O.O.O.O.O.O.O.O.O.O.e     % % .               % % .     O.O.O.O.O.O.O.O.O.O.O.O.O.O.O.",
"O.O.O.O.O.O.O.O.O.O.O.O.O.O.O.O.O.e     % % .               % % .     O.O.O.O.O.O.O.O.O.O.| _ ) ) O.",
"O.O.O.O.O.O.O.O.O.O.O.O.O.O.O.O.O.O.O.O.O.[ L [ O.O.O.O.O.O.O.O.O.O.O.O.O.O.O.O.O.O.O.O.O.[ ! ! Q O.",
"O.O.O.[ ) O.O.O.O.O.O.O.O.O.O.O.O.O.| ) O.W C [ O.O.O.O.O.O.O.O.Q O.O.O.O.O.O.O.O.O.O.O.O.O.O.( W W ",
"O.O.O.) ! O.O.O.O.O.O.O.O.O.O.O.O.O.[ H M x U ..O.O.O.O.O.O.O.O.H O.O.O.O.O.O.O.O.O.O.O.O.O.O.[ ( ( ",
"i | ! ( ! O.O.O.O.O.O.O.O.O.O.O.O.O.E p N p S O.O.O.O.O.O.O.( | H O.O.O.O.O.O.O.O.O.O.O.O.O.O.b E O.",
"~ [ W ( ! O.O.O.O.O.O.O.O.O.O.O.O.O.O.v r v ] O.O.O.O.O.O.O.Y [ H O.O.O.O.O.O.O.O.O.O.O.O.O.O.] y ' "
};
