/* XPM */
static char *result[] = {
/* columns rows colors chars-per-pixel */
"50 50 168 2 ",
"   c #141B1B",
".  c #1D201E",
"X  c #2D2522",
"o  c #2F2B24",
"O  c #312921",
"+  c #3A2924",
"@  c #373127",
"#  c #353528",
"$  c #3B382D",
"%  c #3D3D33",
"&  c #442C26",
"*  c #423527",
"=  c #443029",
"-  c #4C3329",
";  c #493C2E",
":  c #5D3727",
">  c #52362A",
",  c #5B362C",
"<  c #553D2D",
"1  c #5D3D2E",
"2  c #633826",
"3  c #61372E",
"4  c #633A2F",
"5  c #653E32",
"6  c #683B30",
"7  c #723F34",
"8  c #294735",
"9  c #3C4131",
"0  c #39543D",
"q  c #474839",
"w  c #524231",
"e  c #5A4333",
"r  c #67452D",
"t  c #634734",
"y  c #6D4133",
"u  c #6C4C36",
"i  c #734335",
"p  c #7A4436",
"a  c #774B36",
"s  c #7B4C39",
"d  c #6D533B",
"f  c #7C563E",
"g  c #3A6447",
"h  c #3B6D4C",
"j  c #3E7450",
"k  c #595343",
"l  c #7F5E41",
"z  c #476A43",
"x  c #44724E",
"c  c #427C55",
"v  c #8D4A2F",
"b  c #974C2E",
"n  c #874D35",
"m  c #834A3A",
"M  c #8D4E3D",
"N  c #944E34",
"B  c #82553E",
"V  c #885439",
"C  c #865A3B",
"Z  c #9B5734",
"A  c #93513F",
"S  c #A35539",
"D  c #A55F3D",
"F  c #AC5A3D",
"G  c #B55834",
"H  c #B45B3C",
"J  c #BE5E3D",
"K  c #AF683E",
"L  c #C35D37",
"P  c #C9633D",
"I  c #D4653B",
"U  c #DC673B",
"Y  c #DB6B3C",
"T  c #E56A3A",
"R  c #E86E3C",
"E  c #805040",
"W  c #895640",
"Q  c #8C5D43",
"!  c #965340",
"~  c #985742",
"^  c #995B43",
"/  c #8F6446",
"(  c #936546",
")  c #9B6246",
"_  c #916A47",
"`  c #9D6648",
"'  c #916A48",
"]  c #9E6A49",
"[  c #9A704B",
"{  c #967057",
"}  c #A46345",
"|  c #A3674D",
" . c #A06C4A",
".. c #A67644",
"X. c #A3744E",
"o. c #BC754B",
"O. c #A46854",
"+. c #AC7257",
"@. c #AD7C5F",
"#. c #B67B59",
"$. c #B97E5B",
"%. c #AD796C",
"&. c #C36C44",
"*. c #C37342",
"=. c #D87443",
"-. c #E67645",
";. c #EC7B43",
":. c #E77D4C",
">. c #4F8857",
",. c #458359",
"<. c #498B5E",
"1. c #4D9262",
"2. c #519561",
"3. c #AC8057",
"4. c #B0865C",
"5. c #B78162",
"6. c #B68B61",
"7. c #BF976B",
"8. c #BD9975",
"9. c #B6A27B",
"0. c #C4884C",
"q. c #D88B52",
"w. c #CF985C",
"e. c #DC9353",
"r. c #D99856",
"t. c #EB8148",
"y. c #F28B4B",
"u. c #E98D5C",
"i. c #F2A159",
"p. c #FFAD5D",
"a. c #C3936E",
"s. c #D19869",
"d. c #C39C70",
"f. c #EA9D6A",
"g. c #C8A274",
"h. c #CDA178",
"j. c #CDA879",
"k. c #D9AB73",
"l. c #D2AD7E",
"z. c #ECAC6D",
"x. c #F0A661",
"c. c #FEAF61",
"v. c #FDB165",
"b. c #FBB56C",
"n. c #EBA976",
"m. c #F9B770",
"M. c #F7BA77",
"N. c #F8BA74",
"B. c #F6BE7C",
"V. c #D8B084",
"C. c #DAB686",
"Z. c #ECB683",
"A. c #F0BC83",
"S. c #E3BF90",
"D. c #EDC28E",
"F. c #F4C283",
"G. c #F2C68B",
"H. c #E0C493",
"J. c #EFCD97",
"K. c #EECF9B",
"L. c #F0CB93",
"P. c #DEC0A5",
"I. c #EED1A2",
"U. c #E5CDBB",
"Y. c #DBC4C5",
"T. c #E3CCC0",
"R. c #EBD6C5",
"E. c #E6D4D0",
/* pixels */
"1.1.1.1.1.1.1.1.1.1.1.1.1.1.1.1.1.1.1.1.1.1.1.1.1.,.j @ @ @   o $ # # @ @ @ @ . @ @ @ x c 1.1.1.1.1.",
"1.1.1.1.1.1.1.1.1.1.1.1.1.1.1.1.1.1.1.1.1.1.1.1.,.q ; X.X.X.t ] X.X.X.X.X.X...e X.X.X.w $ c 1.1.1.1.",
"1.1.1.1.1.1.1.1.1.1.1.1.1.1.1.1.1.1.1.1.1.1.1.1.g 5 ] X.X.X.^ X.X.X.X.X.X.X.X.^ X.X.X.X.i 8 1.1.1.1.",
"1.1.1.1.1.1.1.1.1.1.1.1.1.1.1.1.1.1.1.1.1.1.1.c $ / X.X.X.X.^ ] X.X.X.X.X.X.X.) X.X.X.X.( e 1.1.1.1.",
"1.1.1.1.1.1.1.1.1.1.1.1.1.1.1.1.1.1.1.1.1.1.1.j = ] X.X.X.X.) X.X.X.X.X.X.X.X.^ X.X.X.X.X.5 1.1.1.1.",
"1.1.1.1.1.1.1.1.1.1.1.1.1.1.1.1.1.1.1.1.1.1.1.j =  .X.X.X.X.^  .X.X.X.X.X.X.X.^ X.X.3.X.] 5 1.1.1.1.",
"1.1.1.1.1.1.1.1.1.1.1.1.1.1.1.1.1.1.1.1.1.1.1.j = ] X.X.X.X.^  .` ) ) ) ` ) X.^ X.X.X.X.] 5 1.1.1.1.",
"1.1.1.1.1.1.1.1.1.1.1.1.1.1.1.1.1.1.1.1.1.1.1.j = ] X.X.X.X.^ ^ ] ) ` ^ ` X.) ! X.X.X.X.] r 1.1.1.1.",
"1.1.1.1.1.1.1.1.1.1.1.1.1.1.1.1.1.1.1.1.1.1.1.j = ] X.X.X.X.^  .X.) ] X.X.X.X.^ X.X.X.X.| 5 1.1.1.1.",
"1.1.1.1.1.1.1.1.1.1.1.1.1.1.1.1.1.1.1.1.1.1.1.j = ` X.X.X.X.^ X.X.] ] X.X.X.X.) X.X.X.X.] 5 1.1.1.1.",
"1.1.1.1.1.1.1.1.1.1.1.1.1.1.1.1.1.1.1.1.1.1.1.j = ` X.X.X.X.^ X.X.X.X.X.X.X.X.^ X.X.X.X.] t 1.1.1.1.",
"1.1.1.1.1.1.1.1.1.1.2.2.1.1.1.1.1.1.1.1.1.1.1.x = ] ) ^ ^ | ^  .X.X.X.X.X.X.X.) X.X.X.X.] 6 1.1.1.1.",
",.,.,.,.,.,.,.,.,.2.>.,.,.,.,.<.<.,.,.,.,.,.2.h = ~  .X.X.` ! X.X.X.X.X.X.X.[ ) X.X.X.X. .t 1.1.1.1.",
"@ @ q 0 @ @ @ # @ z # @ @ @ @ 9 0 @ @ @ @ @ g o = ] X.X.X.X.^ ] X.X.X.X.X.X.X.Z X.X.X.X.] 5 1.1.1.1.",
"X.X.] d X.X.X.X.X.u ] X.X.X.X./ l X.X.X.X.X.t l = ] X.X.X.X.^ X.X.3.X.X.X.X.X.) X.X.X.@.] 5 1.1.1.1.",
"X.X.[ ) X.X.X.X.X.^ [ X.X.X.X.X.) X.X.X.X.X.^ l = ] X.X.X.X.^  .X.X.X.X.X.X.X.) X.X.X.X. .5 1.1.1.1.",
"X.X.X.^ X.X.X.X.X.^ X.X.X.X.X.] ) X.X.X.X.X.) l = ~ ] ] X.) ~ ^ X.X. .X.X.X.^ ! ^  . .X.! 5 1.1.1.1.",
"X.X.X.) X.X.X.X.X.^ X.X.X.X.X.] ) X.X.X.X.X.^ l = ! ! ! ! ! ! ! A ~ A A A A ! ! ! ! ! ! ! 5 1.1.1.1.",
"X.X. .) X.X.X.X.X.^ X.X.X.X.X.X.) X.X.X.X.X.^ l = ~ ! ! ! ! m ! A A ~ A A ! ! m ! ! ! ! ! 5 1.1.1.1.",
"X.X.X.)  .) ) ) ] ^ X.X.X.X.X.] ` ] ) ) ) ] ^ ] e i ! ! ! m 6 7 ~ A A A S ! m 6 m ! ! ! s e 1.1.1.1.",
"X.X.X.~ ` ^ ] ^ ) ! X.X.X.X.X. .~ ` X.X. .^ ~ X.] ; , 6 6 6 , 3 6 6 6 5 6 6 3 6 3 6 6 6 = [ 1.1.1.1.",
"X.X.X.) X.^ X.X.X.^  .X.X.X.X.X.` X.X.X.X.X.) X.X.; 0.c.p.p.p.p.p.p.q.e.e.r.v.p.p.p.p.p.@ X.1.1.1.1.",
"X.X. .^ X.^ X.X.X.^ X.X.X.X.X.] ) X.X.X.X.X.^ X.X.; 0.c.b.p.m.N.m.w.$ M a k k.N.N.N.c.p.@ X.1.1.1.1.",
"X.X.X.) X. .X.X.X.^ X.X.X.X.X. .` X.X.X.X.X.^ X.X.; 0.c.L.m.G.K.9.%   H N   q H.K.K.M.p.@ X.1.1.1.1.",
"X.X.X.^ X.X.X.X.X.^  .^ ^ ^ ^ ]  .X.X.X.X.X.^ X.X.; 0.v.K.J.J.K.8.N G ;.P N M T.K.K.N.p.# X.1.1.1.1.",
"X.X.X.) X.X.X.X.X.^ ^ X.X.)  .^ } X.X.X.X.X.^ X.X.; 0.v.K.K.K.K.h.H G Y =.S F E.K.K.N.p.@ X.1.1.1.1.",
"X.X.X.^ X.X.X.X.X.^ X.X.X.] X. .] X.X.X.X.X.^ X.X.; 0.v.K.K.K.K.V.O., I J i %.R.K.K.N.p.@ X.1.1.1.1.",
"X.X.X.) X.X.X.X.X.^  .X.X.X.X. .) ] X.X.X.X.^ X.X.q 0.c.K.K.K.K.K.P.O.F F %.U.I.K.K.N.c.@ X.1.1.1.1.",
"X.X.X.^ X.X.X.X.X.^ X.X.X.X.X.] ) ^ X.X.X.X.^ X.X.B e.v.K.K.K.K.K.I.T.Y.Y.U.I.K.K.K.N.p.E X.1.1.1.1.",
"X.X.X.) X.X.X.[ ' < * _ ' ' ' / Q C ( W _ ; O _ ] X.) x.S.S.S.S.S.S.S.S.S.S.S.S.S.S.z.} X.X.1.1.1.1.",
"] X.X.^ X.X.[ d < *.t.- r r r r r r r r 4 K y.; u ' X.) ^ ^ ^ ^ ~ ^ ^ ^ ) ^ ^ ) ^ ^ ) X.X.X.1.1.1.1.",
"` X.X.) X.X.' r I &.o.P ;.;.;.;.;.;.;.;.=.&.*.P Z d X.X.` ` X.X. .`  .^ X.X.X.X.] ` X.X.X.X.1.1.1.1.",
"` X.[ ) X.X.' - P I I :.Z.Z.Z.Z.Z.Z.Z.Z.f.I I I 7 d X.X.` ) X.X.X.X.X.^ X.X.X.X. .) X.X.X.X.1.1.1.1.",
"^  . .^ X.X.' 2 T T -.A.F.L.K.K.K.K.K.G.N.u.U U v u X.X.` } X.X.X.X.X.^ X.X.X.X. .) X.X.X.X.1.1.1.1.",
"^ ) ! ! ^  .Q 2 T T -.K.G.B.G.K.K.G.F.B.J.u.&.H p u ] ` ~ A ^  .] } ^ A ~  .)  .A A } ` ) ) 1.1.1.1.",
"! ! ! ! A ~ m > J J -.K.K.F.B.B.B.B.B.K.K.u.T T b 5 ! ! A A ~ ! ! A ~ A ! ! ! ! A ~ ! ! ~ ! 1.1.1.1.",
"! ! A p ! ! m : I I -.J.K.K.L.G.G.J.K.K.K.u.T T b 5 ! ! m m ! ! ! ! ! p ! ! ! ! M m ! A A ! 1.1.1.1.",
"M M 6 6 p M s > F Y R u.D.D.D.D.D.D.D.D.n.-.R F i 5 A m 4 4 m M ! V 7 3 7 M M m 6 6 m V A M 1.1.1.1.",
"V V V V V V V F P ;.y.Y L L L L L L L L L =.y.I G V V V V V V V V V V V V V V V V V V V V s 1.1.1.1.",
"p.p.p.p.p.p.p.q.! D D a + + + + + + + + + n } ! o.p.p.p.p.p.p.p.p.p.p.p.p.p.p.p.p.p.p.p.p...1.1.1.1.",
"m.F.F.F.F.F.F.s.! M ,                     & p ! #.F.F.F.F.F.F.F.F.F.F.F.F.m.p.v.A.F.F.F.p...1.1.1.1.",
"F.K.K.K.K.K.K.h.) ^ ,                     & V ] 5.K.K.K.h.| | | | a.K.K.K.K.m.v.K.K.K.K.p...1.1.1.1.",
"F.K.K.K.L.K.K.h.) X.1                     & ( ] %.J.K.S.) 3.4.6.4.) V.K.K.K.K.M.K.K.K.K.p...1.1.1.1.",
"F.K.L.m.B.K.K.h.) X.5                     & ( ( { J.K.S.) g.V.j.l.) V.K.K.K.K.K.K.K.K.K.i.C 1.1.1.1.",
"$.5.4.&.$.5.5.+.) X.,                     & ( ( f 5.5.#.) g.C.C.l.` +.5.5.5.5.5.5.5.5.5.o.u 1.1.1.1.",
"X. .X.X.] X. .` ) X.5                     & ( ( i ) X.] ) g.K.K.l.) ` X.X.] X.]  .X.] X.( & 1.1.1.1.",
"i 7 i 6 i i y m ` X.5                     & ( ( 6 y y i s g.d.7.l.B 6 i y i i y i y y i s d 1.1.1.1.",
"` ^ X.) ` [ ^ ] ) X.1                     & ( ( i ] ^ ] s 6.V.V.a.C m X.^ ) ] ^ ] ` ^ X.^ d 1.1.1.1.",
"` ^ X.^ ` | ^ ] ) X.1                     & ( ( 7 | ^ X.s s s s s s M | ^ ` ] ^ ] ) ) ] ^ d 1.1.1.1.",
"] ^ X.^ ` ] ^ ] ) X.5 X i i a i i i i s , = ( ( i ` ^ [ ! m m m M V !  .^ ) ] ^  .) ) X.V - 1.2.1.1."
};
