/* XPM */
static char *result[] = {
/* columns rows colors chars-per-pixel */
"50 50 111 2 ",
"   c #141B1B",
".  c #141C1B",
"X  c #151C1C",
"o  c #30563E",
"O  c #32573E",
"+  c #33583D",
"@  c #33583E",
"#  c #355A3D",
"$  c #446338",
"%  c #3F7450",
"&  c #405846",
"*  c #50594D",
"=  c #58645C",
"-  c #407650",
";  c #417A52",
":  c #437C54",
">  c #437D54",
",  c #447F56",
"<  c #65745F",
"1  c #5F6E6B",
"2  c #6A6E69",
"3  c #717879",
"4  c #458257",
"5  c #478457",
"6  c #458258",
"7  c #468358",
"8  c #468459",
"9  c #47855A",
"0  c #48895C",
"q  c #4A8B5D",
"w  c #498B5E",
"e  c #4A8B5E",
"r  c #498C5E",
"t  c #57985F",
"y  c #57995F",
"u  c #5F9B5A",
"i  c #58995F",
"p  c #5A9B5E",
"a  c #5B9B5E",
"s  c #5C9C5D",
"d  c #5E9D5D",
"f  c #5F9E5D",
"g  c #659D55",
"h  c #629F5B",
"j  c #619F5C",
"k  c #63A15B",
"l  c #64A25B",
"z  c #66A35A",
"x  c #66A25B",
"c  c #67A45A",
"v  c #62A05C",
"b  c #63A15C",
"n  c #68A35A",
"m  c #68A459",
"M  c #69A559",
"N  c #6BA659",
"B  c #68A45A",
"V  c #69A45A",
"C  c #6CA758",
"Z  c #6CA759",
"A  c #6DA759",
"S  c #6EA958",
"D  c #70AA57",
"F  c #72AA57",
"G  c #74AB57",
"H  c #77AD54",
"J  c #74AC56",
"K  c #75AD56",
"L  c #74AC57",
"P  c #78AF55",
"I  c #79AF55",
"U  c #70A958",
"Y  c #7AB055",
"T  c #4B8E60",
"R  c #4B8F60",
"E  c #4C9060",
"W  c #4C9061",
"Q  c #4C9161",
"!  c #4E9261",
"~  c #4E9361",
"^  c #4F9361",
"/  c #4D9162",
"(  c #4D9262",
")  c #4E9262",
"_  c #4E9362",
"`  c #509361",
"'  c #519560",
"]  c #509461",
"[  c #519461",
"{  c #519561",
"}  c #529560",
"|  c #529561",
" . c #529660",
".. c #539660",
"X. c #579860",
"o. c #768375",
"O. c #8C967F",
"+. c #8D977F",
"@. c #7E8D84",
"#. c #828285",
"$. c #838286",
"%. c #9CAC9D",
"&. c #97A2A1",
"*. c #AAC1BB",
"=. c #ABC2BC",
"-. c #BFC0B8",
";. c #BDCCC9",
":. c #CED6D6",
">. c #E0E0E4",
",. c #F1E9F0",
"<. c #F2EAF1",
/* pixels */
"( ( ( ( ( ( ( ( ( ( ( ( ( ( ( ( ( ( ( ( ( ( ( ( ( ( ( ( ( ( ( ( ( ( ( W R / ( ( ( ( ( ( ( ( ( ( ( ( ",
"( ( ( ( ( ( ( ( ( ( ( ( ( ( ( ( ( ( ( ( ( ( ( ( ( ( ( ( ( ( ( ( ( ( Q e 9 R Q ( ( ( ( ( ( ( ( ( ( ( ",
"( ( ( ( ( ( ( ( ( ( ( ( ( ( ( ( ( ( ( ( ( ( ( ( ( ( ( ( ( ( ( ( ( ( R 6 - r R ( ( ( ( ( ( ( ( ( ( ( ",
"( ( ( ( ( ( ( ( ( ( ( ( ( ( ( ( ( ( ( ( ( ( ( ( ( ( ( ( ( ( ( ( ( W : 6 0 , 4 ( ( ( ( ( ( ( ( ( ( ( ",
"( ( ( ( ( ( ( ( ( ( ( ( ( ( ( ( ( ( ( ( ( ( ( ( ( ( ( ( ( ( ( ( ( T ; 7 w > , ( ( ( ( ( ( ( ( ( ( ( ",
"( ( ( ( ( ( ( ( ( ( ( ( ( ( ( ( ( ( ( ( ( ( ( ( ( ( ( ( ( ( ( ( ( ( ( 8 - T ( ( ( ( ( ( ( ( ( ( ( ( ",
"( ( ( ( ( ( ( ( ( ( ( ( ( ( ( ( ( ( ( ( ( ( ( ( ( ( ( ( ( ( ( ( ( ( ( q 8 E ( ( ( ( ( ( ( ( ( ( ( ( ",
"( ( ( ( ( ( ( ( ( ( ( ( ( ( ( ( ( ( ( ( ( ( ( ( ( ( ( ( ( ( ( ( ( ( ( ( ( ( ( ( ( ( ( ( ( ( ( ( ( ( ",
"( ( ( ( ( ( ( ( ( ( ( ( ( ( ( ( ( ( ( ( ( ( ( ( ( ( ( ` | ( ( ( ( ( ( ( ( ( ( ( ( ( ( ( ( ( ( ( ( ( ",
"( ( ( ( ( ( ( ( ( ( ( ( ( ( ( ( ( ( ( ( ( ( ( ( ( ( ( p j ! ) ( ( ( ( ( ( ( ( ( ( ( ( ( ( ( ( ( ( ( ",
"( ( ( ( ( ( ( ( ( ( ( ( ( ( ( ( ( ( ( ( ( ( ( ( ( ( ( M Y | ] ( ( ( ( ( ( ( ( ( ( ( ( ( ( ( ( ( ( ( ",
"( ( ( ( ( ( ( ( ( ~ [ ) ( ( ( ( ( ( ( ( ( ( ( ( ( ( ( M Y U l ( ( ( [ ^ ( ( ( ( ( ( ( ( ( ( ( ( ( ( ",
"( ( ( ( ( ( ( ( ( { X._ ( ( ( ( ( ( ( ( ( ( ( ( ( ( ( V I Y V Q ! ! X.' ( ( ( ( ( ( ( ( ( ( ( ( ( ( ",
"( ( ( ( ( ( ( ( ( d Y i ( ( ( ( ( ( ( ( ( ( ( ( ( ( ( x K Y m R ` t Y k ( ( ( ( ( ( ( ( ( ( ( ( ( ( ",
"( ( ( ( ( ( ( ( ( d Y i ( ^ _ ( ( ( ( ( ( ( ( ( ( ( ( p j H g 5 u n H h ( ( ( ( ( ( ( ( ( ( ( ( ( ( ",
"( ( ( ( ( ( ( ( ( d Y i ) @                                             ( ( ( ( ( ( ( ( ( ( ( ( ( ( ",
"( ( ( ( ( ( ( ( ( d Y i ..$                                             ( ( ( ( ( ( ( ( ( ( ( ( ( ( ",
"( ( ( ( ( ( ( ( ( d P # + < $.$.$.$.$.$.$.$.$.$.$.$.$.$.$.$.$.$.$.$.$.$.o o % ( ( ( ( ( ( ( ( ( ( ( ",
"( ( ( ( ( ( ( ( ( s K     $.<.<.<.<.<.<.<.<.<.<.<.<.<.<.<.<.<.<.<.<.<.,.    o ( ( ( ( ( ( ( ( ( ( ( ",
"( ( ( ( ( ( ( ( ( } s     $.<.<.<.<.<.<.<.<.<.<.<.<.<.<.<.<.<.<.<.<.<.,.    o ( ( ( ( ( ( ( ( ( ( ( ",
"( ( ( ( ( ( ( ( o     <.<.<.<.<.<.<.<.<.<.<.<.<.<.<.<.<.<.<.<.<.<.<.<.<.=.=.1     ( ( ( ( ( ( ( ( ( ",
"( ( ( ( ( ( ( ( o     <.<.<.<.<.<.<.<.<.<.<.<.<.<.<.<.<.<.<.<.<.<.<.<.<.=.=.1     ( ( ( ( ( ( ( ( ( ",
"! ) ( ( ( ( ( ( o     <.<.<.<.<.<.<.<.<.<.<.<.<.<.<.<.<.<.<.<.<.<.<.<.<.:.:.3     ( ( ( ( ( ( ( ( ( ",
"| ] ( ( ( ( ( ( o     <.<.<.<.<.<.<.<.<.<.<.<.<.<.<.<.<.<.<.<.<.<.<.<.<.<.<.#.    ( ( ( ( ( ( ( ( ( ",
"Z b [ ) ( ( ( ( o     <.<.<.<.<.<.<.<.<.<.<.<.<.<.<.<.<.<.<.<.<.<.<.<.<.<.<.#.    ( ( ( ( ( ( ( ( ( ",
"C k p ] ( ( ( ( o     <.<.:.=.=.=.=.=.=.=.=.=.=.=.=.<.<.<.<.<.<.<.<.<.<.<.<.#.    ( ( ( ( ( ( ( ( ( ",
"| f K y ( ( ( ( o     <.<.:.=.=.=.=.=.=.=.=.=.=.=.=.<.<.<.<.<.<.<.<.<.<.<.<.#.    ( ( ( ( ( ( ( ( ( ",
"B v s } ( ( ( ( o     :.:.;.=.=.=.=.=.=.=.=.=.=.=.=.:.:.>.<.<.$.$.$.$.$.:.:.3     ( ( ( ( ( ( ( ( ( ",
"K z ( ( ( ( ( ( o     =.=.=.=.=.=.=.=.=.=.=.=.=.=.=.=.=.:.<.,.        X =.=.1     ( ( ( ( ( ( ( ( ( ",
"( ( ( ( ( ( ( ( o     =.=.=.=.=.=.=.=.=.=.=.=.=.=.=.=.=.:.<.,.        X =.=.1     ( ( ( ( ( ( ( ( ( ",
"( ( ( ( ( ( ( ( o     +.+.%.=.=.=.=.=.=.=.=.=.=.=.=.=.=.:.<.,.        X =.=.1     ( ( ( ( ( ( ( ( ( ",
"( ( ( ( ( ( ( ( o     +.+.%.=.=.=.=.=.=.=.=.=.=.=.=.=.=.:.<.,.        X =.=.1     ( ( ( ( ( ( ( ( ( ",
"( ( ( ( ( ( ( ( o     +.+.%.=.=.=.=.=.=.=.=.=.=.=.=.=.=.;.:.:.1 1 1 1 1 =.=.&.$.$.o o % ( ( ( ( ( ( ",
"( ( ( ( ( ( ( ( o     +.+.%.=.=.=.=.=.=.=.=.=.=.=.=.=.=.=.=.=.=.=.=.=.=.=.=.:.<.,.    o ( ( ( ( ( ( ",
"( ( ( ( ( ( ( ( o     O.O.%.=.=.=.=.=.=.=.=.=.=.=.=.=.=.=.=.=.=.=.=.=.=.=.=.:.<.,.    o ( ( ( ( ( ( ",
"( ( ( ( ( ( ( ( ( ( (     * +.+.+.+.%.=.=.=.=.=.=.=.=.=.%.+.+.+.+.-.<.<.=.=.:.<.,.    o ( ( ( ( ( ( ",
"( ( ( ( ( ( ( ( ( ( (     * +.+.+.+.%.=.=.=.=.=.=.=.=.=.%.+.+.+.+.-.<.<.=.=.:.<.,.    o ( ( ( ( ( ( ",
"( ( ( ( ( ( ( ( ( ( ( o o & * * * * = 1 1 %.%.%.%.%.%.%.o.* * * * 2 $.$.1 1 3 $.$.O o % ( ( ( ( ( ( ",
"( ( ( ( ( ( ( ( ( ( ( ( ( o               +.+.+.+.+.+.+.*                         a ( ( ( ( ( ( ( ( ",
"( ( ( ( ( ( ( ( ( ( ( ( ( o               +.+.+.+.+.+.+.*                       . L ( ( ( ( ( ( ( ( ",
"( ( ( ( ( ( ( ( ( ( ( ( ( o         * +.+.=.=.=.=.=.+.+.+.+.+.+.+.*     ( c v ( M L ( ( ( ( ( ( ( ( ",
"( ( ( ( ( ( ( ( ( ( ( ( ( o         * +.+.=.=.=.=.=.+.+.+.+.+.+.+.*     ( J S ( V G ( ( ( ( ( ( ( ( ",
"( ( ( ( ( ( ( ( ( ( ( ( ( o     * * * * * :.:.:.:.:.* * o.%.%.-.-.2     ( J S ( x D ( ( ( ( ( ( ( ( ",
"( ( ( ( ( ( ( ( ( ( ( ( ( o     +.+.*     <.<.<.<.<.    1 =.=.<.<.#.    ( F A ( p d ( ( ( ( ( ( ( ( ",
"( ( ( ( ( ( ( ( ( ( ( ( ( o     +.+.*     <.<.<.<.<.    1 =.=.<.<.#.    ( D N ( ( ( ( ( ( ( ( ( ( ( ",
"( ( ( ( ( ( ( ( ( ( ( ( ( o     +.+.*     <.<.<.<.<.    * +.+.+.+.*     (  . .( ( ( ( ( ( ( ( ( ( ( ",
"( ( ( ( ( ( ( ( ( ( ( ( ( o     +.+.*     <.<.<.<.<.    * +.+.+.+.*     ( ( ( ( ( ( ( ( ( ( ( ( ( ( ",
"( ( ( ( ( ( ( ( ( ( ( ( ( % o o * * = 1 1 #.#.$.$.$.1 1 @.%.%.* * & o o ( ( ( ( ( ( ( ( ( ( ( ( ( ( ",
"( ( ( ( ( ( ( ( ( ( ( ( ( ( ( (     1 =.=.          =.=.=.=.*.    o ( ( ( ( ( ( ( ( ( ( ( ( ( ( ( ( ",
"( ( ( ( ( ( ( ( ( ( ( ( ( ( ( (     1 =.=.          =.=.=.=.*.    o ( ( ( ( ( ( ( ( ( ( ( ( ( ( ( ( "
};
