/* XPM */
static char *a51926b4a144458dc30c4870ab02bc1cRAQ7gootaeyRaUOo[] = {
/* columns rows colors chars-per-pixel */
"32 32 135 2 ",
"   c #465D34",
".  c #4B5D3D",
"X  c #4B672F",
"o  c #4D682E",
"O  c #4E6634",
"+  c #4F6A34",
"@  c #4D643A",
"#  c #4F693A",
"$  c #526C35",
"%  c #51663C",
"&  c #536D3A",
"*  c #557235",
"=  c #56713B",
"-  c #59743C",
";  c #5E793D",
":  c #617C3E",
">  c #4D5E42",
",  c #4E6241",
"<  c #516443",
"1  c #546C43",
"2  c #596E41",
"3  c #566C4B",
"4  c #5B6D4D",
"5  c #567142",
"6  c #5B7542",
"7  c #5E7A44",
"8  c #5D744B",
"9  c #566953",
"0  c #5E7653",
"q  c #5E705A",
"w  c #627746",
"e  c #627D44",
"r  c #62774F",
"t  c #647D4B",
"y  c #687F4C",
"u  c #617554",
"i  c #637B52",
"p  c #667759",
"a  c #647A59",
"s  c #6A7D5B",
"d  c #6C7D61",
"f  c #658145",
"g  c #698545",
"h  c #6A8846",
"j  c #66814B",
"k  c #6A854C",
"l  c #67884F",
"z  c #6E8A4C",
"x  c #718C4D",
"c  c #75904E",
"v  c #658251",
"b  c #6B8552",
"n  c #6E8953",
"m  c #6D8559",
"M  c #728C54",
"N  c #70875A",
"B  c #738D5A",
"V  c #769154",
"C  c #799555",
"Z  c #7C9855",
"A  c #76915A",
"S  c #7A955B",
"D  c #7D995B",
"F  c #6F8361",
"G  c #748666",
"H  c #768B66",
"J  c #788D61",
"K  c #76886B",
"L  c #779363",
"P  c #7D9563",
"I  c #7E9961",
"U  c #7E9069",
"Y  c #809C55",
"T  c #829C5C",
"R  c #85A15E",
"E  c #809767",
"W  c #839D63",
"Q  c #829769",
"!  c #889F6D",
"~  c #819273",
"^  c #8D9F7F",
"/  c #86A264",
"(  c #8AA464",
")  c #8FA866",
"_  c #86A268",
"`  c #8AA56A",
"'  c #8FAE69",
"]  c #8EAB6C",
"[  c #92AD6D",
"{  c #90AE6D",
"}  c #91AE6F",
"|  c #97B06F",
" . c #94B26F",
".. c #99B56D",
"X. c #9DBA6F",
"o. c #8EAB73",
"O. c #91AC71",
"+. c #92AD73",
"@. c #95AF72",
"#. c #94B075",
"$. c #95B274",
"%. c #99B474",
"&. c #9BB777",
"*. c #9BB976",
"=. c #9EBA74",
"-. c #9DBB77",
";. c #97B478",
":. c #97B47C",
">. c #98B379",
",. c #9BB67A",
"<. c #9EB878",
"1. c #9EB97B",
"2. c #9AB87C",
"3. c #A2BC7B",
"4. c #A5BD7B",
"5. c #A5C17C",
"6. c #AAC37F",
"7. c #9FBC80",
"8. c #A2BD81",
"9. c #A3BE81",
"0. c #A2BC82",
"q. c #A1BF83",
"w. c #A6BC88",
"e. c #A7BE89",
"r. c #A0B392",
"t. c #A6C280",
"y. c #A6C386",
"u. c #A7C484",
"i. c #A9C481",
"p. c #A8C484",
"a. c #A9C586",
"s. c #A7C488",
"d. c #A9C588",
"f. c #ACC88B",
"g. c #AEC395",
/* pixels */
"9 a 7.g.U s 3 @ 8 0 0 u H W w.g.B w k b 5 % G ~ 9 > a F 3 . p d ",
"3 j ' $.A n w & 7 f w t D ( #.#.M 7 e k $ # S _ w & y M y t y d ",
"0 l = * V D z h Z Z h z *.s.t & v n e w # @ O.f.M : x D -.4.z % ",
"0 l = & V Z Z Z Z Z h h O.2.t # i b e e 8 6 _ ;.M e D ( $.&.z 2 ",
"3 7 ; 8 l M 2.q.D l * + z h : 7 7 ; f h S L 6 $ e k @.p.V : x E ",
"3 f z M j j o.:.n j - # n V h f ; - x Z V M 7 & t k +.0.D x M L ",
"8 x =.4.e + 7 e + + - t >.p.` S ; +  .y.l + j b e w S W &.i.C r ",
"7 n ' $.8 1 6 7 - - 6 j ` ;.T B - $ ] 3.g $ e j y k n S [ -.V y ",
"5 7 * = y v w : V D z g - $ g k : e C W M g - o b Q 7 & e x C Q ",
"5 7 f 7 j g e e Y ( M z ; & x D k e B S k e - = n L e & x Z C E ",
"8 A *.q.M w g x <.p.( Z x z >.p.( S M k ; o w k e r j k @.i.T n ",
"8 l ' :.n e e k O.>.D M k k O.<.T M k k - ; M D k g g k } 3.V t ",
"X + ; f j l & & w t & & 6 ; : w & $ - e B I <.p.` D g : k x = O ",
"@ - ; f A C - $ t t = & j n g e = $ 6 e M B +.0.W V M x k g w = ",
"m L x n &.5.x 7 B I e w @.p.` S e w y j 2 & g x e : [ w.V : M E ",
"m L h l $.=.z e n B g j } <.T B M n k b 6 - e g x x } 3.z - n J ",
"i N $ % A W M b & # B D M x - $ @.w.M 7 j k e e | 6.T z = O 5 u ",
"r y w w N C v t 2 & P _ x t - - +.0.k - k n e e ) &.D z e e t y ",
"  & @.e.x : $ $ & t 2.p.M w k k W W 6 $ n I M g ; $ M W <.5.( J ",
"& - } 3.C z ; - b M $.=.c e v k M B 6 & n A x M - % b W @.5.( P ",
"r b Z T 3.q.W T <.y.S M C C v 7 & & t j w e C D y 6 k n Z / c n ",
"8 g Y ( <.3.W S :.<.S z M A n k - $ n S k e x S M b k g B Z h y ",
"  - | 6.T n - $ k B S D - * +.s.k : @.u.D k e e O.w.k o e x - % ",
". - ..4.V t - $ j j S S l f ] -.M g ` 3.B e x x [ 3.c e k N 6 % ",
"u M Y T j e j v 7 7 b M :.t.D V Z S V z * $ +.p.Y x | 4.` E y 4 ",
"a n M M t e B C l f j n #.7.V j A D k e ; & ) 4.C g } 4.( S z y ",
"a b = $ g x &.t./ C h : Z I - # j b 5 # t v T W k e A E M n A E ",
"0 b e ; h x $.3.T Z e 6 n A f 7 b n 1 & t n B A e 6 M S S T B B ",
"1 g &.8.) S V n B m 1 # 5 f #.t._ D n l e w k M - o e V @.8.z % ",
"1 e } >.W S b j n v 5 5 5 ; ' 3.R V h f e e k k e : : g [ 4.z < ",
"u n 6 - j l - = 6 7 B L 5 $ g N t e * # N T y t O.w.y O V ! s u ",
"q a , > u 0 @ @ < 8 G H 1 . r a 4 4 , . d K u 4 ^ r.u . s G u 9 "
};
