/* XPM */
static char *result[] = {
/* columns rows colors chars-per-pixel */
"32 32 166 2 ",
"   c #090202",
".  c #0E0A0A",
"X  c #160706",
"o  c #1F0604",
"O  c #1C0D0C",
"+  c #030C12",
"@  c #080F14",
"#  c #1E1211",
"$  c #16181C",
"%  c #1B1C1D",
"&  c #260907",
"*  c #2D0906",
"=  c #210C0B",
"-  c #2C0B0A",
";  c #370B08",
":  c #3C0E0B",
">  c #241414",
",  c #2A1615",
"<  c #29161A",
"1  c #2C1918",
"2  c #321C1A",
"3  c #24201F",
"4  c #0A1721",
"5  c #0E1820",
"6  c #0F1E28",
"7  c #0F222E",
"8  c #1C2125",
"9  c #1B272F",
"0  c #0F2A3A",
"q  c #122634",
"w  c #122837",
"e  c #1E2933",
"r  c #152C3C",
"t  c #242223",
"y  c #2A2323",
"u  c #2C2D2D",
"i  c #332625",
"p  c #302F2F",
"a  c #2E2C32",
"s  c #362831",
"d  c #333132",
"f  c #3B3A3A",
"g  c #4A0F0B",
"h  c #4B120E",
"j  c #52120E",
"k  c #5C130F",
"l  c #4C1511",
"z  c #411A1B",
"x  c #521410",
"c  c #5C1410",
"v  c #511815",
"b  c #5F1F1B",
"n  c #611915",
"m  c #691A16",
"M  c #6C1A15",
"N  c #791C16",
"B  c #7B1F19",
"V  c #5B221F",
"C  c #65241F",
"Z  c #7D211A",
"A  c #402E2D",
"S  c #492C2A",
"D  c #50312F",
"F  c #452D36",
"G  c #552D34",
"H  c #423231",
"J  c #4C3938",
"K  c #593E3C",
"L  c #682C28",
"P  c #62312E",
"I  c #6E322E",
"U  c #71302B",
"Y  c #683236",
"T  c #673936",
"R  c #783833",
"E  c #713D3A",
"W  c #7A3A3E",
"Q  c #6F423F",
"!  c #1C3444",
"~  c #1C384C",
"^  c #1F3D53",
"/  c #293646",
"(  c #273A4D",
")  c #373D49",
"_  c #203E53",
"`  c #2E3F53",
"'  c #4D3943",
"]  c #423D4C",
"[  c #6B3B43",
"{  c #743B41",
"}  c #1F425A",
"|  c #3F4243",
" . c #224057",
".. c #2E4255",
"X. c #224159",
"o. c #354053",
"O. c #3F4051",
"+. c #434546",
"@. c #41484D",
"#. c #4A4E4E",
"$. c #5B404B",
"%. c #535555",
"&. c #555A5E",
"*. c #585959",
"=. c #764643",
"-. c #714D4A",
";. c #6A5A59",
":. c #745250",
">. c #646464",
",. c #6B6C6D",
"<. c #7C6564",
"1. c #727272",
"2. c #7B7676",
"3. c #7B7B7B",
"4. c #821E17",
"5. c #831F19",
"6. c #87221B",
"7. c #8B221B",
"8. c #96251E",
"9. c #9F271F",
"0. c #A3281F",
"q. c #822721",
"w. c #9C2720",
"e. c #942C26",
"r. c #9B2922",
"t. c #873637",
"y. c #8C3738",
"u. c #88383A",
"i. c #913535",
"p. c #A42921",
"a. c #AC2B23",
"s. c #AF2F28",
"d. c #B52E25",
"f. c #B92F26",
"g. c #A8332E",
"h. c #BD3027",
"j. c #B4312A",
"k. c #BE3128",
"l. c #C13127",
"z. c #C13128",
"x. c #847E7E",
"c. c #8A7E7E",
"v. c #838384",
"b. c #8B8584",
"n. c #8B8C8C",
"m. c #938686",
"M. c #949494",
"N. c #9B9493",
"B. c #9B9B9B",
"V. c #A3A3A3",
"C. c #A8A9A9",
"Z. c #AFAFB0",
"A. c #B5B6B6",
"S. c #BBBCBC",
"D. c #C3C4C4",
"F. c #C9C7C7",
"G. c #CDCDCD",
"H. c #D6D6D6",
"J. c #D8D7D7",
"K. c #D7D8D8",
"L. c #DDDDDD",
"P. c #E5E5E5",
"I. c #E7E8E8",
"U. c #ECECEC",
"Y. c #F3F3F3",
"T. c #FCFCFC",
/* pixels */
"I.I.T.T.Y.P.Y.T.Y.I.Y.T.T.I.U.T.T.I.I.T.T.U.I.T.T.Y.I.Y.T.Y.I.U.",
"U.I.Y.T.Y.I.Y.T.Y.I.U.T.Y.I.U.T.T.I.U.Y.T.U.I.Y.T.U.I.Y.T.Y.I.Y.",
"T.T.U.I.Y.T.Y.I.Y.T.Y.I.Y.T.Y.I.U.Y.T.U.U.Y.T.U.I.Y.T.Y.I.Y.T.Y.",
"T.T.U.I.Y.T.Y.I.Y.T.Y.I.U.T.T.I.I.T.T.I.I.Y.T.U.I.Y.T.Y.I.Y.T.Y.",
"Y.U.Y.T.Y.I.Y.T.Y.I.Y.T.Y.U.Y.P.>.*.%.%.%.%.%.B.T.Y.U.Y.T.Y.I.Y.",
"I.I.Y.T.Y.P.Y.T.Y.P.U.T.T.I.F.x.C k c c c c n =.V.I.I.Y.T.Y.P.Y.",
"Y.T.Y.U.Y.T.Y.U.Y.T.Y.U.U.H.c.l f.z.z.z.l.k.z.5.D A.U.Y.U.Y.Y.Y.",
"T.T.U.P.Y.T.Y.P.Y.T.Y.I.U.,.l f.f.f.f.l.h.h.h.h.9.2 A.U.I.Y.T.Y.",
"Y.U.Y.Y.U.U.Y.T.Y.U.Y.Y.Y.>.g f.f.f.l.l.h.f.f.z.f.w.S M.T.Y.U.Y.",
"I.P.T.T.Y.P.Y.T.Y.I.Y.Y.n.E 8.a.n j 8.l.z.h.h.f.f.f.* v.T.Y.I.U.",
"Y.Y.Y.U.Y.Y.Y.Y.Y.Y.Y.P.d N z.p.o #.Q 5.7.d.f.l.d.5.& 3.Y.Y.Y.Y.",
"T.T.U.I.Y.T.Y.I.Y.Y.H.S.u N z.p.> F.B.d H e.f.f.e.H . 3.I.Y.T.Y.",
"Y.Y.Y.Y.Y.Y.Y.I.U.n.t 3 . B z.p.> S.Y.U.J.A 5.5.J H.f 3.T.Y.Y.Y.",
"I.I.T.T.U.P.J.*.+.Y 7.7.7.k M f.8.K C.T.U.u 4.4.f I.f v.T.Y.P.U.",
"Y.Y.Y.Y.Y.G.2.b k 7.z.k.u.s y B d.N :.n.v.L 9.9.I x.% 3.T.Y.U.Y.",
"T.T.U.P.J.m.l d.z.h.j.i.o.~ w < d.z.B - : a.h.z.p.X u B.I.Y.T.Y.",
"Y.Y.Y.Y.1.v f.j.f.f.i.( _ 6 6 ] s.f.j.s.d.h.h.h.w.O C.I.Y.Y.Y.Y.",
"I.I.Y.T.1.h z.k.h.B = @ @ w ' g.j.z.W [ h.k.k.7.&   t B.T.Y.I.U.",
"Y.U.Y.T.1.g z.z.l.m u M.t 0 $.z.h.h.[ / l l x m Z B B =.M.U.U.Y.",
"T.T.U.I.V.-.Z N B E 3.N.P G Y 6.f.h.t.G h h l B k.k.z.c | Y.T.Y.",
"T.T.U.U.P.N.& &   2.D.> e.j.6.: w.d.h.h.h.h.k.h.k.f.z.c +.U.T.Y.",
"I.I.Y.T.x.V a.a.; 1.A.% / t.h.w.; w.h.h.d.h.d.h.f.f.k.n #.U.I.Y.",
"I.I.Y.2.R 0.f.k.p.R @.! } ) W h.8.x : : : : : : : : : <.G.U.I.Y.",
"T.P.b.U 9.z.z.k.t.F w X.} } O.{ { a 7 7 7 7 + f v.v.v.S.U.Y.T.Y.",
"T.D.# p.k.a.7.i.] } X.X. .~ r r ! _ X.X.X.^ q &.S.Y.T.Y.I.Y.T.Y.",
"Y.A.i r.d.q.t (  .X.X. .^ e % $ % ! _ X.X.` ` a f P.U.Y.T.Y.I.Y.",
"U.P.F.J o ;.Z.8 r X.X._ $ v.G.H.G.| w X...y.s.C f L.I.Y.T.Y.I.U.",
"Y.T.U.V.M.D.I.M.) 4 5 9 v.K.T.Y.U.@.z u.u.j.B * d U.T.Y.I.Y.T.Y.",
"T.T.U.I.T.T.Y.I.n.>.>.1.P.T.T.L.V.T 7.z.h.h.B h P V.I.Y.I.Y.T.Y.",
"Y.U.Y.T.U.U.Y.T.Y.I.Y.Y.Y.U.Y.K.y 5.a.p.a.p.0.a.7.# A.T.T.Y.U.Y.",
"I.I.Y.T.U.I.Y.T.Y.P.Y.T.Y.I.U.L.p > , 1 1 , , 1 , % A.Y.T.Y.I.U.",
"Y.Y.Y.Y.Y.Y.Y.Y.Y.Y.Y.Y.Y.Y.Y.I.S.S.S.A.A.S.S.A.A.S.I.Y.Y.Y.Y.Y."
};
