/* XPM */
static char *c4d5ea1d6e9b4463b6e2d73fa69c7ec8Zf2BjE0Zj8plMw1m[] = {
/* columns rows colors chars-per-pixel */
"50 50 165 2 ",
"   c None",
".  c #141B1B",
"X  c #151C1C",
"o  c #1B2923",
"O  c #1B2A24",
"+  c #1F3228",
"@  c #21352A",
"#  c #27302F",
"$  c #2B322D",
"%  c #22382C",
"&  c #22392D",
"*  c #2B3232",
"=  c #303536",
"-  c #323A34",
";  c #294735",
":  c #294836",
">  c #30563E",
",  c #3A4543",
"<  c #3B5047",
"1  c #345E43",
"2  c #376547",
"3  c #386547",
"4  c #3B6D4C",
"5  c #3F7450",
"6  c #414940",
"7  c #42494A",
"8  c #425F4F",
"9  c #50594D",
"0  c #4B4F50",
"q  c #4C4F50",
"w  c #4C5050",
"e  c #4C5957",
"r  c #595C5D",
"t  c #4E655B",
"y  c #5A6357",
"u  c #5F695A",
"i  c #407650",
"p  c #417A52",
"a  c #437C54",
"s  c #437D54",
"d  c #427C55",
"f  c #437C55",
"g  c #447F56",
"h  c #5D6262",
"j  c #546860",
"k  c #5F6E6B",
"l  c #636962",
"z  c #636E61",
"x  c #67686B",
"c  c #68696C",
"v  c #64716B",
"b  c #64726B",
"n  c #727E6E",
"m  c #6E7774",
"M  c #6A7971",
"N  c #757579",
"B  c #458257",
"V  c #458258",
"C  c #468358",
"Z  c #468459",
"A  c #47855A",
"S  c #48895C",
"D  c #498B5E",
"F  c #4A8B5E",
"G  c #498C5E",
"H  c #57995F",
"J  c #5A9B5E",
"K  c #5C9C5D",
"L  c #5F9E5D",
"P  c #63A15B",
"I  c #66A35A",
"U  c #62A05C",
"Y  c #63A15C",
"T  c #75AD56",
"R  c #4B8E60",
"E  c #4B8F60",
"W  c #4C9061",
"Q  c #4C9161",
"!  c #4D9162",
"~  c #4D9262",
"^  c #4E9262",
"/  c #509461",
"(  c #519461",
")  c #529560",
"_  c #768375",
"`  c #7D8672",
"'  c #7D8772",
"]  c #72837F",
"[  c #76867E",
"{  c #7F8D7F",
"}  c #8D977F",
"|  c #838286",
" . c #8C928F",
".. c #899889",
"X. c #919C87",
"o. c #919788",
"O. c #849893",
"+. c #859893",
"@. c #859894",
"#. c #8E9897",
"$. c #9AA18D",
"%. c #92A293",
"&. c #96A492",
"*. c #9CA094",
"=. c #98A796",
"-. c #98A79B",
";. c #9CAC9D",
":. c #9FAC9C",
">. c #A6AB9B",
",. c #A1AC9D",
"<. c #9E9BA0",
"1. c #9F9CA0",
"2. c #9F9CA1",
"3. c #9CADA2",
"4. c #98ADA8",
"5. c #A6AEA0",
"6. c #ABAEA3",
"7. c #A1ADAB",
"8. c #A9ACAE",
"9. c #A0B1A5",
"0. c #A3B1A4",
"q. c #A2B1A5",
"w. c #A5B1A4",
"e. c #AAB0A3",
"r. c #AAB1A3",
"t. c #A1B4A8",
"y. c #A3B7AC",
"u. c #A6B7AC",
"i. c #B2B6AA",
"p. c #A7BDB4",
"a. c #AFB9B8",
"s. c #B8B9B1",
"d. c #BAB5BA",
"f. c #BBB6BB",
"g. c #BBBCBF",
"h. c #AAC1BC",
"j. c #ABC2BC",
"k. c #BAC1B9",
"l. c #BFC0B8",
"z. c #B3C7C3",
"x. c #BFCBC9",
"c. c #BDCCC9",
"v. c #C7CBC7",
"b. c #CCCBC6",
"n. c #C2CBC8",
"m. c #C7CBC8",
"M. c #CBCECB",
"N. c #C5D0CE",
"B. c #C5D1CF",
"V. c #C6D1CF",
"C. c #D5CFD5",
"Z. c #CED6D6",
"A. c #D6D0D6",
"S. c #D6D1D6",
"D. c #D8D5D4",
"F. c #D7DBDD",
"G. c #DFDADB",
"H. c #DFDAE0",
"J. c #E4DDE3",
"K. c #E5DFE2",
"L. c #E0E0E4",
"P. c #E5E2E7",
"I. c #E9E5EA",
"U. c #F1E9F0",
"Y. c #F2EAF1",
/* pixels */
"~ ~ ~ ~ ~ ~ ~ ~ ~ ~ ~ ~ ~ ~ ~ ~ ~ ~ ~ ~ ~ ~ ~ ~ ~ ~ ~ ~ ~ ~ ~ ~ ~ ~ E ~ ~ ~ ~ ~ ~ ~ ~ ~ ~ ~ ~ ~ ~   ",
"~ ~ ~ ~ ~ ~ ~ ~ ~ ~ ~ ~ ~ ~ ~ ~ ~ ~ ~ ~ ~ ~ ~ ~ ~ ~ ~ ~ ~ ~ ~ ~ ~ ~ S A E ~ ~ ~ ~ ~ ~ ~ ~ ~ ~ ~ ~   ",
"~ ~ ~ ~ ~ ~ ~ ~ ~ ~ ~ ~ ~ ~ ~ ~ ~ ~ ~ ~ ~ ~ ~ ~ ~ ~ ~ ~ ~ ~ ~ ~ ~ E V i S E ~ ~ ~ ~ ~ ~ ~ ~ ~ ~ ~   ",
"~ ~ ~ ~ ~ ~ ~ ~ ~ ~ ~ ~ ~ ~ ~ ~ ~ ~ ~ ~ ~ ~ ~ ~ ~ ~ ~ ~ ~ ~ ~ ~ E s V S g V ~ ~ ~ ~ ~ ~ ~ ~ ~ ~ ~   ",
"~ ~ ~ ~ ~ ~ ~ ~ ~ ~ ~ ~ ~ ~ ~ ~ ~ ~ ~ ~ ~ ~ ~ ~ ~ ~ ~ ~ ~ ~ ~ ~ E p V G s s ~ ~ ~ ~ ~ ~ ~ ~ ~ ~ ~   ",
"~ ~ ~ ~ ~ ~ ~ ~ ~ ~ ~ ~ ~ ~ ~ ~ ~ ~ ~ ~ ~ ~ ~ ~ ~ ~ ~ ~ ~ ~ ~ ~ ~ ~ V i E ~ ~ ~ ~ ~ ~ ~ ~ ~ ~ ~ ~   ",
"~ ~ ~ ~ ~ ~ ~ ~ ~ ~ ~ 2 & & & & & & & & & & & & & & & & & & & & & & @ + & & & > ~ ~ ~ ~ ~ ~ ~ ~ ~   ",
"~ ~ ~ ~ ~ ~ ~ ~ ~ ~ ~ > . . . . . . . . . . . . . . . . . . . . . . . . X X . ; ~ ~ ~ ~ ~ ~ ~ ~ ~   ",
"~ ~ ~ ~ ~ ~ ~ ~ ~ ~ ~ > . . . . . . . . . . . . . . . . . . . . . . . . . . . ; ~ ~ ~ ~ ~ ~ ~ ~ ~   ",
"~ ~ ~ ~ ~ ~ ~ ~ 3 : : v 1.1.1.1.1.1.1.1.1.1.1.1.1.1.1.1.1.1.1.1.1.<.1.1.1.1.1.m : ; 1 ~ ~ ~ ~ ~ ~   ",
"~ ~ ~ ~ ~ ~ ~ ~ ; . . | Y.Y.Y.Y.Y.Y.Y.Y.Y.Y.Y.Y.Y.Y.Y.Y.Y.Y.Y.Y.Y.Y.Y.Y.Y.Y.Y.<.X . % ~ ~ ~ ~ ~ ~   ",
"~ ~ ~ ~ ~ ~ ~ ~ ; . . | Y.Y.Y.Y.Y.Y.Y.Y.Y.Y.Y.Y.Y.Y.Y.Y.Y.Y.Y.Y.Y.Y.Y.Y.Y.Y.Y.<.. . % ~ ~ ~ ~ ~ ~   ",
"~ ~ ~ ~ ~ 3 > > t k k 8.Y.Y.Y.Y.Y.Y.Y.Y.Y.Y.Y.Y.Y.Y.Y.Y.Y.Y.Y.Y.Y.Y.Y.Y.Y.Y.Y.g.k k j > > 1 ~ ~ ~   ",
"~ ~ ~ ~ ~ & . . ] j.j.Z.Y.Y.Y.Y.Y.Y.Y.Y.Y.Y.Y.Y.Y.Y.Y.Y.Y.Y.Y.Y.Y.Y.Y.Y.Y.Y.Y.F.j.j.O.. . O ~ ~ ~   ",
"~ ~ ~ ~ ~ & . . ] j.j.Z.Y.Y.Y.Y.Y.Y.Y.Y.Y.Y.Y.Y.Y.Y.Y.Y.Y.Y.Y.Y.Y.Y.Y.Y.Y.Y.Y.F.j.j.O.. . O ~ ~ ~   ",
"~ ~ ~ ~ ~ & . . ] j.j.Z.Y.Y.Y.Y.Y.Y.Y.Y.Y.Y.Y.Y.Y.Y.Y.Y.Y.Y.Y.Y.Y.Y.Y.Y.Y.Y.Y.F.j.j.O.. . O ~ ~ ~   ",
"~ ~ ~ ~ ! % . . ] j.j.Z.Y.Y.Y.Y.Y.Y.Y.Y.Y.Y.Y.Y.Y.Y.Y.Y.Y.Y.Y.Y.Y.Y.Y.Y.Y.Y.Y.F.j.j.@.X . O ~ ~ ~   ",
"~ ~ ~ ~ ! % . . ] j.j.Z.Y.Y.Y.Y.Y.Y.Y.Y.Y.Y.Y.Y.Y.Y.Y.Y.Y.Y.Y.Y.Y.Y.Y.Y.Y.Y.Y.F.j.j.O.. . O ~ ~ ~   ",
"~ ~ ~ ~ ! & . . ] j.j.Z.Y.Y.Y.Y.Y.Y.Y.Y.Y.Y.Y.Y.Y.Y.Y.Y.Y.Y.Y.Y.Y.Y.Y.Y.Y.Y.Y.F.j.j.O.. . O ~ ~ ~   ",
"~ ~ ~ ! ! & . . ] j.j.Z.Y.Y.Y.Y.Y.Y.Y.Y.Y.Y.Y.Y.Y.Y.Y.Y.Y.Y.Y.Y.Y.Y.Y.Y.Y.Y.Y.F.j.j.O.. . O ~ ~ ~   ",
"~ ~ ~ ~ ~ & X . ] j.j.Z.Y.Y.Y.Y.Y.Y.Y.Y.Y.Y.Y.Y.Y.Y.Y.Y.Y.Y.Y.Y.Y.Y.Y.Y.Y.Y.Y.F.j.j.O.. . O ~ ~ ~   ",
"~ ~ ~ ~ ~ & X . ] j.j.Z.Y.Y.J.C.A.A.A.A.A.I.I.I.I.I.I.I.I.I.A.A.C.C.A.A.K.Y.Y.F.j.j.O.. . O ~ ~ ~   ",
"~ ~ ~ ~ ~ % X X ] j.j.Z.Y.Y.<.. . . . . # j.j.j.j.j.j.j.j.j., . . . . . | Y.Y.F.j.j.O.. . O ~ ~ ~   ",
"~ ~ ~ ~ ~ % . X ] j.j.Z.Y.Y.1.X . . . . # j.j.j.j.j.j.j.j.j., . . . . . | Y.Y.F.j.j.O.. . O ~ ~ ~   ",
"Y ) ~ ~ ~ & X X ] j.j.Z.U.Y.1.X . . . . # h.h.h.j.j.j.j.j.p., X . . . . | Y.Y.F.j.j.O.. . O ~ ~ ~   ",
"Y J ~ ~ ~ & . X ] j.j.Z.Y.Y.1.. . . . . # h.h.h.j.j.j.j.j.j., X . . . . | Y.Y.F.j.j.O.. . O ~ ~ ~   ",
"L T J ~ ~ & . . ] j.j.Z.Y.Y.1.. . . X . # j.h.h.j.j.j.j.p.z., X . . . . | Y.Y.F.j.j.O.. . O ~ ~ ~   ",
"Y J ) ~ ~ % . . ] j.j.Z.Y.Y.1.. . . X X # j.h.z.j.j.j.j.z.p., X . . . X | Y.Y.F.j.j.O.. . O ~ ~ ~   ",
"I ~ ~ ~ ~ & . . ] j.j.0.$.$.6.A.S.S.S.S.A.I.I.I.I.I.I.I.P.I.H.A.D.A.A.A.s.$.$.:.j.j.O.. . O ~ ~ ~   ",
"~ ~ ~ ~ ~ & . . ] j.j.;.} ..i.Y.U.Y.U.U.Y.Y.Y.Y.Y.Y.Y.Y.U.U.U.U.Y.Y.Y.Y.g.} } =.j.j.O.. . O ~ ~ ~   ",
"~ ~ ~ ~ ~ & . . ] j.j.;.} } i.Y.Y.Y.U.Y.Y.Y.Y.Y.Y.Y.Y.Y.Y.Y.Y.Y.U.U.U.U.l.} } =.j.j.O.. X O ~ ~ ~   ",
"~ ~ ~ ~ ~ s 5 5 8 , , z } } 5.c.c.4.w w r Y.Y.Y.0 0 w A.Y.U.N w w #.c.n.0.} } n , , < 5 5 s ~ ~ ~   ",
"~ ~ ~ ~ ~ ~ ~ ~ : . . 9 } } =.j.j.@.. . = Y.Y.Y.X . X C.Y.U.w X X ] h.h.;.} } u . . % ~ ~ ~ ~ ~ ~   ",
"~ ~ ~ ~ ~ ~ ~ ~ ; . . 9 } } =.j.j.@.. . = Y.Y.Y.X . X A.Y.U.w X X ] j.j.;.} } u . . % ~ ~ ~ ~ ~ ~   ",
"~ ~ ~ ~ ~ ~ ~ ~ ; . . $ 6 6 M j.j.O.. . * B.B.B.. . X a.N.n.7 . X ] j.j.[ 6 6 - . . @ ~ ~ ~ ~ ~ ~   ",
"~ ~ ~ ~ ~ ~ ~ ~ ; . . . . . e j.j.O.. . $ j.j.j.. X X 4.z.p., . X ] j.j.k . . . . . & ~ ~ ~ ~ ~ ~   ",
"~ ~ ~ ~ ~ ~ ~ ~ ; . . . . . e j.j.O.X . # j.j.j.. . X 4.j.j., . X ] j.j.k . . . . . % ! ~ ~ ~ ~ ~   ",
"~ ~ ~ ~ ~ 2 > > b | | | | |  .;.;...9 9 y ;.;.;.9 9 9 %.;.;.z 9 9 { ;.=._ 9 9 l | | m > > 1 ~ ~ ~   ",
"~ ~ ~ ~ ~ & . . 1.Y.Y.Y.Y.Y.b.} } } } } } } } } } } } } } } } } ..} } } } } } i.U.Y.f.. X O ~ ~ ~   ",
"~ ~ ~ ~ ~ & . . 1.Y.Y.Y.Y.Y.b.} } } } } } } } } } } } } } } } } } } } } } } } i.Y.Y.f.. . o ~ ~ ~   ",
"~ ~ 4 3 2 b c c f.Y.Y.P.F.F.v.i.i.r.=.=.=.=.=.=.} } } &.=.=.=.=.=.r.i.i.>.=.=.k.Y.Y.A.x x h 2 2 2   ",
"~ ~ O . . f.Y.Y.Y.Y.Y.Z.j.j.B.Y.Y.L.j.j.j.j.j.j.} } } p.j.j.j.j.j.F.Y.Y.Z.j.j.B.Y.Y.Y.Y.Y.A.. . X   ",
"~ ~ O . . f.Y.Y.Y.Y.Y.Z.j.j.B.Y.Y.L.j.j.j.j.j.j.} } } p.j.j.j.j.j.F.Y.Y.Z.j.j.B.Y.Y.Y.Y.U.C.. . .   ",
"~ ~ O . . f.Y.Y.K.D.D.n.j.j.x.D.D.M.y.y.y.y.y.y.} } } t.y.y.y.y.y.m.D.D.n.j.j.x.D.D.G.Y.Y.C.. . X   ",
"~ ~ O . . f.Y.Y.i.} } ;.j.j.9.} } } } } } } } } } } } } } } } } X.} } } ;.j.j.9.} } >.Y.Y.C.. . .   ",
"~ ~ O . . f.Y.Y.i.} } ;.j.j.9.} } } } } } } } } } } } } } } } } } } } } ;.j.j.9.} } >.U.Y.A.. . X   ",
"~ ~ & o o 1.C.C.*.` ` -.z.z.u.X.X.X.X.X.X.` ' ' ' ` ' ' ` ` X.X.X.X.X.X.q.z.z.3.' ' o.A.A.f.o o o   ",
"~ ~ ~ ~ ~ & . . . . . | Y.Y.F.j.j.j.j.j.4.. . . . . . X . . +.j.j.j.j.j.Z.Y.Y.<.. . . . . o ~ ~ ~   ",
"~ ~ ~ ~ ~ & . . . . . | Y.Y.F.j.j.j.j.j.4.. . . . . . . . . +.j.j.j.j.j.Z.U.U.<.. . . . . o ~ ~ ~   ",
"~ ~ ~ ~ ~ & . . . . . | Y.Y.F.j.j.j.j.j.4.. . . . . . . . . +.j.j.j.j.j.Z.U.Y.<.. . . . . o ~ ~ ~   "
};
