/* XPM */
static char *f0917f5f35fc4d3cf236100e1417ccc1DQYLiXm0tiue24s9[] = {
/* columns rows colors chars-per-pixel */
"50 50 133 2 ",
"   c #141B1B",
".  c #151C1C",
"X  c #1B2923",
"o  c #1B2A24",
"O  c #27302F",
"+  c #22382C",
"@  c #22392D",
"#  c #2B3232",
"$  c #323A34",
"%  c #264031",
"&  c #294735",
"*  c #2B4835",
"=  c #294836",
"-  c #2B4836",
";  c #2D4F3A",
":  c #3A423A",
">  c #30563E",
",  c #31573E",
"<  c #33583E",
"1  c #3A4543",
"2  c #376547",
"3  c #386547",
"4  c #3B6D4C",
"5  c #3C6E4C",
"6  c #414940",
"7  c #4B544A",
"8  c #50594D",
"9  c #4C4F50",
"0  c #4C5957",
"q  c #4C5A57",
"w  c #486255",
"e  c #4E655A",
"r  c #5F695A",
"t  c #407650",
"y  c #417A52",
"u  c #437D54",
"i  c #447F56",
"p  c #5A6C62",
"a  c #5A6B66",
"s  c #5F6E6B",
"d  c #67696B",
"f  c #68696C",
"g  c #657064",
"h  c #6E7866",
"j  c #64726B",
"k  c #6C786B",
"l  c #677D74",
"z  c #757678",
"x  c #717879",
"c  c #458257",
"v  c #458258",
"b  c #47855A",
"n  c #48895C",
"m  c #498B5E",
"M  c #498C5E",
"N  c #5A9B5E",
"B  c #5F9E5D",
"V  c #63A15C",
"C  c #68A45A",
"Z  c #6CA759",
"A  c #75AD56",
"S  c #4B8E60",
"D  c #4B8F60",
"F  c #4C9060",
"G  c #4C9161",
"H  c #4E9361",
"J  c #4D9162",
"K  c #4D9262",
"L  c #519461",
"P  c #529561",
"I  c #6D807A",
"U  c #738077",
"Y  c #72827F",
"T  c #72837F",
"R  c #7A887D",
"E  c #8D977F",
"W  c #7E8D84",
"Q  c #828285",
"!  c #838286",
"~  c #838386",
"^  c #808885",
"/  c #8A918F",
"(  c #929E8A",
")  c #849893",
"_  c #859893",
"`  c #859894",
"'  c #8D9C91",
"]  c #94A18E",
"[  c #98A796",
"{  c #9DA695",
"}  c #9CAC9D",
"|  c #A3A69D",
" . c #A2A998",
".. c #A6AC9B",
"X. c #9E9BA0",
"o. c #9F9CA1",
"O. c #9FA2A4",
"+. c #97ACA7",
"@. c #98ADA8",
"#. c #A5B1A3",
"$. c #A0B1A5",
"%. c #A9B4A7",
"&. c #A3B7AC",
"*. c #A9B7AB",
"=. c #B2B6AA",
"-. c #A9B1B2",
";. c #A6BAB5",
":. c #A7BDB4",
">. c #B2B1B5",
",. c #BAB5BA",
"<. c #BBB6BB",
"1. c #AAC1BC",
"2. c #ABC1BC",
"3. c #ABC2BC",
"4. c #BFC0B8",
"5. c #B3C7C3",
"6. c #C1C6C0",
"7. c #C4C0C6",
"8. c #CCCBC6",
"9. c #C5CBCC",
"0. c #CDCBCF",
"q. c #C6D1CF",
"w. c #CDD5D5",
"e. c #CED6D6",
"r. c #D6D0D6",
"t. c #D6D1D6",
"y. c #D9D5D4",
"u. c #D7DBDD",
"i. c #E4DDE3",
"p. c #E0E0E3",
"a. c #E0E0E4",
"s. c #F1E9F0",
"d. c #F2EAF1",
/* pixels */
"K K K K K K K K K K K K K K K K K K K K K K K K K K K K K K K K K K K D K K K K K K K K K K K K K K ",
"K K K K K K K K K K K K K K K K K K K K K K K K K K K K K K K K K K K n b m K K K K K K K K K K K K ",
"K K K K K K K K K K K K K K K K K K K K K K K K K K K K K K K K K K D v 5 M D K K K K K K K K K K K ",
"K K K K K K K K K K K K K K K K K K K K K K K K K K K K K K K K K K u v M v v K K K K K K K K K K K ",
"K K K K K K K K K K K K K K K K K K K K K K K K K K K K K K K K K S 5 n S u v K K K K K K K K K K K ",
"K K K K K K K K K K K K K K K K K K K K K K K K K K K K K K K K K K K n 4 D K K K K K K K K K K K K ",
"K K K K K K K K K K K K K K K K K K K K K K K K K K K K K K K K K K K n n K K K K K K K K K K K K K ",
"K K K K K K K K K K K K K K K K K K K K K K K K K K K K K K K K K K K K K K K K K K K K K K K K K K ",
"K K K K K K K K K K K K K K K K K K K K K K K K K K K K H K K K K K K K K K K K K K K K K K K K K K ",
"K K K K K K K K K K K K 4 & & * = = = = = = = * = * = * * * = * & & & & & & = = 2 K K K K K K K K K ",
"K K K K K K K K K K K K ,                                   .                   * K K K K K K K K K ",
"K K K K K K K K K K L K ,                                                       & K K K K K K K K K ",
"K K K K K K K K K 5 < , p ! ! ! ! ! ! ! ! ! ! ! ! ! ! ! ! ! ! ! ! ! ! ! ! ! ! ! j > > 2 K K K K K K ",
"K K K K K K K K K *     ! d.d.d.d.d.d.d.d.d.d.d.d.d.d.d.d.d.d.d.d.d.d.d.d.d.d.d.X.    @ K K K K K K ",
"K K K K K K K K K &     ! d.d.d.d.d.d.d.d.d.d.d.d.d.d.d.d.d.d.d.d.d.d.d.d.d.d.d.X.X   + K K K K K K ",
"K K K K K K 4 3 3 w 0 0 O.d.d.d.d.d.d.d.d.d.d.d.d.d.d.d.d.d.d.d.d.d.d.d.d.d.d.d.>.q q 1 2 2 4 K K K ",
"K K K K K K @     W 1.:.e.d.d.d.d.d.d.d.d.d.d.d.d.d.d.d.d.d.d.d.d.d.d.d.d.d.d.d.u.1.1._     o K K K ",
"K K K K K K @     W 1.5.e.d.d.d.d.d.d.d.d.d.d.d.d.d.d.d.d.d.d.d.d.d.d.d.d.d.d.d.u.1.3._     o K K K ",
"K K K K K K @     l 1.1.e.d.d.d.d.d.d.d.d.d.d.d.d.d.d.d.d.d.d.d.d.d.d.d.d.d.d.d.u.3.3._     o K K K ",
"K K K K K K @ .   I 1.5.e.d.d.d.d.d.d.d.d.d.d.d.d.d.d.d.d.d.d.d.d.d.d.d.d.d.d.d.u.3.3._   . o K K K ",
"K K K K K K @     I 1.1.e.d.d.d.d.d.d.d.d.d.d.d.d.d.d.d.d.d.d.d.d.d.d.d.d.d.d.d.u.3.1._ .   o K K K ",
"K K K K D K @     W 1.1.e.d.d.d.d.d.d.d.d.d.d.d.d.d.d.d.d.d.d.d.d.d.d.d.d.d.d.d.u.3.1.)     o K K K ",
"K K K K K K @     I 1.1.e.d.d.d.d.d.d.d.d.d.d.d.d.d.d.d.d.d.d.d.d.d.d.d.d.d.d.d.u.3.3._     X K K K ",
"K K K K D M @     W 1.1.w.d.d.d.d.d.d.d.d.d.d.d.d.d.d.d.d.d.d.d.d.d.d.d.d.d.d.d.u.3.3._     o H K K ",
"C B L K K K @ .   l 1.;.w.s.d.d.d.d.d.d.d.d.d.d.d.d.d.d.d.d.d.d.d.d.d.s.d.d.d.d.u.3.1.)     o K K K ",
"Z V N L K K @ .   W 1.5.w.s.d.o.        . O 3.3.1.1.3.3.3.3.3.1     .   . ! d.d.u.3.1._     o K K K ",
"N B A K K H @ .   I 1.1.e.d.d.o.          O 3.3.1.3.3.3.3.3.3.1           ! s.d.u.3.3._     X K K K ",
"V B N N K H @ .   W 1.1.e.d.d.o.          O 3.3.3.3.3.3.3.3.1.1           ! d.d.u.3.1._     X K K K ",
"A V K K K K @ .   I 1.1.e.d.d.o.          O 1.3.3.3.3.3.3.3.1.1           ~ d.d.u.3.3._     X K K K ",
"K K K K K K @ .   W 1.1.e.d.d.o.        . O 1.1.3.3.3.3.3.3.1.1   .       ~ d.d.u.3.3._     X K K K ",
"K K K K K K @ .   x 3.3.e.d.d.o.  .     . O 3.3.3.3.3.3.3.3.1.1 . . . .   ! d.d.u.3.3.)     X K K K ",
"K K K K K K @   . W 3.3.*.....| ,.,.,.,.<.7.a.a.a.a.a.a.a.a.a.7.<.<.<.<.,.%.....#.3.3.)     X K K K ",
"K K K K K K @ . . W 1.1.O.( E %.d.d.d.d.d.d.d.d.d.d.d.d.d.d.d.d.d.d.d.d.s.4.E E [ 1.3.)     X G K K ",
"K K K K K K @ . . I 1.1.+./ E =.d.d.d.d.s.d.d.d.d.d.d.d.d.d.d.d.d.d.d.d.s.4.E E [ 1.1.)     X H K K ",
"K K K ; * * l W W s q q h E E  .q.q.-.d d z d.d.d.d d f i.d.d.W d d O.q.q.%.E E U q q e 2 2 4 H K K ",
"K K K o . . W 3.;.2     7 E E [ 3.1._     # d.d.d.  . . t.d.d.9     W 5.1.[ E E r     + K K H K K K ",
"K K K o     ` 3.3.q     8 ( E ] 3.3._   . # d.d.d.    . t.d.d.9     W ;.1.+.( E r     + K K K K K K ",
"K K K o     ` 1.3.q     $ 8 8 x 3.3._ . . # e.w.w.    . 4.w.w.1     I 5.;.W q 9 :     + K K K K K K ",
"K K K o     ) 1.3.q         . q 3.3._   . O 3.3.3.    . @.1.1.1     W :.5.s           + K K K K K K ",
"K K K o     ` 1.3.q       . . 0 3.1._ . . O 3.3.3..   . @.5.1.1     l ;.1.s           + K K K K K K ",
"K K K ; & & a T Y x d d d d f ^ $.$.' : 6 8 } $.$.6 6 : [ $.$.r 6 6 R #.} x 6 6 $     + K K K K K K ",
"K K K K K K +     X.d.d.d.d.d.8.E E E E E ( E E E E E E E E E E E E E E ( E E E r     + K K K K K K ",
"K K K K K K +     X.d.d.d.d.d.8.E E E E E E E E E E E E E E E E E E E E E E ( E r     + K K K K K K ",
"K K K K K K ; + + / ,.,.0.p.p.6.] ] ] ] ] ] h h h E E E ] ] ]  ..... ... .{ ] ] g     + K K K K K K ",
"K K K K K K K K K &     d 3.3.3.3.3.3.3.3.+.    . E E E 1.1.3.p.s.d.d.d.d.w.2.2.I     + K K K K K K ",
"K K K K K K K K K &     s 3.3.3.3.3.3.3.3.+.    . E E E &.1.3.p.s.d.d.d.d.w.2.2.W     + K K K K K K ",
"K K K K K K K K K ; X X p +.+.1.5.5.5.5.5.&.    . E E E &.1.&.p.d.d.d.d.s.9.+.+.l X X % K K K K K K ",
"K K K K K K K K K K H G >     d d.d.d.d.s.t.    . E E E E E E y.d.d.d.d.s.W     & K K K K K K K K K ",
"K K K K K K K K K K K K >     d s.d.d.d.d.t..     E E E E E E t.d.d.d.d.d.!     & K K K K K K K K K ",
"K K K K K K K K K K K K >     d d.d.d.d.d.t.      ( E E E E E t.d.d.d.d.d.!     & K K K K K K K K K "
};
