/* XPM */
static char *_ec3ba76e1fb4332e567fc87fc47257anwXykM6YRdW6WvNf[] = {
/* columns rows colors chars-per-pixel */
"50 50 138 2 ",
"   c #141B1B",
".  c #141C1B",
"X  c #151C1C",
"o  c #1B2923",
"O  c #1B2A24",
"+  c #232B28",
"@  c #27302F",
"#  c #2B322D",
"$  c #22382C",
"%  c #22392D",
"&  c #2B3232",
"*  c #303536",
"=  c #323A34",
"-  c #264031",
";  c #294735",
":  c #2B4835",
">  c #294836",
",  c #2B4836",
"<  c #2D4F3A",
"1  c #3A423A",
"2  c #30563E",
"3  c #31573E",
"4  c #33583E",
"5  c #3A4443",
"6  c #3A4543",
"7  c #376547",
"8  c #386547",
"9  c #3B6D4C",
"0  c #3C6E4C",
"q  c #3F7450",
"w  c #414940",
"e  c #42494A",
"r  c #40534C",
"t  c #4B544A",
"y  c #50594D",
"u  c #4C4F50",
"i  c #4C5957",
"p  c #4C5A57",
"a  c #545E54",
"s  c #486255",
"d  c #5F695A",
"f  c #5E695E",
"g  c #407650",
"h  c #417A52",
"j  c #437C54",
"k  c #447F56",
"l  c #5E6365",
"z  c #5A6C62",
"x  c #5A6B66",
"c  c #5F6E6B",
"v  c #67686B",
"b  c #67696B",
"n  c #6E7866",
"m  c #677368",
"M  c #64726B",
"N  c #6C786B",
"B  c #727E6E",
"V  c #757678",
"C  c #458258",
"Z  c #468459",
"A  c #48895C",
"S  c #498C5E",
"D  c #57995F",
"F  c #5A9B5E",
"G  c #5F9E5D",
"H  c #63A15C",
"J  c #6CA759",
"K  c #75AD56",
"L  c #4B8E60",
"P  c #4B8F60",
"I  c #4C9161",
"U  c #4D9262",
"Y  c #509461",
"T  c #519461",
"R  c #529561",
"E  c #76806C",
"W  c #6C807A",
"Q  c #738077",
"!  c #72827F",
"~  c #72837F",
"^  c #7A887D",
"/  c #8D977F",
"(  c #7E8D84",
")  c #838286",
"_  c #838386",
"`  c #838D88",
"'  c #8D9780",
"]  c #8B9784",
"[  c #849893",
"{  c #859893",
"}  c #859894",
"|  c #8D9C91",
" . c #8E9D9A",
".. c #949797",
"X. c #94A18E",
"o. c #99A492",
"O. c #98A796",
"+. c #96A89B",
"@. c #9CAC9D",
"#. c #A3A69D",
"$. c #A6AB9B",
"%. c #A6AC9B",
"&. c #9E9BA0",
"*. c #9F9CA1",
"=. c #9FA2A4",
"-. c #97ACA7",
";. c #98ADA8",
":. c #A0A7A8",
">. c #A5B1A3",
",. c #A0B1A5",
"<. c #A9B4A7",
"1. c #A9B7AB",
"2. c #B2B6AA",
"3. c #A9B1B2",
"4. c #A6BAB5",
"5. c #A7BDB4",
"6. c #B2B1B5",
"7. c #BBB6BB",
"8. c #B7BFBF",
"9. c #AAC1BC",
"0. c #ABC2BC",
"q. c #BAC1B9",
"w. c #BFC0B8",
"e. c #B3C7C3",
"r. c #BCC6C6",
"t. c #C4C0C6",
"y. c #C5D1CF",
"u. c #C6D1CF",
"i. c #CED6D6",
"p. c #D6D1D6",
"a. c #D6D6D9",
"s. c #D7DBDD",
"d. c #E4DDE3",
"f. c #E5E0E3",
"g. c #E0E0E4",
"h. c #E9E5EA",
"j. c #F1E9F0",
"k. c #F2EAF1",
/* pixels */
"U U U U U U U U U U U U U U U U U U U U U U U U U U U U U U U U U U U P P P U U U U U U U U U U U U ",
"U U U U U U U U U U U U U U U U U U U U U U U U U U U U U U U U U U I P L P U U U U U U U U U U U U ",
"U U U U U U U U U U U U U U U U U U U U U U U U U U U U U U U U U U P L q I P U U U U U U U U U U U ",
"U U U U U U U U U U U U U U U U U U U U U U U U U U U U U U U U U I q q L q q U U U U U U U U U U U ",
"U U U U U U U U U U U U U U U U U U U U U U U U U U U U U U U U U P q C U q C U U U U U U U U U U U ",
"U U U U U U U U U U U U U U U U U U U U U U U U U U U U U U U U U U U L q P I U U U U U U U U U U U ",
"U U U U U U U U U U U U U U U U U U U U U U U U U U U U U U U U U U I P L P I U U U U U U U U U U U ",
"U U U U U U U U U U U U U U U U U U U U U U U U U U U U U U U U U U U I I P I I U U U U U U U U U U ",
"U U U U U U U U U U U U U U U U U U U U U U U U U U U U U U U U L I I I I I I I U U U U U U U U U U ",
"U U U U U U U U U U U U 9 ; ; : > > > > > > > : > : > : , , : , - 5 > > > > > > 7 U U U U U U U U U ",
"U U U U U U U U U U U U 3                                   . .     X X X X X   > I U U U U U U U U ",
"U U U U U U U U U U T U 3                                   . .   X X X X X     > U U U U U U U U U ",
"U U U U U U U U U 0 4 3 z ) ) ) ) ) ) ) ) ) ) ) ) ) ) ) ) ) ) ) ) ) ) ) ) ) ) ( c 7 6 7 U U U U U U ",
"U U U U U U U U U :     ) k.k.k.k.k.k.k.k.k.k.k.k.k.k.k.k.k.k.k.k.k.k.k.k.k.k.k.*.X . % U U U U U U ",
"U U U U U U U U U ;     ) k.k.k.k.k.k.k.k.k.k.k.k.k.k.k.k.k.k.k.k.k.k.k.k.k.k.k.&.  . % U U U U U U ",
"U U U U U U 9 8 8 s i i =.k.k.k.k.k.k.k.k.k.k.k.k.k.k.k.k.k.k.k.k.k.k.k.k.k.k.k.3.i 9 6 7 7 9 I U U ",
"U U U U U U % .   W 9.9.i.k.k.k.k.k.k.k.k.k.k.k.k.k.k.k.k.k.k.k.k.k.k.k.k.k.k.k.s.5.e.}     O I U U ",
"U U U U U U % .   ( 9.9.i.k.k.k.k.k.k.k.k.k.k.k.k.k.k.k.k.k.k.k.k.k.k.k.k.k.k.k.s.8.5.[     O I U U ",
"U U U U U U % .   ( 9.9.i.k.k.k.k.k.k.k.k.k.k.k.k.k.k.k.k.k.k.k.k.k.k.k.k.k.k.k.s.4.e.( . . O U U U ",
"U U U U U U % .   V 9.e.i.k.k.k.k.k.k.k.k.k.k.k.k.k.k.k.k.k.k.k.k.k.k.k.k.k.k.k.s.e.e.} . . O U U U ",
"U U U U U U % .   M 9.9.i.k.k.k.k.k.k.k.k.k.k.k.k.k.k.k.k.k.k.k.k.k.k.k.k.k.k.k.s.e.9.( O . O U U U ",
"U U U U S U % .   ( 9.9.i.k.k.k.k.k.k.k.k.k.k.k.k.k.k.k.k.k.k.k.k.k.k.k.k.k.k.k.i.9.e. .. . O U U U ",
"U U U U U U %     ( 9.9.i.k.k.k.k.k.k.k.k.k.k.k.k.k.k.k.k.k.k.k.k.k.k.k.k.k.k.k.s.9.9.( . . O U U U ",
"U U U U P S %     ( 9.9.i.k.k.k.k.k.k.k.k.k.k.k.k.k.k.k.k.k.k.k.k.k.k.k.k.k.k.k.s.e.9.( . . O U U U ",
"H H T U U U - .   V 9.9.r.k.k.k.k.k.k.k.k.k.k.k.k.k.k.k.k.k.k.k.k.j.k.k.j.k.k.k.s.0.9.{     O U U U ",
"J H F U U U % .   ( 9.9.s.k.k.*.        . # 0.0.9.9.0.0.0.0.9.6       X   _ k.k.s.9.9.{     O U U U ",
"T G K F U U % .   W 9.9.i.k.k.*.        . @ 0.0.9.9.0.0.0.0.9.6         X _ j.k.s.0.0.{     O U U U ",
"H H G T U U % .   ( 9.9.i.k.k.-.        . @ 0.0.9.9.0.0.0.0.9.6           _ j.k.s.0.0.[     O U U U ",
"K H U U U U % .   W 9.9.i.k.k.*.        . @ 9.0.0.0.0.0.0.0.9.6           _ k.k.s.0.0.[     O U U U ",
"U U U U U U % .   ( 9.9.i.k.k.*.        X @ 9.0.0.0.0.0.0.0.9.6         . _ k.k.s.0.0.[     O U U U ",
"U U U U I U % .   V 9.9.i.k.k.*.        X @ 0.0.0.0.0.0.0.0.9.6 X X X X   _ k.k.s.0.0.[     o U U U ",
"U U U U U U % . . ( 9.9.1.%.%.#.7.7.7.7.7.t.g.g.g.g.g.g.g.g.g.t.7.7.7.7.7.<.%.%.>.0.0.[ . . o U U U ",
"U U U U U U $ . . ( e.4.-./ / 2.k.k.k.k.k.k.k.k.k.k.k.k.k.k.k.k.k.k.k.k.k.w./ / O.0.9.[ .   O U U U ",
"U U U U U U % . . W 4.e.@.' / 2.k.k.k.k.k.k.k.k.k.k.k.k.k.k.k.k.k.k.k.k.k.w./ / O.0.9.[ . . O U U U ",
"U U U U U U q 7 7 s p p N / / @.y.y.3.b b V k.k.k.b b b d.k.k.) v v :.u.u.<./ / E i p M V ( B > , , ",
"U U U U U U U U S : . . y / / O.9.9.} X   & k.k.k.X X X p.k.j.u     ( 9.9.@./ / d . . 6 4.e.-..     ",
"U U U U U U U U U ;     y / / O.9.9.} X   * k.k.k..   X p.k.k.t     M 9.9.-./ / z . . 6 9.9.-..     ",
"U U U U U U U U U ;     = y p B 9.9.} X   & i.i.a.    . 8.i.i.e     ( 9.e.( i r 1 . . 6 9.9.-..     ",
"U U U U U U U U U ;         . i 9.9.}     # 0.0.9.    . ;.9.9.6     V e.9.c   .     . 6 9.9.-..     ",
"U U U U U U U U U ;       . . i 9.9.}     # 0.0.0..   . ;.9.9.6     ( 4.9.x . .     . 6 9.9.-..     ",
"U U U U U U U U U ;     # w w m ,.,.| w w t ,.,.,.w w w +.,.,.f w w ^ ,.;.( v v c v v l ( W N > ; ; ",
"U U U U U U U U U ;     y / / / / / / / / / / / / / / / / / / / / / ' ' ] 8.k.k.j.j.j.7.    O P U U ",
"U U U U U U U U U ;     y / / / / / / / / / / / / / / / / / / / / / ] ' ] w.k.k.j.j.j.7.X X O U U U ",
"U U U U U U U U U ;     a X.X.o.$.$.%.%.$.$.X.X.X./ / / E n n ] X.X.X.X.X.w.g.g.a.7.7...% % > U U U ",
"U U U U U U U U U ; . . b 0.0.y.k.k.k.k.k.h.0.0.9./ / / +     [ 0.0.0.0.9.9.9.4.( . X % P U U U U U ",
"U U U U U U U U U ;   . c 0.0.y.k.k.k.k.k.h.0.0.9./ / / +     [ 0.0.0.0.9.9.9.e.( . . % U P U U U U ",
"U U U U U U U U U < O O x -.-.r.k.k.k.k.k.h.5.5.5./ / / +   .  .e.e.e.e.e.4.-.-.V o O % U U U U U U ",
"U U U U U U U U U U I I 2 . . b k.k.k.k.k.f./ / / / / / +   X 7.k.k.k.k.h.(     > L U U U U U U U U ",
"U U U U U U U U U U U U 2     b j.k.k.k.k.f./ / / / / / + . . 7.k.k.k.k.k._     ; U U U U U U U U U ",
"U U U U U U U U U U U U 2     b k.k.k.k.k.f./ / / / / / +   . 7.k.k.k.k.k._     ; U U U U U U U U U "
};
